<svg width="162" height="162" viewBox="0 0 162 162" fill="none" xmlns="http://www.w3.org/2000/svg">
<g clip-path="url(#clip0_4401_4932)">
<path d="M127.485 44.9447C127.118 44.5773 126.619 44.3709 126.099 44.3709C125.579 44.3709 125.081 44.5773 124.713 44.9447L89.2566 81.5876C88.9934 81.8598 88.8161 82.2035 88.7469 82.5758C88.6776 82.9482 88.7195 83.3326 88.8674 83.6813C89.0152 84.0299 89.2624 84.3273 89.5781 84.5364C89.8938 84.7455 90.2641 84.8571 90.6428 84.8571H140.786C141.297 84.8571 141.788 84.6539 142.149 84.2922C142.511 83.9306 142.714 83.44 142.714 82.9286C142.787 68.7655 137.322 55.1347 127.485 44.9447ZM95.1926 81L126.072 49.0872C133.929 57.903 138.441 69.1974 138.822 81H95.1926Z" fill="#5588A3"/>
<path d="M82.1926 77.9612C82.5461 78.1038 82.9335 78.1398 83.3072 78.0649C83.6808 77.9899 84.0244 77.8072 84.2954 77.5393L120.938 40.7194C121.298 40.358 121.5 39.8687 121.5 39.3587C121.5 38.8487 121.298 38.3594 120.938 37.9979C115.969 32.9713 110.049 28.9839 103.523 26.2679C96.9978 23.552 89.9968 22.1619 82.9286 22.1786C82.4171 22.1786 81.9266 22.3818 81.5649 22.7435C81.2032 23.1051 81 23.5957 81 24.1071V76.1786C81 76.5604 81.1133 76.9336 81.3256 77.251C81.5379 77.5683 81.8397 77.8155 82.1926 77.9612ZM84.8571 26.0724C96.7709 26.5047 108.126 31.233 116.825 39.3841L84.8571 71.5069V26.0724Z" fill="#FCFCFC"/>
<path d="M1.92857 145.607C2.99369 145.607 3.85714 144.744 3.85714 143.679C3.85714 142.613 2.99369 141.75 1.92857 141.75C0.863451 141.75 0 142.613 0 143.679C0 144.744 0.863451 145.607 1.92857 145.607Z" fill="#FCFCFC"/>
<path d="M10.6071 141.75H7.71422C7.20273 141.75 6.71219 141.953 6.35051 142.315C5.98883 142.677 5.78564 143.167 5.78564 143.679C5.78564 144.19 5.98883 144.681 6.35051 145.042C6.71219 145.404 7.20273 145.607 7.71422 145.607H10.6071C11.1186 145.607 11.6091 145.404 11.9708 145.042C12.3325 144.681 12.5356 144.19 12.5356 143.679C12.5356 143.167 12.3325 142.677 11.9708 142.315C11.6091 141.953 11.1186 141.75 10.6071 141.75Z" fill="#FCFCFC"/>
<path d="M154.286 141.75H151.393C150.881 141.75 150.391 141.953 150.029 142.315C149.668 142.677 149.464 143.167 149.464 143.679C149.464 144.19 149.668 144.681 150.029 145.042C150.391 145.404 150.881 145.607 151.393 145.607H154.286C154.797 145.607 155.288 145.404 155.649 145.042C156.011 144.681 156.214 144.19 156.214 143.679C156.214 143.167 156.011 142.677 155.649 142.315C155.288 141.953 154.797 141.75 154.286 141.75Z" fill="#FCFCFC"/>
<path d="M160.072 145.607C161.137 145.607 162 144.744 162 143.679C162 142.613 161.137 141.75 160.072 141.75C159.007 141.75 158.143 142.613 158.143 143.679C158.143 144.744 159.007 145.607 160.072 145.607Z" fill="#FCFCFC"/>
<path d="M113.934 149.464H105.923C105.438 149.503 104.986 149.723 104.656 150.081C104.326 150.438 104.143 150.906 104.143 151.393C104.143 151.879 104.326 152.348 104.656 152.705C104.986 153.063 105.438 153.283 105.923 153.321H113.934C114.419 153.283 114.872 153.063 115.201 152.705C115.531 152.348 115.715 151.879 115.715 151.393C115.715 150.906 115.531 150.438 115.201 150.081C114.872 149.723 114.419 149.503 113.934 149.464Z" fill="#5588A3"/>
<path d="M56.0769 149.464H48.0659C47.581 149.503 47.1286 149.723 46.7987 150.081C46.4688 150.438 46.2856 150.906 46.2856 151.393C46.2856 151.879 46.4688 152.348 46.7987 152.705C47.1286 153.063 47.581 153.283 48.0659 153.321H56.0769C56.5617 153.283 57.0141 153.063 57.344 152.705C57.6739 152.348 57.8571 151.879 57.8571 151.393C57.8571 150.906 57.6739 150.438 57.344 150.081C57.0141 149.723 56.5617 149.503 56.0769 149.464Z" fill="#5588A3"/>
<path d="M100.286 149.464H61.7142C61.2027 149.464 60.7122 149.667 60.3505 150.029C59.9888 150.391 59.7856 150.881 59.7856 151.393C59.7856 151.904 59.9888 152.395 60.3505 152.757C60.7122 153.118 61.2027 153.321 61.7142 153.321H77.0849V155.25H69.4285C68.917 155.25 68.4265 155.453 68.0648 155.815C67.7031 156.177 67.4999 156.667 67.4999 157.179C67.4999 157.69 67.7031 158.181 68.0648 158.542C68.4265 158.904 68.917 159.107 69.4285 159.107H93.5356C94.0471 159.107 94.5377 158.904 94.8994 158.542C95.261 158.181 95.4642 157.69 95.4642 157.179C95.4642 156.667 95.261 156.177 94.8994 155.815C94.5377 155.453 94.0471 155.25 93.5356 155.25H84.9149V153.321H100.286C100.797 153.321 101.288 153.118 101.649 152.757C102.011 152.395 102.214 151.904 102.214 151.393C102.214 150.881 102.011 150.391 101.649 150.029C101.288 149.667 100.797 149.464 100.286 149.464Z" fill="#5588A3"/>
<path d="M145.339 141.75H92.1426C101.945 137.79 110.342 130.994 116.26 122.233C122.177 113.471 125.345 103.144 125.357 92.5714C125.357 92.06 125.154 91.5694 124.792 91.2078C124.431 90.8461 123.94 90.6429 123.429 90.6429H74.2502V41.4643C74.2502 40.9528 74.047 40.4623 73.6853 40.1006C73.3236 39.7389 72.8331 39.5357 72.3216 39.5357C60.0082 39.5338 48.078 43.8171 38.5778 51.6507C29.0776 59.4844 22.5998 70.38 20.2557 82.4682C17.9116 94.5564 19.8474 107.084 25.7309 117.9C31.6145 128.717 41.079 137.149 52.5006 141.75H16.6618C16.3874 141.714 16.1086 141.737 15.8439 141.818C15.5791 141.898 15.3346 142.034 15.1267 142.217C14.9187 142.399 14.7521 142.624 14.638 142.876C14.5239 143.128 14.4648 143.402 14.4648 143.679C14.4648 143.955 14.5239 144.229 14.638 144.481C14.7521 144.733 14.9187 144.958 15.1267 145.14C15.3346 145.323 15.5791 145.459 15.8439 145.539C16.1086 145.62 16.3874 145.643 16.6618 145.607H145.339C145.613 145.643 145.892 145.62 146.157 145.539C146.421 145.459 146.666 145.323 146.874 145.14C147.082 144.958 147.248 144.733 147.362 144.481C147.477 144.229 147.536 143.955 147.536 143.679C147.536 143.402 147.477 143.128 147.362 142.876C147.248 142.624 147.082 142.399 146.874 142.217C146.666 142.034 146.421 141.898 146.157 141.818C145.892 141.737 145.613 141.714 145.339 141.75ZM23.1431 92.5714C23.1575 79.8667 28.0824 67.6593 36.8881 58.5012C45.6938 49.3431 57.6987 43.9433 70.3931 43.4305V92.5714C70.3931 93.0829 70.5963 93.5734 70.958 93.9351C71.3196 94.2968 71.8102 94.5 72.3216 94.5H121.463C120.958 107.366 115.427 119.521 106.059 128.354C96.6902 137.187 84.231 141.993 71.3575 141.741C58.4839 141.488 46.2229 136.197 37.2079 127.003C28.1929 117.81 23.1431 105.447 23.1431 92.5714Z" fill="#FCFCFC"/>
<path d="M39.6424 38.6342C40.2145 38.6342 40.7738 38.4646 41.2496 38.1467C41.7253 37.8288 42.0961 37.377 42.315 36.8484C42.534 36.3198 42.5913 35.7382 42.4796 35.177C42.368 34.6158 42.0925 34.1004 41.6879 33.6958C41.2834 33.2912 40.7679 33.0157 40.2067 32.9041C39.6456 32.7925 39.0639 32.8498 38.5353 33.0687C38.0067 33.2877 37.5549 33.6584 37.237 34.1342C36.9192 34.6099 36.7495 35.1692 36.7495 35.7414C36.7504 36.5083 37.0555 37.2436 37.5978 37.786C38.1401 38.3283 38.8754 38.6333 39.6424 38.6342ZM39.6424 34.2949C39.9284 34.2949 40.2081 34.3798 40.446 34.5387C40.6838 34.6976 40.8692 34.9235 40.9787 35.1878C41.0882 35.4521 41.1168 35.743 41.061 36.0235C41.0052 36.3041 40.8674 36.5619 40.6651 36.7641C40.4629 36.9664 40.2051 37.1042 39.9246 37.16C39.644 37.2158 39.3531 37.1872 39.0888 37.0777C38.8245 36.9682 38.5986 36.7828 38.4397 36.545C38.2808 36.3071 38.1959 36.0274 38.1959 35.7414C38.1963 35.3579 38.3488 34.9902 38.62 34.719C38.8912 34.4478 39.2589 34.2953 39.6424 34.2949Z" fill="#FCFCFC"/>
<path d="M153.428 42.0527C153.047 42.0527 152.674 42.1658 152.357 42.3777C152.039 42.5896 151.792 42.8908 151.646 43.2432C151.5 43.5956 151.462 43.9834 151.537 44.3575C151.611 44.7316 151.795 45.0753 152.064 45.345C152.334 45.6147 152.678 45.7984 153.052 45.8728C153.426 45.9472 153.814 45.909 154.166 45.763C154.519 45.6171 154.82 45.3699 155.032 45.0527C155.244 44.7356 155.357 44.3627 155.357 43.9813C155.356 43.47 155.153 42.9798 154.791 42.6182C154.43 42.2567 153.939 42.0533 153.428 42.0527ZM153.428 44.9456C153.237 44.9456 153.051 44.889 152.892 44.7831C152.734 44.6771 152.61 44.5265 152.537 44.3503C152.464 44.1741 152.445 43.9802 152.482 43.7932C152.52 43.6061 152.611 43.4343 152.746 43.2994C152.881 43.1646 153.053 43.0727 153.24 43.0355C153.427 42.9983 153.621 43.0174 153.797 43.0904C153.973 43.1634 154.124 43.287 154.23 43.4455C154.336 43.6041 154.392 43.7906 154.392 43.9813C154.392 44.2369 154.29 44.4821 154.11 44.6628C153.929 44.8436 153.684 44.9453 153.428 44.9456Z" fill="#FCFCFC"/>
<path d="M8.57213 10.2313C8.19069 10.2313 7.81782 10.3444 7.50067 10.5563C7.18352 10.7682 6.93633 11.0694 6.79036 11.4218C6.64439 11.7742 6.6062 12.162 6.68061 12.5361C6.75503 12.9102 6.93871 13.2538 7.20842 13.5236C7.47814 13.7933 7.82177 13.9769 8.19588 14.0514C8.56999 14.1258 8.95776 14.0876 9.31016 13.9416C9.66256 13.7956 9.96376 13.5485 10.1757 13.2313C10.3876 12.9142 10.5007 12.5413 10.5007 12.1598C10.5001 11.6485 10.2967 11.1583 9.93519 10.7968C9.57364 10.4352 9.08344 10.2319 8.57213 10.2313ZM8.57213 13.1241C8.38141 13.1241 8.19497 13.0676 8.0364 12.9616C7.87782 12.8557 7.75423 12.7051 7.68124 12.5289C7.60826 12.3527 7.58916 12.1588 7.62637 11.9717C7.66358 11.7847 7.75542 11.6129 7.89027 11.478C8.02513 11.3431 8.19695 11.2513 8.384 11.2141C8.57106 11.1769 8.76494 11.196 8.94114 11.269C9.11734 11.3419 9.26794 11.4655 9.3739 11.6241C9.47986 11.7827 9.53641 11.9691 9.53641 12.1598C9.53616 12.4155 9.43448 12.6606 9.2537 12.8414C9.07291 13.0222 8.82779 13.1239 8.57213 13.1241Z" fill="#FCFCFC"/>
<path d="M102.748 2.89286C102.366 2.89286 101.994 3.00597 101.676 3.21788C101.359 3.4298 101.112 3.731 100.966 4.0834C100.82 4.4358 100.782 4.82357 100.856 5.19768C100.931 5.57178 101.114 5.91542 101.384 6.18514C101.654 6.45485 101.998 6.63853 102.372 6.71295C102.746 6.78736 103.134 6.74917 103.486 6.6032C103.838 6.45723 104.14 6.21004 104.351 5.89289C104.563 5.57574 104.676 5.20287 104.676 4.82143C104.676 4.31012 104.473 3.81992 104.111 3.45837C103.749 3.09682 103.259 2.89344 102.748 2.89286ZM102.748 5.78572C102.557 5.78572 102.371 5.72916 102.212 5.62321C102.054 5.51725 101.93 5.36665 101.857 5.19045C101.784 5.01425 101.765 4.82036 101.802 4.63331C101.839 4.44626 101.931 4.27444 102.066 4.13958C102.201 4.00472 102.373 3.91288 102.56 3.87567C102.747 3.83847 102.941 3.85756 103.117 3.93055C103.293 4.00353 103.444 4.12713 103.55 4.2857C103.656 4.44428 103.712 4.63071 103.712 4.82143C103.712 5.0771 103.61 5.32222 103.429 5.503C103.249 5.68379 103.004 5.78546 102.748 5.78572Z" fill="#FCFCFC"/>
<path d="M76.1599 20.25C76.1599 19.8686 76.0468 19.4957 75.8349 19.1785C75.6229 18.8614 75.3217 18.6142 74.9693 18.4682C74.6169 18.3223 74.2292 18.2841 73.8551 18.3585C73.481 18.4329 73.1373 18.6166 72.8676 18.8863C72.5979 19.156 72.4142 19.4996 72.3398 19.8738C72.2654 20.2479 72.3036 20.6356 72.4495 20.988C72.5955 21.3404 72.8427 21.6416 73.1598 21.8535C73.477 22.0655 73.8499 22.1786 74.2313 22.1786C74.7426 22.178 75.2328 21.9746 75.5944 21.6131C75.9559 21.2515 76.1593 20.7613 76.1599 20.25ZM73.267 20.25C73.267 20.0593 73.3236 19.8728 73.4295 19.7143C73.5355 19.5557 73.6861 19.4321 73.8623 19.3591C74.0385 19.2861 74.2324 19.267 74.4194 19.3042C74.6065 19.3414 74.7783 19.4333 74.9132 19.5681C75.048 19.703 75.1399 19.8748 75.1771 20.0619C75.2143 20.2489 75.1952 20.4428 75.1222 20.619C75.0492 20.7952 74.9256 20.9458 74.767 21.0518C74.6085 21.1577 74.422 21.2143 74.2313 21.2143C73.9756 21.214 73.7305 21.1124 73.5497 20.9316C73.369 20.7508 73.2673 20.5057 73.267 20.25Z" fill="#FCFCFC"/>
<path d="M8.00816 45.6686L9.44206 43.7824L8.53659 43.2694L7.6157 45.3812H7.58581L6.65045 43.2839L5.72956 43.8123L7.14802 45.6531V45.683L4.9292 45.3966V46.4226L7.16248 46.1363V46.1661L5.72956 48.007L6.58874 48.5499L7.57038 46.4226H7.60027L8.50574 48.5344L9.45652 47.9915L8.00816 46.1806V46.1507L10.2858 46.4226V45.3966L8.00816 45.6985V45.6686Z" fill="#5588A3"/>
<path d="M51.8147 6.89754L50.9893 7.95729L51.4849 8.27068L52.05 7.04507H52.0673L52.588 8.262L53.1358 7.94861L52.3017 6.90622V6.88886L53.6131 7.04507V6.45493L52.3017 6.6285V6.61115L53.1271 5.52536L52.6064 5.22932L52.076 6.44529H52.0587L51.5206 5.238L50.9893 5.54175L51.807 6.60247V6.61982L50.5293 6.45493V7.04507L51.8147 6.88018V6.89754Z" fill="#5588A3"/>
<path d="M126.717 23.6453V22.6395L124.483 22.9355V22.9056L125.888 21.0561L125 20.5528L124.098 22.6241H124.068L123.151 20.5673L122.247 21.086L123.639 22.8912V22.9211L121.462 22.6395V23.6453L123.653 23.3646V23.3945L122.247 25.1997L123.091 25.7329L124.053 23.6453H124.082L124.97 25.7175L125.903 25.1852L124.483 23.409V23.3791L126.717 23.6453Z" fill="#5588A3"/>
<path d="M145.928 10.7961L147.141 9.20025L146.375 8.76632L145.597 10.5531H145.571L144.78 8.77886L144 9.22628L145.2 10.7836V10.8096L143.324 10.5666V11.4345L145.213 11.1925V11.2175L144 12.7749L144.728 13.2348L145.558 11.4345H145.583L146.349 13.2213L147.154 12.7623L145.928 11.2301V11.205L147.855 11.4345V10.5666L145.928 10.8212V10.7961Z" fill="#5588A3"/>
</g>
<defs>
<clipPath id="clip0_4401_4932">
<rect width="162" height="162" fill="white"/>
</clipPath>
</defs>
</svg>
