<svg width="138" height="138" viewBox="0 0 138 138" fill="none" xmlns="http://www.w3.org/2000/svg">
<path d="M105.387 21.832H113.473V4.04297C113.473 1.81017 111.662 0 109.43 0C107.197 0 105.387 1.81017 105.387 4.04297V21.832Z" fill="#195293"/>
<path d="M89.2148 21.832H97.3008V4.04297C97.3008 1.81017 95.4906 0 93.2578 0C91.025 0 89.2148 1.81017 89.2148 4.04297V21.832Z" fill="#195293"/>
<path d="M73.043 21.832H81.1289V4.04297C81.1289 1.81017 79.3187 0 77.0859 0C74.8531 0 73.043 1.81017 73.043 4.04297V21.832Z" fill="#195293"/>
<path d="M56.8711 21.832H64.957V4.04297C64.957 1.81017 63.1469 0 60.9141 0C58.6813 0 56.8711 1.81017 56.8711 4.04297V21.832Z" fill="#328BF3"/>
<path d="M40.6992 21.832H48.7852V4.04297C48.7852 1.81017 46.975 0 44.7422 0C42.5094 0 40.6992 1.81017 40.6992 4.04297V21.832Z" fill="#328BF3"/>
<path d="M24.5273 21.832H32.6133V4.04297C32.6133 1.81017 30.8031 0 28.5703 0C26.3375 0 24.5273 1.81017 24.5273 4.04297V21.832Z" fill="#328BF3"/>
<path d="M109.43 138C111.662 138 113.473 136.19 113.473 133.957V116.168H105.387V133.957C105.387 136.19 107.197 138 109.43 138Z" fill="#195293"/>
<path d="M93.2578 138C95.4906 138 97.3008 136.19 97.3008 133.957V116.168H89.2148V133.957C89.2148 136.19 91.025 138 93.2578 138Z" fill="#195293"/>
<path d="M77.0859 138C79.3187 138 81.1289 136.19 81.1289 133.957V116.168H73.043V133.957C73.043 136.19 74.8531 138 77.0859 138Z" fill="#195293"/>
<path d="M60.9141 138C63.1469 138 64.957 136.19 64.957 133.957V116.168H56.8711V133.957C56.8711 136.19 58.6813 138 60.9141 138Z" fill="#328BF3"/>
<path d="M44.7422 138C46.975 138 48.7852 136.19 48.7852 133.957V116.168H40.6992V133.957C40.6992 136.19 42.5094 138 44.7422 138Z" fill="#328BF3"/>
<path d="M28.5703 138C30.8031 138 32.6133 136.19 32.6133 133.957V116.168H24.5273V133.957C24.5273 136.19 26.3375 138 28.5703 138Z" fill="#328BF3"/>
<path d="M4.04297 32.6133H21.832V24.5273H4.04297C1.81017 24.5273 0 26.3375 0 28.5703C0 30.8031 1.81017 32.6133 4.04297 32.6133Z" fill="#328BF3"/>
<path d="M4.04297 48.7852H21.832V40.6992H4.04297C1.81017 40.6992 0 42.5094 0 44.7422C0 46.975 1.81017 48.7852 4.04297 48.7852Z" fill="#328BF3"/>
<path d="M4.04297 64.957H21.832V56.8711H4.04297C1.81017 56.8711 0 58.6813 0 60.9141C0 63.1469 1.81017 64.957 4.04297 64.957Z" fill="#328BF3"/>
<path d="M4.04297 81.1289H21.832V73.043H4.04297C1.81017 73.043 0 74.8531 0 77.0859C0 79.3187 1.81017 81.1289 4.04297 81.1289Z" fill="#328BF3"/>
<path d="M4.04297 97.3008H21.832V89.2148H4.04297C1.81017 89.2148 0 91.025 0 93.2578C0 95.4906 1.81017 97.3008 4.04297 97.3008Z" fill="#328BF3"/>
<path d="M4.04297 113.473H21.832V105.387H4.04297C1.81017 105.387 0 107.197 0 109.43C0 111.662 1.81017 113.473 4.04297 113.473Z" fill="#328BF3"/>
<path d="M116.168 24.5273V32.6133H133.957C136.19 32.6133 138 30.8031 138 28.5703C138 26.3375 136.19 24.5273 133.957 24.5273H116.168Z" fill="#195293"/>
<path d="M116.168 48.7852H133.957C136.19 48.7852 138 46.975 138 44.7422C138 42.5094 136.19 40.6992 133.957 40.6992H116.168V48.7852Z" fill="#195293"/>
<path d="M116.168 64.957H133.957C136.19 64.957 138 63.1469 138 60.9141C138 58.6813 136.19 56.8711 133.957 56.8711H116.168V64.957Z" fill="#195293"/>
<path d="M116.168 81.1289H133.957C136.19 81.1289 138 79.3187 138 77.0859C138 74.8531 136.19 73.043 133.957 73.043H116.168V81.1289Z" fill="#195293"/>
<path d="M116.168 97.3008H133.957C136.19 97.3008 138 95.4906 138 93.2578C138 91.025 136.19 89.2148 133.957 89.2148H116.168V97.3008Z" fill="#195293"/>
<path d="M116.168 113.473H133.957C136.19 113.473 138 111.662 138 109.43C138 107.197 136.19 105.387 133.957 105.387H116.168V113.473Z" fill="#195293"/>
<path d="M120.211 13.7461H17.7891C15.5563 13.7461 13.7461 15.5563 13.7461 17.7891V120.211C13.7461 122.444 15.5563 124.254 17.7891 124.254H120.211C122.444 124.254 124.254 122.444 124.254 120.211V17.7891C124.254 15.5563 122.444 13.7461 120.211 13.7461Z" fill="#80BBFF"/>
<path d="M124.254 120.211V17.7891C124.254 15.5563 122.444 13.7461 120.211 13.7461H69V124.254H120.211C122.444 124.254 124.254 122.444 124.254 120.211Z" fill="#267BDD"/>
<path d="M104.039 29.918H33.9609C31.7281 29.918 29.918 31.7281 29.918 33.9609V104.039C29.918 106.272 31.7281 108.082 33.9609 108.082H104.039C106.272 108.082 108.082 106.272 108.082 104.039V33.9609C108.082 31.7281 106.272 29.918 104.039 29.918Z" fill="#328BF3"/>
<path d="M108.082 104.039V33.9609C108.082 31.7281 106.272 29.918 104.039 29.918H69V108.082H104.039C106.272 108.082 108.082 106.272 108.082 104.039Z" fill="#195293"/>
<path d="M66.7429 51.8548C66.7289 51.8177 66.7144 51.781 66.6993 51.7441C65.9597 49.946 64.2263 48.7852 62.2825 48.7852C62.2809 48.7852 62.2792 48.7852 62.2776 48.7852C60.3319 48.787 58.5985 49.952 57.8619 51.7527C57.8495 51.7832 57.8374 51.8139 57.8258 51.8446L45.6807 83.7328C44.8858 85.8196 45.9332 88.1553 48.02 88.9499C50.1067 89.745 52.4424 88.6973 53.237 86.6106L55.2701 81.2728H69.2024L71.2126 86.5993C71.8236 88.2184 73.3618 89.2159 74.9957 89.2159C75.4701 89.2159 75.9526 89.1318 76.4226 88.9545C78.5115 88.1661 79.5662 85.8336 78.7775 83.7444L66.7429 51.8548ZM58.3497 73.1872L62.2682 62.8989L66.151 73.1872H58.3497Z" fill="#F9F9F9"/>
<path d="M71.2126 86.5993C71.8236 88.2184 73.3618 89.2159 74.9957 89.2159C75.4701 89.2159 75.9526 89.1318 76.4226 88.9544C78.5115 88.1661 79.5662 85.8335 78.7775 83.7444L69 57.8354V81.2728H69.2024L71.2126 86.5993Z" fill="#E2DFF4"/>
<path d="M88.541 48.7852C86.3082 48.7852 84.498 50.5953 84.498 52.8281V85.1719C84.498 87.4047 86.3082 89.2148 88.541 89.2148C90.7738 89.2148 92.584 87.4047 92.584 85.1719V52.8281C92.584 50.5953 90.7738 48.7852 88.541 48.7852Z" fill="#E2DFF4"/>
</svg>
