<svg width="184" height="184" viewBox="0 0 184 184" fill="none" xmlns="http://www.w3.org/2000/svg">
<path d="M14.4702 84.2374C14.7175 68.2769 14.9649 52.3164 15.2122 36.356C49.3354 43.0927 83.912 20.5571 118.035 27.2938C117.788 43.2542 117.54 59.2147 117.293 75.1752C83.1699 68.4385 48.5932 90.9741 14.4702 84.2374Z" fill="#E6EEF0"/>
<path d="M17.6766 39.3078C17.4553 53.5954 17.2339 67.8828 17.0125 82.1704C49.4879 87.2497 82.3536 67.1439 114.829 72.2233C115.05 57.9357 115.272 43.6483 115.493 29.3607C83.0177 24.2811 50.1521 44.3871 17.6766 39.3078ZM110.888 59.2825C106.317 58.8547 102.547 62.6992 102.476 67.2633C78.2027 67.6476 53.7673 78.4649 29.4935 78.8492C29.5646 74.2609 25.9093 70.6857 21.3386 70.2579C21.4316 64.2547 21.5247 58.2517 21.6177 52.2485C26.1884 52.6763 29.9586 48.8319 30.0294 44.2677C54.303 43.8834 78.7384 33.0662 103.012 32.6819C102.941 37.2702 106.596 40.8453 111.167 41.2731C111.074 47.2763 110.981 53.2793 110.888 59.2825Z" fill="#2072BF"/>
<path d="M78.7466 52.9964C78.619 61.238 72.9226 69.0981 66.0211 70.7098C59.1196 72.3215 53.6306 66.8002 53.7587 58.5348C53.8863 50.2931 59.5826 42.4328 66.4842 40.8213C73.3857 39.2096 78.8747 44.7309 78.7466 52.9964Z" fill="#2072BF"/>
<path d="M168.31 24.7442C167.648 24.0636 164.661 21.0985 163.586 20.0322L64.8521 151.085C66.1597 152.412 68.6715 154.958 69.3153 155.599C70.1241 156.405 71.2785 156.888 72.6537 156.888H135.03C138.205 156.888 141.357 154.314 142.069 151.138L169.386 29.1586C169.783 27.3848 169.336 25.7985 168.309 24.7438L168.31 24.7442Z" fill="#5E5E5E"/>
<path d="M130.168 152.025H67.7917C64.616 152.025 62.6188 149.451 63.3305 146.275L90.6476 24.2964C91.3594 21.1207 94.5108 18.5464 97.6863 18.5464H160.062C163.238 18.5464 165.235 21.1207 164.524 24.2964L137.206 146.276C136.495 149.451 133.343 152.025 130.168 152.025Z" fill="#AFAFAF"/>
<path d="M67.7917 148.959C67.3959 148.959 66.857 148.875 66.5365 148.475C66.2565 148.125 66.1806 147.582 66.323 146.946L93.6401 24.9674C94.0405 23.1807 95.9315 21.6133 97.6864 21.6133H160.062C160.458 21.6133 160.997 21.6972 161.318 22.0976C161.598 22.4476 161.674 22.9902 161.531 23.626L134.214 145.605C133.814 147.392 131.923 148.959 130.168 148.959H67.7917Z" fill="#E6EEF0"/>
<path d="M127.196 28.1681C126.012 28.1681 125.049 27.205 125.049 26.0211C125.049 24.8371 126.012 23.874 127.196 23.874C128.38 23.874 129.343 24.8371 129.343 26.0211C129.343 27.205 128.38 28.1681 127.196 28.1681ZM127.196 24.6409C126.435 24.6409 125.816 25.26 125.816 26.0213C125.816 26.7826 126.435 27.4016 127.196 27.4016C127.957 27.4016 128.577 26.7826 128.577 26.0213C128.577 25.26 127.958 24.6409 127.196 24.6409Z" fill="black"/>
<path d="M113.233 58.1958L114.136 86.1926L95.6417 67.783C100.573 63.0852 106.724 59.6563 113.233 58.1958Z" fill="#FF5C4B"/>
<path d="M114.136 86.1923L84.4579 92.4387C84.4253 90.4281 84.6247 88.3371 85.0732 86.1923C86.5337 79.1888 90.4015 72.7699 95.6417 67.7827L114.136 86.1923Z" fill="#FFC45C"/>
<path d="M114.136 86.1924L100.382 113.871C90.7925 111 84.6074 102.76 84.4579 92.4388L114.136 86.1924Z" fill="#40A4E0"/>
<path d="M114.136 86.1924L138.897 96.8778C132.399 107.481 120.365 114.969 108.129 114.969C105.363 114.969 102.768 114.586 100.382 113.871L114.136 86.1924Z" fill="#B676FF"/>
<path d="M120.142 57.4155C136.193 57.4155 146.516 70.2994 143.198 86.1924C142.408 89.9682 140.923 93.5754 138.897 96.8778L114.136 86.1924L120.142 57.4155Z" fill="#FF8EC1"/>
<path d="M120.142 57.4155L114.136 86.1924L113.233 58.1956C115.504 57.6858 117.819 57.4155 120.142 57.4155Z" fill="#00AAAB"/>
<path d="M114.135 86.5759C113.929 86.5759 113.759 86.4122 113.752 86.2048L112.85 58.2081C112.843 57.9965 113.009 57.8194 113.221 57.8127C113.426 57.8064 113.609 57.9719 113.616 58.1835L114.519 86.1803C114.525 86.3919 114.359 86.569 114.148 86.5757C114.144 86.5757 114.139 86.5757 114.135 86.5757V86.5759Z" fill="black"/>
<path d="M84.4575 92.8223C84.28 92.8223 84.1208 92.6985 84.0828 92.518C84.0391 92.3108 84.1718 92.1074 84.3789 92.0639L114.057 85.8175C114.263 85.7736 114.467 85.9062 114.511 86.1136C114.554 86.3208 114.422 86.5241 114.215 86.5677L84.5369 92.8141C84.5102 92.8196 84.4838 92.8223 84.4575 92.8223Z" fill="black"/>
<path d="M100.381 114.254C100.324 114.254 100.266 114.242 100.211 114.214C100.022 114.12 99.9442 113.89 100.038 113.701L113.792 86.0219C113.887 85.8324 114.117 85.7549 114.306 85.8492C114.496 85.9435 114.573 86.1735 114.479 86.3631L100.725 114.042C100.658 114.176 100.522 114.254 100.381 114.254Z" fill="black"/>
<path d="M138.897 97.2614C138.846 97.2614 138.795 97.2513 138.745 97.23L113.984 86.5446C113.789 86.4606 113.7 86.235 113.784 86.0407C113.868 85.8463 114.093 85.7566 114.288 85.8406L139.049 96.526C139.243 96.6099 139.333 96.8355 139.249 97.0299C139.186 97.1748 139.045 97.2614 138.897 97.2614Z" fill="black"/>
<path d="M114.136 86.5759C114.038 86.5759 113.94 86.5387 113.865 86.4641L95.3712 68.0546C95.2213 67.9052 95.2208 67.6626 95.3701 67.5123C95.5192 67.3623 95.7618 67.3617 95.9121 67.5112L114.406 85.9208C114.556 86.0701 114.556 86.3127 114.407 86.463C114.332 86.5383 114.234 86.5759 114.136 86.5759Z" fill="black"/>
<path d="M114.136 86.5758C114.11 86.5758 114.084 86.5731 114.057 86.5678C113.85 86.5244 113.717 86.3213 113.76 86.1141L119.767 57.3373C119.81 57.1299 120.013 56.9972 120.221 57.0404C120.428 57.0837 120.561 57.2868 120.518 57.494L114.511 86.2709C114.473 86.4516 114.314 86.576 114.136 86.576V86.5758Z" fill="black"/>
<path d="M45.6324 128.021H62.2267V160.208H45.6324V128.021Z" fill="#00AAAB"/>
<path d="M23.0809 141.621H39.6752V160.208H23.0809V141.621Z" fill="#00AAAB"/>
<path d="M68.1839 114.422H84.7782V160.209H68.1839V114.422Z" fill="#00AAAB"/>
<path d="M87.0523 165.836H20.8069C20.5953 165.836 20.4236 165.665 20.4236 165.453C20.4236 165.242 20.5953 165.07 20.8069 165.07H87.0523C87.2639 165.07 87.4356 165.242 87.4356 165.453C87.4356 165.665 87.2639 165.836 87.0523 165.836Z" fill="black"/>
<path d="M150.776 118.665C161.938 120.341 169.463 131.866 167.581 144.408C167.404 145.589 167.149 146.737 166.824 147.846C166.453 149.115 165.989 150.333 165.444 151.493C165.07 152.291 164.655 153.06 164.206 153.799C159.816 161.014 152.043 165.298 143.961 164.086L138.653 163.288C146.734 164.502 154.508 160.218 158.898 153.003C159.346 152.264 159.76 151.495 160.136 150.697C160.681 149.537 161.145 148.319 161.516 147.048C161.84 145.941 162.096 144.791 162.273 143.612C164.154 131.07 156.63 119.544 145.468 117.869L150.776 118.666V118.665Z" fill="#FF871F"/>
<path d="M145.467 117.869C156.63 119.543 164.153 131.07 162.272 143.611C162.095 144.791 161.84 145.94 161.516 147.048C161.145 148.318 160.681 149.537 160.136 150.697C159.76 151.495 159.346 152.263 158.898 153.003C154.508 160.218 146.733 164.501 138.653 163.288C127.49 161.613 119.967 150.088 121.848 137.545C123.73 125.004 134.304 116.194 145.467 117.869Z" fill="#FFC45C"/>
</svg>
