<svg width="23" height="21" viewBox="0 0 23 21" fill="none" xmlns="http://www.w3.org/2000/svg">
<path fill-rule="evenodd" clip-rule="evenodd" d="M14.9498 10.0914C14.7424 10.0914 14.5609 9.92384 14.5609 9.70475C14.5609 7.35911 12.6295 5.45167 10.2443 5.45167C9.72579 5.45167 9.72579 4.67838 10.2443 4.67838C12.6295 4.67838 14.5609 2.75805 14.5609 0.386643C14.5609 -0.128881 15.3387 -0.128881 15.3387 0.386643C15.3387 2.75805 17.2831 4.67838 19.6683 4.67838C20.1738 4.67838 20.1738 5.45167 19.6683 5.45167C17.2442 5.45167 15.3387 7.32045 15.3387 9.70475C15.3387 9.92384 15.1702 10.0914 14.9498 10.0914ZM7.561 20.5308C7.35359 20.5308 7.17211 20.3632 7.17211 20.1441C7.17211 16.471 4.19066 13.4938 0.522185 13.4938C0.00367261 13.4938 0.00367261 12.7206 0.522185 12.7206C4.19066 12.7206 7.17211 9.74341 7.17211 6.09608C7.17211 5.59344 7.94988 5.59344 7.94988 6.09608C7.94988 9.74341 10.9443 12.7206 14.6128 12.7206C15.1183 12.7206 15.1183 13.4938 14.6128 13.4938C10.9443 13.4938 7.94988 16.471 7.94988 20.1441C7.94988 20.3632 7.78136 20.5308 7.561 20.5308ZM2.89438 13.1072C5.0851 13.8418 6.82212 15.5817 7.561 17.7727C8.31284 15.5817 10.0499 13.8418 12.2406 13.1072C10.0369 12.3726 8.29988 10.6456 7.561 8.4546C6.82212 10.6456 5.0851 12.3726 2.89438 13.1072ZM18.022 20.969C17.8016 20.969 17.6331 20.7885 17.6331 20.5823C17.6331 18.6878 16.0646 17.1412 14.1331 17.1412C13.6146 17.1412 13.6146 16.3679 14.1331 16.3679C16.0646 16.3679 17.6331 14.8084 17.6331 12.8881C17.6331 12.3726 18.4109 12.3726 18.4109 12.8881C18.4109 14.8084 19.9664 16.3679 21.872 16.3679C22.3775 16.3679 22.3775 17.1412 21.872 17.1412C19.9664 17.1412 18.4109 18.6878 18.4109 20.5823C18.4109 20.7885 18.2424 20.969 18.022 20.969ZM15.922 16.7545C16.8424 17.1798 17.5942 17.9145 18.022 18.8166C18.4368 17.9016 19.1757 17.167 20.096 16.7545C19.1886 16.3292 18.4368 15.5817 18.022 14.6667C17.5942 15.5946 16.8553 16.3292 15.922 16.7545ZM12.2017 5.06503C13.4332 5.58055 14.4313 6.56005 14.9498 7.77153C15.4554 6.54716 16.4535 5.56766 17.685 5.06503C16.4535 4.5495 15.4554 3.55712 14.9498 2.33275C14.4313 3.57001 13.4461 4.5495 12.2017 5.06503Z" fill="#FCFCFC"/>
<path fill-rule="evenodd" clip-rule="evenodd" d="M12.2405 13.1072C10.0368 12.3726 8.29978 10.6456 7.5609 8.45459C6.82202 10.6456 5.085 12.3726 2.89429 13.1072C5.085 13.8418 6.82202 15.5817 7.5609 17.7727C8.31275 15.5817 10.0498 13.8418 12.2405 13.1072Z" fill="#FCFCFC"/>
<path fill-rule="evenodd" clip-rule="evenodd" d="M12.2017 5.06504C13.4331 5.58057 14.4313 6.56006 14.9498 7.77155C15.4553 6.54717 16.4535 5.56768 17.6849 5.06504C16.4535 4.54952 15.4553 3.55713 14.9498 2.33276C14.4313 3.57002 13.4461 4.54952 12.2017 5.06504Z" fill="#FCFCFC"/>
<path fill-rule="evenodd" clip-rule="evenodd" d="M18.0219 14.6667C17.5941 15.5947 16.8552 16.3293 15.9219 16.7546C16.8422 17.1799 17.5941 17.9146 18.0219 18.8167C18.4367 17.9017 19.1755 17.167 20.0959 16.7546C19.1885 16.3293 18.4367 15.5818 18.0219 14.6667Z" fill="#FCFCFC"/>
</svg>
