<svg width="160" height="160" viewBox="0 0 160 160" fill="none" xmlns="http://www.w3.org/2000/svg">
<path d="M88.3333 125.667C86.1486 125.671 83.9666 125.508 81.8067 125.18C80.9328 125.045 80.1484 124.568 79.6261 123.854C79.1038 123.141 78.8864 122.249 79.0217 121.375C79.1569 120.501 79.6338 119.717 80.3474 119.195C81.061 118.672 81.9528 118.455 82.8267 118.59C84.649 118.868 86.49 119.005 88.3333 119C96.1567 119 100.723 116.757 101.583 115.667C100.723 114.577 96.1567 112.333 88.3333 112.333C80.0533 112.333 75.4167 114.847 74.97 115.847C74.9697 116.279 74.8831 116.706 74.7154 117.105C74.5477 117.503 74.3022 117.863 73.9933 118.165C73.6844 118.467 73.3183 118.705 72.9165 118.864C72.5147 119.022 72.0853 119.099 71.6533 119.09C70.7615 119.069 69.9136 118.698 69.2925 118.058C68.6715 117.418 68.327 116.559 68.3333 115.667C68.3333 108.797 78.7 105.667 88.3333 105.667C97.9667 105.667 108.333 108.797 108.333 115.667C108.333 122.537 97.9667 125.667 88.3333 125.667ZM88.3333 142.333C84.9933 142.333 68.3333 141.933 68.3333 134C68.3302 133.179 68.6299 132.387 69.175 131.773C69.7201 131.16 70.4724 130.769 71.2877 130.676C72.103 130.582 72.9241 130.793 73.5937 131.267C74.2633 131.742 74.7344 132.447 74.9167 133.247C79.1269 135.128 83.7311 135.959 88.3333 135.667C92.9356 135.959 97.5398 135.128 101.75 133.247C101.932 132.447 102.403 131.742 103.073 131.267C103.743 130.793 104.564 130.582 105.379 130.676C106.194 130.769 106.947 131.16 107.492 131.773C108.037 132.387 108.336 133.179 108.333 134C108.333 141.933 91.6733 142.333 88.3333 142.333Z" fill="#FCFCFC"/>
<path d="M88.3333 159C82.1722 159.005 76.0716 157.785 70.3867 155.41C69.7789 155.157 69.2595 154.73 68.8941 154.183C68.5287 153.635 68.3336 152.992 68.3333 152.333V115.667C68.3333 114.783 68.6845 113.935 69.3096 113.31C69.9348 112.685 70.7826 112.333 71.6667 112.333C72.5507 112.333 73.3986 112.685 74.0237 113.31C74.6488 113.935 75 114.783 75 115.667V150.047C83.6295 153.084 93.0372 153.084 101.667 150.047V115.667C101.667 114.783 102.018 113.935 102.643 113.31C103.268 112.685 104.116 112.333 105 112.333C105.884 112.333 106.732 112.685 107.357 113.31C107.982 113.935 108.333 114.783 108.333 115.667V152.333C108.333 152.992 108.138 153.635 107.773 154.183C107.407 154.73 106.888 155.157 106.28 155.41C100.595 157.785 94.4945 159.005 88.3333 159ZM43.3333 99C41.7634 99.0013 40.1945 98.919 38.6333 98.7533C37.7697 98.6405 36.9846 98.1941 36.4459 97.5097C35.9072 96.8253 35.6578 95.9573 35.751 95.0913C35.8442 94.2254 36.2727 93.4303 36.9447 92.8762C37.6167 92.3222 38.4788 92.0531 39.3467 92.1267C40.671 92.2659 42.0017 92.3348 43.3333 92.3333C51.1567 92.3333 55.7233 90.09 56.5833 89C55.7233 87.91 51.1567 85.6667 43.3333 85.6667C35.0533 85.6667 30.4167 88.18 29.97 89.18C29.9697 89.612 29.8831 90.0396 29.7154 90.4378C29.5477 90.8359 29.3022 91.1966 28.9933 91.4987C28.6844 91.8007 28.3183 92.0381 27.9165 92.1969C27.5147 92.3557 27.0853 92.4327 26.6533 92.4233C25.7615 92.4024 24.9136 92.0317 24.2925 91.3913C23.6715 90.7509 23.327 89.8921 23.3333 89C23.3333 82.13 33.7 79 43.3333 79C52.9667 79 63.3333 82.13 63.3333 89C63.3333 95.87 52.9667 99 43.3333 99ZM43.3333 119C39.9933 119 23.3333 118.6 23.3333 110.667C23.3302 109.846 23.6299 109.053 24.175 108.44C24.7201 107.826 25.4724 107.435 26.2877 107.342C27.103 107.249 27.9241 107.46 28.5937 107.934C29.2633 108.408 29.7343 109.113 29.9167 109.913C34.1269 111.795 38.7311 112.625 43.3333 112.333C47.9356 112.625 52.5398 111.795 56.75 109.913C56.9323 109.113 57.4034 108.408 58.073 107.934C58.7426 107.46 59.5637 107.249 60.379 107.342C61.1943 107.435 61.9465 107.826 62.4917 108.44C63.0368 109.053 63.3365 109.846 63.3333 110.667C63.3333 118.6 46.6733 119 43.3333 119ZM42.96 139.227C40.6748 139.225 38.3956 138.994 36.1567 138.537C35.7277 138.449 35.3201 138.278 34.9573 138.033C34.5945 137.788 34.2835 137.474 34.0421 137.108C33.8006 136.743 33.6335 136.334 33.5502 135.904C33.4669 135.474 33.4691 135.032 33.5567 134.603C33.6442 134.174 33.8154 133.767 34.0605 133.404C34.3055 133.041 34.6196 132.73 34.9849 132.489C35.3501 132.247 35.7593 132.08 36.1892 131.997C36.619 131.914 37.061 131.916 37.49 132.003C40.3734 132.598 43.3347 132.717 46.2567 132.357C50.5121 131.816 54.5824 130.289 58.1433 127.897C58.878 127.404 59.7782 127.224 60.6458 127.395C61.5135 127.566 62.2776 128.075 62.77 128.81C63.2624 129.545 63.4428 130.445 63.2716 131.312C63.1003 132.18 62.5913 132.944 61.8567 133.437C57.4279 136.408 52.3671 138.305 47.0767 138.977C45.7108 139.144 44.336 139.227 42.96 139.227Z" fill="#FCFCFC"/>
<path d="M43.3333 159C37.1722 159.005 31.0716 157.785 25.3867 155.41C24.7789 155.157 24.2595 154.73 23.8941 154.183C23.5287 153.635 23.3336 152.992 23.3333 152.333V89.0001C23.3333 88.116 23.6845 87.2682 24.3097 86.6431C24.9348 86.0179 25.7826 85.6667 26.6667 85.6667C27.5507 85.6667 28.3986 86.0179 29.0237 86.6431C29.6488 87.2682 30 88.116 30 89.0001V150.047C38.6295 153.084 48.0372 153.084 56.6667 150.047V89.0001C56.6667 88.116 57.0179 87.2682 57.643 86.6431C58.2681 86.0179 59.116 85.6667 60 85.6667C60.8841 85.6667 61.7319 86.0179 62.357 86.6431C62.9822 87.2682 63.3333 88.116 63.3333 89.0001V152.333C63.3331 152.992 63.138 153.635 62.7726 154.183C62.4072 154.73 61.8878 155.157 61.28 155.41C55.5951 157.785 49.4945 159.005 43.3333 159Z" fill="#FCFCFC"/>
<path d="M140 155.667C139.116 155.667 138.268 155.316 137.643 154.69C137.018 154.065 136.667 153.217 136.667 152.333V65.6668C136.667 64.7827 137.018 63.9349 137.643 63.3097C138.268 62.6846 139.116 62.3334 140 62.3334H149.877L128.333 34.4501L106.79 62.3334H116.667C117.551 62.3334 118.399 62.6846 119.024 63.3097C119.649 63.9349 120 64.7827 120 65.6668V152.333C120 153.217 119.649 154.065 119.024 154.69C118.399 155.316 117.551 155.667 116.667 155.667C115.783 155.667 114.935 155.316 114.31 154.69C113.685 154.065 113.333 153.217 113.333 152.333V69.0001H100C99.3772 68.9997 98.767 68.8249 98.2385 68.4954C97.7101 68.1659 97.2845 67.6949 97.01 67.1359C96.7355 66.5769 96.6231 65.9521 96.6856 65.3325C96.748 64.7129 96.9828 64.1231 97.3633 63.6301L125.697 26.9634C126.021 26.5802 126.425 26.2722 126.88 26.0609C127.335 25.8497 127.831 25.7402 128.333 25.7402C128.835 25.7402 129.331 25.8497 129.787 26.0609C130.242 26.2722 130.646 26.5802 130.97 26.9634L159.303 63.6301C159.684 64.1231 159.919 64.7129 159.981 65.3325C160.044 65.9521 159.931 66.5769 159.657 67.1359C159.382 67.6949 158.957 68.1659 158.428 68.4954C157.9 68.8249 157.289 68.9997 156.667 69.0001H143.333V152.333C143.333 153.217 142.982 154.065 142.357 154.69C141.732 155.316 140.884 155.667 140 155.667Z" fill="#5588A3"/>
<path d="M43.3333 89C42.4493 89 41.6014 88.6488 40.9763 88.0237C40.3512 87.3986 40 86.5507 40 85.6667V22.3333C40 21.4493 40.3512 20.6014 40.9763 19.9763C41.6014 19.3512 42.4493 19 43.3333 19C44.2174 19 45.0652 19.3512 45.6904 19.9763C46.3155 20.6014 46.6667 21.4493 46.6667 22.3333V85.6667C46.6667 86.5507 46.3155 87.3986 45.6904 88.0237C45.0652 88.6488 44.2174 89 43.3333 89Z" fill="#FCFCFC"/>
<path d="M48.3333 44.0001H43.3333C42.4493 44.0001 41.6014 43.6489 40.9763 43.0238C40.3512 42.3987 40 41.5508 40 40.6667V37.3334C40.0053 32.9148 41.7629 28.6786 44.8874 25.5541C48.0119 22.4297 52.248 20.672 56.6667 20.6667H61.6667C62.5507 20.6667 63.3986 21.0179 64.0237 21.6431C64.6488 22.2682 65 23.116 65 24.0001V27.3334C64.9947 31.7521 63.2371 35.9882 60.1126 39.1127C56.9881 42.2371 52.752 43.9948 48.3333 44.0001ZM46.6667 37.3334H48.3333C50.9847 37.3308 53.5267 36.2764 55.4015 34.4016C57.2763 32.5268 58.3307 29.9848 58.3333 27.3334H56.6667C54.0153 27.3361 51.4733 28.3905 49.5985 30.2653C47.7237 32.1401 46.6693 34.6821 46.6667 37.3334Z" fill="#FCFCFC"/>
<path d="M43.3333 49.0001H38.3333C33.9147 48.9948 29.6785 47.2371 26.5541 44.1127C23.4296 40.9882 21.6719 36.7521 21.6667 32.3334V29.0001C21.6667 28.116 22.0178 27.2682 22.643 26.6431C23.2681 26.0179 24.1159 25.6667 25 25.6667H30C34.4186 25.672 38.6548 27.4297 41.7793 30.5541C44.9037 33.6786 46.6614 37.9148 46.6667 42.3334V45.6667C46.6667 46.5508 46.3155 47.3987 45.6903 48.0238C45.0652 48.6489 44.2174 49.0001 43.3333 49.0001ZM28.3333 32.3334C28.336 34.9848 29.3904 37.5268 31.2652 39.4016C33.14 41.2764 35.682 42.3308 38.3333 42.3334H40C39.9973 39.6821 38.9429 37.1401 37.0681 35.2653C35.1933 33.3905 32.6513 32.3361 30 32.3334H28.3333ZM46.6667 72.3334H43.3333C42.4493 72.3334 41.6014 71.9822 40.9763 71.3571C40.3512 70.732 40 69.8841 40 69.0001C40.0062 63.6977 42.1153 58.6142 45.8647 54.8648C49.6141 51.1154 54.6976 49.0063 60 49.0001H63.3333C64.2174 49.0001 65.0652 49.3513 65.6903 49.9764C66.3155 50.6015 66.6667 51.4494 66.6667 52.3334C66.6605 57.6359 64.5514 62.7193 60.802 66.4687C57.0526 70.2181 51.9691 72.3272 46.6667 72.3334ZM59.5767 55.6734C56.6967 55.7688 53.9248 56.7928 51.6744 58.5926C49.4241 60.3924 47.816 62.8715 47.09 65.6601C49.9699 65.5647 52.7419 64.5407 54.9922 62.7409C57.2425 60.9411 58.8507 58.462 59.5767 55.6734Z" fill="#FCFCFC"/>
<path d="M43.3333 70.6667H36.6667C32.248 70.6615 28.0119 68.9038 24.8874 65.7794C21.7629 62.6549 20.0053 58.4187 20 54.0001C20 53.116 20.3512 52.2682 20.9763 51.6431C21.6014 51.0179 22.4493 50.6667 23.3333 50.6667H30C34.4186 50.672 38.6548 52.4297 41.7793 55.5541C44.9037 58.6786 46.6614 62.9148 46.6667 67.3334C46.6667 68.2175 46.3155 69.0653 45.6904 69.6904C45.0652 70.3156 44.2174 70.6667 43.3333 70.6667ZM27.2367 57.3334C27.9282 59.282 29.2058 60.9689 30.8942 62.1625C32.5826 63.3562 34.599 63.998 36.6667 64.0001H39.43C38.7385 62.0515 37.4609 60.3646 35.7725 59.171C34.0841 57.9773 32.0677 57.3355 30 57.3334H27.2367Z" fill="#FCFCFC"/>
</svg>