<svg width="283" height="364" viewBox="0 0 283 364" fill="none" xmlns="http://www.w3.org/2000/svg">
<path d="M62.3968 339.151L57.6532 335.43L61.667 330.029L42.1817 315.433L38.1679 320.834L26.9291 335.867C26.6168 336.277 26.3895 336.745 26.2606 337.244C26.1317 337.743 26.1039 338.263 26.1786 338.773C26.2534 339.283 26.4293 339.773 26.696 340.214C26.9628 340.655 27.315 341.038 27.7319 341.341L57.2154 363.381C57.5242 363.622 57.8785 363.799 58.2571 363.9C58.6358 364.002 59.031 364.026 59.4192 363.972C59.8074 363.917 60.1807 363.785 60.5167 363.583C60.8528 363.381 61.1447 363.114 61.3751 362.797C67.8702 354.112 71.1543 345.647 62.3968 339.151Z" fill="#E8E8E8"/>
<path d="M103.484 306.456L110.125 305.362L106.111 281.279L99.4703 282.373L81.0067 285.438C79.9784 285.618 79.0604 286.19 78.4474 287.035C77.8343 287.88 77.5743 288.93 77.7226 289.963L84.2907 329.226L87.1369 328.715C97.9378 326.963 105.309 317.184 103.484 306.456Z" fill="#E8E8E8"/>
<path d="M170.99 195.894C165.516 195.894 160.116 195.091 155.518 192.756C154.418 192.065 153.243 191.502 152.015 191.077C145.041 186.68 141.388 184.525 138.889 176.668L106.638 223.745L102.562 222.38L42.4741 309.23C39.336 312.076 36.8547 315.506 39.8468 319.593C41.6713 322.148 45.5392 323.023 48.3124 324.118L51.5234 325.286L68.4545 336.962C69.0229 337.393 69.6663 337.715 70.352 337.911L70.7169 338.13C72.5414 339.225 76.4092 341.195 78.5986 339.954C80.788 338.714 81.8827 333.021 82.2476 330.54C82.2442 330.501 82.249 330.461 82.2615 330.423C82.274 330.385 82.2941 330.351 82.3205 330.321L103.047 300.327L103.63 305.581C103.535 305.792 103.462 306.012 103.411 306.238C103.411 306.311 103.484 307.26 103.63 308.136C103.663 308.7 103.736 309.261 103.849 309.814C103.192 310.544 104.068 311.712 105.017 311.566C105.578 311.779 106.192 311.804 106.768 311.639C107.654 311.512 108.49 311.156 109.194 310.606C109.899 310.055 110.446 309.329 110.782 308.5L111.877 307.917L171.866 298.21C181.572 297.189 189.745 287.92 189.745 277.703L190.256 190.712C185.075 193.923 177.558 195.894 170.99 195.894ZM79.0365 335.43V335.065L79.3284 334.554C79.2554 334.846 79.1094 335.138 79.0365 335.43Z" fill="#5588A3"/>
<path d="M71.1544 323.023C70.8378 323.029 70.5287 322.926 70.2787 322.731C70.1168 322.623 69.9796 322.482 69.8758 322.317C69.7721 322.152 69.7043 321.968 69.6768 321.775C69.6492 321.582 69.6626 321.386 69.716 321.198C69.7694 321.011 69.8617 320.837 69.9868 320.688L146.979 216.328C147.212 216.022 147.551 215.814 147.93 215.747C148.308 215.679 148.699 215.756 149.023 215.963C149.333 216.195 149.537 216.541 149.592 216.924C149.647 217.307 149.547 217.697 149.315 218.006L72.3221 322.439C72.1824 322.617 72.0054 322.761 71.8036 322.862C71.6017 322.963 71.3801 323.018 71.1544 323.023Z" fill="white"/>
<path d="M121.9 239.088L69.443 208.801C67.1392 207.471 64.1934 208.261 62.8634 210.564L42.5387 245.768C41.2087 248.072 41.998 251.017 44.3018 252.347L96.7591 282.634C99.0628 283.964 102.009 283.175 103.339 280.871L123.663 245.667C124.993 243.364 124.204 240.418 121.9 239.088Z" fill="white"/>
<path d="M99.178 284.709C98.0711 284.713 96.9848 284.41 96.0399 283.833L43.6411 253.547C42.9248 253.142 42.2972 252.598 41.7957 251.946C41.2942 251.294 40.929 250.548 40.7219 249.752C40.2833 248.155 40.4931 246.45 41.3058 245.008L61.5939 209.832C62.45 208.374 63.8354 207.302 65.4618 206.84C67.0681 206.431 68.7705 206.667 70.2054 207.497L122.677 237.783C123.393 238.187 124.021 238.732 124.523 239.384C125.024 240.036 125.389 240.782 125.596 241.578C125.817 242.384 125.872 243.226 125.759 244.053C125.647 244.881 125.368 245.677 124.94 246.395L104.651 281.571C104.097 282.53 103.299 283.326 102.338 283.877C101.376 284.429 100.286 284.715 99.178 284.709ZM67.0673 209.54L66.1916 209.686C65.7579 209.797 65.3521 209.997 65.0002 210.273C64.6483 210.55 64.3581 210.897 64.1482 211.292L43.86 246.468C43.6281 246.848 43.476 247.272 43.413 247.713C43.35 248.154 43.3773 248.603 43.4934 249.033C43.6094 249.463 43.8118 249.865 44.0881 250.214C44.3644 250.564 44.7089 250.853 45.1007 251.065L97.4995 281.279C97.875 281.517 98.297 281.673 98.7374 281.736C99.1778 281.799 99.6264 281.767 100.054 281.644C100.91 281.422 101.645 280.871 102.097 280.111L122.458 244.935C122.891 244.146 123.003 243.221 122.772 242.352C122.541 241.482 121.985 240.735 121.218 240.264L68.7458 210.051C68.2387 209.741 67.6611 209.565 67.0673 209.54Z" fill="#2D2E2F"/>
<path d="M181.936 138.678C181.321 138.677 180.709 138.604 180.111 138.459C177.338 137.948 174.492 135.248 173.835 133.351C172.741 130.066 171.573 126.636 175.952 115.69C177.63 111.457 177.411 108.465 177.119 104.378C176.973 102.699 176.9 100.729 176.9 98.5395C176.9 92.0444 177.63 91.0226 179.674 89.636C180.333 89.2784 180.926 88.8094 181.425 88.2495C183.541 85.9358 186.319 84.3303 189.38 83.6518C195.51 82.0462 204.34 83.4328 209.449 89.2711C209.603 89.4096 209.725 89.5792 209.808 89.7685C209.891 89.9578 209.933 90.1627 209.931 90.3695C209.929 90.5762 209.883 90.7802 209.796 90.9679C209.709 91.1555 209.584 91.3226 209.427 91.458C209.271 91.5934 209.088 91.6941 208.89 91.7533C208.692 91.8126 208.483 91.8291 208.278 91.8017C208.073 91.7743 207.877 91.7038 207.701 91.5947C207.525 91.4855 207.375 91.3403 207.26 91.1687C202.954 86.2791 195.218 85.1114 190.11 86.425C187.614 87.0234 185.337 88.3134 183.542 90.1469C182.894 90.917 182.131 91.5817 181.279 92.1173C180.257 92.7741 179.82 93.0661 179.82 98.5395C179.82 100.656 179.893 102.407 180.039 104.159C180.33 108.319 180.622 111.895 178.652 116.784C174.711 126.709 175.587 129.483 176.609 132.402C177.497 133.967 178.965 135.12 180.695 135.613C186.315 136.781 190.474 130.067 191.642 128.023C192.81 125.98 193.248 123.061 193.54 119.266C193.548 119.077 193.596 118.892 193.679 118.722C193.762 118.552 193.879 118.401 194.022 118.278C194.166 118.155 194.333 118.063 194.514 118.006C194.694 117.95 194.884 117.932 195.072 117.952C195.264 117.961 195.452 118.008 195.625 118.09C195.799 118.173 195.955 118.288 196.083 118.431C196.212 118.573 196.312 118.739 196.376 118.92C196.441 119.101 196.469 119.293 196.459 119.485C196.24 122.477 195.656 126.709 194.196 129.41C190.912 135.321 186.461 138.678 181.936 138.678Z" fill="#2D2E2F"/>
<path d="M213.098 94.0146C213.104 89.8618 211.731 85.8246 209.195 82.5359C206.659 79.2472 203.104 76.8932 199.086 75.8429C199.308 75.2556 199.455 74.6426 199.524 74.0184C199.995 72.4308 200.07 70.752 199.743 69.1287C199.645 67.8834 199.244 66.6808 198.575 65.6258C197.225 63.0946 195.138 61.0331 192.591 59.7144C187.482 57.0872 181.717 57.89 176.462 55.8466C174.857 55.1898 174.492 54.46 173.689 52.8545C172.496 50.2919 170.722 48.0429 168.508 46.2863C167.445 45.4783 166.294 44.7927 165.078 44.2429C162.809 42.9066 160.186 42.2955 157.561 42.4914C156.366 42.579 155.188 42.8244 154.058 43.2212L153.401 43.4401C147.855 44.9727 145.373 49.2055 141.87 53.2923C140.349 55.1917 138.431 56.7359 136.251 57.817C134.208 58.6197 132.091 58.4009 130.048 58.6928C128.281 58.8589 126.577 59.4331 125.07 60.3703C123.563 61.3074 122.294 62.5819 121.363 64.0932C120.433 65.8564 119.886 67.7962 119.758 69.7856C118.868 70.3749 118.105 71.1374 117.516 72.0276C116.927 72.9178 116.523 73.9174 116.328 74.9671C115.694 76.791 115.719 78.7797 116.401 80.5865C117.204 82.265 118.882 83.0677 120.634 83.3597C121.604 83.8568 122.682 84.1075 123.772 84.0895C124.837 84.0678 125.893 83.8958 126.91 83.5786C128.223 83.3597 129.902 83.0677 131.143 83.4326C131.663 83.787 132.089 84.263 132.383 84.8192C132.51 85.0238 132.608 85.2448 132.675 85.4761C132.748 85.622 132.748 85.768 132.821 85.9139L133.113 86.5708C133.372 87.4176 133.74 88.2272 134.208 88.9791C137.857 93.9417 144.79 93.5037 148.658 89.271L149.46 88.3952C151.212 87.0816 152.963 85.5491 154.788 84.6733C156.612 83.7976 158.802 86.1329 160.699 86.7897C164.682 88.2413 169.07 88.1107 172.959 86.4248C174.492 85.768 175.879 84.8923 177.411 84.2355L178.579 84.0895C176.702 87.0582 175.714 90.5023 175.733 94.0146C175.733 98.0285 176.827 102.261 179.017 105.326C180.184 96.131 188.285 88.3953 197.772 88.6142C200.894 88.616 203.958 89.4483 206.651 91.0258C209.345 92.6033 211.57 94.8691 213.098 97.5906C213.171 96.3997 213.171 95.2055 213.098 94.0146Z" fill="#2D2E2F"/>
<path d="M195.729 120.36C192.268 120.266 188.934 119.035 186.242 116.857C185.943 116.614 185.753 116.263 185.712 115.88C185.671 115.498 185.783 115.114 186.023 114.814C186.137 114.657 186.282 114.526 186.45 114.429C186.617 114.332 186.803 114.272 186.996 114.251C187.188 114.231 187.383 114.25 187.567 114.31C187.752 114.369 187.922 114.466 188.066 114.595C190.422 116.53 193.414 117.519 196.459 117.368C201.202 117.076 204.195 113.573 205.8 111.676C212.003 104.451 211.346 95.5472 211.201 94.5254C211.178 94.1419 211.301 93.764 211.544 93.4667C211.788 93.1693 212.134 92.9741 212.514 92.9199C212.706 92.8997 212.9 92.9178 213.085 92.973C213.27 93.0283 213.442 93.1197 213.591 93.2418C213.74 93.364 213.864 93.5145 213.955 93.6847C214.045 93.855 214.101 94.0415 214.12 94.2335C214.266 96.058 214.922 105.545 208.062 113.573C206.311 115.616 202.589 119.922 196.605 120.287L195.729 120.36Z" fill="#2D2E2F"/>
<path d="M88.5233 217.057C87.5819 217.095 86.6556 216.812 85.896 216.255C83.1228 214.065 84.8013 208.811 85.3852 207.278C85.7091 206.469 86.0997 205.688 86.5528 204.943C87.6475 203.337 89.472 199.615 91.8073 194.945C96.9158 184.655 104.652 169.037 113.628 155.974C124.794 139.845 138.587 119.776 161.429 115.835C166.401 114.945 171.491 114.945 176.463 115.835C176.655 115.862 176.841 115.927 177.008 116.026C177.175 116.126 177.321 116.257 177.436 116.414C177.552 116.57 177.635 116.748 177.681 116.937C177.727 117.126 177.734 117.322 177.703 117.514C177.632 117.894 177.419 118.234 177.108 118.464C176.797 118.694 176.41 118.798 176.025 118.755C171.372 117.865 166.593 117.865 161.94 118.755C140.338 122.403 126.837 141.962 116.036 157.652C107.206 170.57 99.5431 185.968 94.4346 196.258C91.9533 201.221 90.1288 204.797 89.0341 206.548C88.6766 207.097 88.3827 207.685 88.1584 208.3C87.2826 210.562 86.8447 213.335 87.6475 213.919C88.4503 214.503 89.1801 214.211 90.4207 213.7C90.7891 213.579 91.1898 213.602 91.5419 213.765C91.894 213.927 92.1714 214.217 92.3182 214.576C92.3878 214.758 92.4203 214.952 92.4138 215.147C92.4072 215.341 92.3618 215.533 92.2802 215.709C92.1986 215.886 92.0825 216.045 91.9386 216.176C91.7947 216.307 91.626 216.409 91.4424 216.474C90.5128 216.844 89.5237 217.042 88.5233 217.057Z" fill="#2D2E2F"/>
<path d="M93.5586 221.071C92.7856 221.085 92.0224 220.897 91.3442 220.525C90.666 220.154 90.0962 219.613 89.6907 218.955C88.3771 216.838 89.5447 214.649 89.6177 214.43C89.7919 214.082 90.0974 213.817 90.4669 213.694C90.8364 213.57 91.2398 213.599 91.5881 213.773C91.9365 213.947 92.2015 214.253 92.3247 214.622C92.4478 214.992 92.4192 215.395 92.245 215.744C92.0931 215.995 92.0068 216.28 91.9941 216.574C91.9813 216.867 92.0425 217.159 92.172 217.422C92.4177 217.752 92.7676 217.989 93.1651 218.095C93.5625 218.201 93.984 218.17 94.3613 218.006C94.5667 217.875 94.741 217.701 94.8722 217.495C94.9626 217.327 95.0869 217.179 95.2373 217.061C95.3876 216.943 95.5607 216.857 95.7458 216.809C95.9308 216.761 96.1237 216.752 96.3125 216.782C96.5012 216.812 96.6818 216.881 96.8426 216.984C97.1801 217.169 97.4308 217.48 97.5401 217.849C97.6495 218.218 97.6086 218.616 97.4265 218.955C97.0269 219.61 96.4764 220.161 95.8209 220.56C95.1098 220.884 94.3398 221.058 93.5586 221.071Z" fill="#2D2E2F"/>
<path d="M94.7265 218.517V218.371C94.7063 218.179 94.7244 217.985 94.7797 217.801C94.8349 217.616 94.9263 217.444 95.0484 217.294C95.1706 217.145 95.3211 217.022 95.4913 216.931C95.6616 216.84 95.8481 216.784 96.0401 216.766C96.2279 216.735 96.4201 216.743 96.6046 216.79C96.7892 216.836 96.9622 216.92 97.1128 217.037C97.2634 217.153 97.3884 217.299 97.4801 217.466C97.5718 217.633 97.6281 217.817 97.6456 218.006L96.1861 218.225L97.6456 218.079L96.1861 218.298L94.7265 218.517Z" fill="#2D2E2F"/>
<path d="M98.8859 223.114C98.3053 223.128 97.7299 223.003 97.2074 222.749C96.3426 222.341 95.6296 221.669 95.1707 220.83C94.7118 219.99 94.5306 219.027 94.6531 218.079C94.662 217.89 94.7094 217.705 94.7924 217.535C94.8754 217.365 94.9923 217.214 95.1358 217.091C95.2793 216.968 95.4465 216.876 95.6271 216.82C95.8076 216.764 95.9977 216.745 96.1857 216.765C96.3745 216.774 96.5596 216.821 96.7294 216.904C96.8993 216.987 97.0503 217.104 97.1734 217.248C97.2964 217.391 97.3888 217.559 97.4448 217.739C97.5009 217.92 97.5194 218.11 97.4993 218.298C97.4813 218.651 97.552 219.003 97.705 219.321C97.858 219.64 98.0883 219.915 98.375 220.122C98.7913 220.263 99.2462 220.235 99.6419 220.044C100.038 219.853 100.343 219.514 100.491 219.1C100.652 218.765 100.934 218.504 101.281 218.37C101.627 218.235 102.012 218.238 102.356 218.378C102.701 218.518 102.979 218.783 103.134 219.121C103.289 219.459 103.31 219.843 103.192 220.195C102.984 220.742 102.671 221.242 102.271 221.668C101.87 222.094 101.389 222.437 100.856 222.676C100.244 222.977 99.5681 223.127 98.8859 223.114Z" fill="#2D2E2F"/>
<path d="M104.943 225.231C104.311 225.216 103.689 225.067 103.119 224.793C102.212 224.306 101.471 223.56 100.99 222.65C100.51 221.74 100.31 220.708 100.419 219.685C100.455 219.304 100.632 218.951 100.916 218.694C101.2 218.438 101.569 218.296 101.951 218.298C102.143 218.307 102.331 218.355 102.504 218.437C102.678 218.519 102.834 218.634 102.962 218.777C103.091 218.919 103.191 219.085 103.255 219.266C103.319 219.447 103.348 219.639 103.338 219.831C103.263 220.277 103.32 220.735 103.502 221.15C103.683 221.565 103.981 221.918 104.359 222.166C104.58 222.264 104.821 222.308 105.061 222.296C105.302 222.283 105.537 222.213 105.746 222.093C106.21 221.832 106.57 221.42 106.768 220.925C107.352 219.612 112.679 211.365 152.161 154.952C152.383 154.633 152.723 154.415 153.107 154.347C153.49 154.278 153.885 154.365 154.204 154.587C154.523 154.81 154.741 155.15 154.81 155.533C154.878 155.917 154.791 156.311 154.569 156.631C118.298 208.373 109.979 220.779 109.395 222.02C108.985 223.182 108.151 224.147 107.06 224.72C106.402 225.05 105.678 225.225 104.943 225.231Z" fill="#2D2E2F"/>
<path d="M189.745 192.609C189.598 192.617 189.452 192.595 189.314 192.545C189.176 192.494 189.05 192.417 188.942 192.317C188.786 192.214 188.651 192.081 188.548 191.925C188.444 191.769 188.373 191.594 188.339 191.41C188.305 191.226 188.308 191.037 188.349 190.854C188.39 190.671 188.468 190.499 188.577 190.347C193.313 183.732 197.096 176.485 199.816 168.818C200.546 166.847 200.984 165.315 201.422 163.782C202.15 161.228 203.027 158.718 204.049 156.265C206.772 149.819 210.329 143.759 214.631 138.24C221.856 128.606 242.217 102.991 269.803 69.5662C269.915 69.3968 270.061 69.2527 270.232 69.1431C270.403 69.0335 270.596 68.9608 270.796 68.9298C270.997 68.8987 271.202 68.9099 271.398 68.9626C271.595 69.0154 271.778 69.1085 271.936 69.236C272.094 69.3636 272.224 69.5228 272.317 69.7034C272.41 69.884 272.464 70.082 272.477 70.2848C272.489 70.4877 272.458 70.6908 272.388 70.8812C272.317 71.0716 272.207 71.2451 272.065 71.3907C244.479 104.815 224.118 130.431 216.966 139.991C212.833 145.321 209.4 151.158 206.749 157.36C205.741 159.735 204.888 162.173 204.195 164.658C203.757 166.191 203.319 167.723 202.589 169.767C199.763 177.684 195.858 185.174 190.986 192.025C190.838 192.212 190.649 192.362 190.434 192.464C190.219 192.565 189.983 192.615 189.745 192.609Z" fill="#2D2E2F"/>
<path d="M212.733 94.5988C212.348 94.5933 211.981 94.4359 211.711 94.1609C211.57 94.031 211.457 93.8731 211.38 93.6972C211.302 93.5213 211.262 93.3313 211.262 93.1392C211.262 92.9471 211.302 92.757 211.38 92.5812C211.457 92.4053 211.57 92.2474 211.711 92.1175C241.998 61.4662 254.988 48.2571 257.323 45.5568L259.513 43.3675C263.016 40.2294 266.081 37.7481 268.489 38.9887C269.022 39.3272 269.467 39.789 269.784 40.3352C270.102 40.8813 270.283 41.4958 270.314 42.1268H270.459C271.189 41.8348 273.233 41.1051 274.911 42.2728C275.605 42.8552 276.109 43.6327 276.356 44.5045C276.603 45.3762 276.583 46.3022 276.298 47.1623C278.414 46.6515 280.02 46.7245 281.114 47.4543C281.76 47.9327 282.203 48.6358 282.355 49.4247C282.72 51.614 280.531 54.4602 278.487 57.0875L277.465 58.4011C278.259 58.3951 279.047 58.5183 279.801 58.766C280.239 58.985 282.574 60.0067 282.793 62.0501C283.012 64.0935 281.114 65.4071 277.976 67.5965C274.838 69.7859 273.817 70.4426 271.7 71.7563C271.387 71.8727 271.043 71.8782 270.727 71.7719C270.41 71.6655 270.139 71.4537 269.96 71.1719C269.781 70.89 269.703 70.5551 269.741 70.2232C269.779 69.8912 269.929 69.5824 270.168 69.348L276.371 65.1881C277.611 64.3124 279.728 62.8529 279.874 62.342C279.549 61.9729 279.151 61.6748 278.706 61.4662C277.986 61.2704 277.223 61.2958 276.517 61.5392C275.86 61.6851 274.765 61.9771 273.962 61.1013C273.16 60.2256 274.108 57.9632 276.152 55.336C277.247 53.9494 279.655 50.7383 279.436 49.8625C279.217 48.9868 278.341 49.5706 276.517 50.0815L274.765 50.8113C273.889 51.1762 272.649 51.687 271.846 50.5923C271.043 49.4976 271.919 48.4759 272.43 47.9651C272.941 47.4542 273.671 46.5055 273.598 45.6298C273.603 45.4553 273.573 45.2816 273.511 45.1187C273.448 44.9558 273.353 44.807 273.233 44.681C272.795 44.3891 271.773 44.754 271.408 44.9C270.579 45.2181 269.831 45.7167 269.219 46.3596C269.041 46.5728 268.818 46.7428 268.565 46.8566C268.312 46.9704 268.036 47.0251 267.759 47.0164H267.175L266.738 46.5785C266.3 46.1406 266.008 45.4108 266.811 44.3161C267.09 44.0031 267.29 43.6277 267.394 43.2214C267.453 42.9596 267.457 42.6885 267.407 42.425C267.356 42.1615 267.253 41.911 267.102 41.6889C266.446 41.47 264.548 42.8566 261.483 45.6298L259.513 47.6002C257.177 50.2274 245.501 62.1231 213.755 94.2339C213.474 94.4823 213.108 94.6129 212.733 94.5988Z" fill="#2D2E2F"/>
<path d="M231.416 119.776C231.084 119.787 230.759 119.684 230.494 119.485C230.229 119.286 230.039 119.003 229.956 118.682C229.153 115.471 226.672 111.165 221.856 104.597C218.975 100.755 215.615 97.2967 211.858 94.3068C211.704 94.1918 211.575 94.0477 211.477 93.8828C211.38 93.7179 211.315 93.5353 211.288 93.3455C211.261 93.1558 211.272 92.9626 211.319 92.7769C211.367 92.5912 211.451 92.4167 211.566 92.2634C211.681 92.1101 211.825 91.9808 211.99 91.8832C212.155 91.7855 212.337 91.7213 212.527 91.6942C212.717 91.6671 212.91 91.6777 213.095 91.7252C213.281 91.7728 213.456 91.8565 213.609 91.9715C217.621 95.1418 221.203 98.8217 224.264 102.918C229.372 109.851 231.927 114.376 232.802 117.952C232.892 118.339 232.827 118.745 232.623 119.085C232.419 119.425 232.091 119.673 231.708 119.776H231.416Z" fill="#2D2E2F"/>
<path d="M170.26 198.156C168.721 198.14 167.185 198.019 165.662 197.791C151.869 195.894 144.498 188.231 137.565 177.357C137.37 177.035 137.307 176.651 137.389 176.284C137.47 175.917 137.69 175.595 138.003 175.387C138.336 175.187 138.732 175.122 139.111 175.203C139.49 175.284 139.825 175.507 140.047 175.825C146.688 186.261 153.329 193.121 166.027 194.945C178.725 196.769 187.921 190.639 189.015 189.909C189.337 189.715 189.721 189.651 190.089 189.733C190.456 189.814 190.777 190.035 190.986 190.347C191.185 190.68 191.25 191.076 191.169 191.455C191.088 191.834 190.866 192.169 190.548 192.391C184.408 196.058 177.411 198.046 170.26 198.156Z" fill="#2D2E2F"/>
<path d="M142.966 171.81C142.756 171.819 142.547 171.777 142.356 171.688C142.166 171.599 142 171.466 141.871 171.3C138.441 167.432 132.895 163.126 127.494 159.039C124.567 156.796 121.495 154.748 118.299 152.909C118.128 152.811 117.979 152.68 117.86 152.523C117.742 152.366 117.656 152.187 117.608 151.996C117.56 151.805 117.552 151.607 117.583 151.412C117.614 151.218 117.684 151.032 117.788 150.865C117.997 150.554 118.313 150.33 118.676 150.236C119.04 150.141 119.425 150.184 119.759 150.355C123.047 152.276 126.216 154.396 129.246 156.704C134.792 160.864 140.412 165.315 144.061 169.402C144.309 169.694 144.434 170.071 144.406 170.454C144.379 170.836 144.202 171.192 143.915 171.446C143.649 171.672 143.314 171.8 142.966 171.81Z" fill="#2D2E2F"/>
<path d="M183.031 97.007C184.764 97.007 186.169 95.602 186.169 93.8689C186.169 92.1357 184.764 90.7307 183.031 90.7307C181.298 90.7307 179.893 92.1357 179.893 93.8689C179.893 95.602 181.298 97.007 183.031 97.007Z" fill="white"/>
<path d="M212.368 340.392C210.106 340.392 209.084 337.181 208.719 334.042C205.727 333.751 201.859 332.802 201.859 330.321C201.859 327.839 205.654 326.891 208.573 326.526C208.865 323.388 209.814 319.228 212.368 319.228C214.923 319.228 215.944 323.388 216.236 326.526C219.155 326.891 222.95 327.839 222.95 330.321C222.95 332.802 219.082 333.751 216.09 334.042C215.652 337.181 214.704 340.392 212.368 340.392ZM205.216 330.321C206.78 330.913 208.434 331.234 210.106 331.269H211.347L211.493 332.51C211.569 334.004 211.864 335.48 212.368 336.889C212.907 335.486 213.227 334.009 213.317 332.51L213.463 331.269H214.704C216.352 331.237 217.983 330.916 219.52 330.321C218.005 329.724 216.403 329.379 214.777 329.299H213.463V328.058C213.317 325.285 212.879 323.606 212.441 322.731C211.839 324.444 211.519 326.243 211.493 328.058L211.347 329.299H210.106C208.433 329.383 206.783 329.728 205.216 330.321Z" fill="#2D2E2F"/>
<path d="M78.1605 137.51C75.6062 137.51 74.5846 133.496 74.2197 130.504C70.9356 130.139 66.5569 129.118 66.5569 126.417C66.5569 123.717 70.8626 122.769 74.0737 122.404C74.3656 119.266 75.3143 114.303 78.1605 114.303C81.0067 114.303 82.0284 119.266 82.3203 122.404C85.5314 122.769 89.7641 123.79 89.7641 126.417C89.7641 129.045 85.4584 130.139 82.1743 130.504C81.7365 133.496 80.7148 137.51 78.1605 137.51ZM69.8409 126.417C70.6437 126.855 72.5411 127.439 75.6062 127.731H76.8469L76.9929 128.972C77.0667 130.755 77.4623 132.511 78.1605 134.153C78.5984 133.423 79.1092 131.745 79.4011 128.972L79.5471 127.731H80.7148C83.8528 127.439 85.7503 126.855 86.5531 126.417C85.7503 125.98 83.9258 125.396 80.8607 125.177H79.5471V123.79C79.3282 120.433 78.7444 118.39 78.2335 117.514C77.7956 118.39 77.1388 120.433 76.9929 123.79V125.104H75.5333C72.4682 125.396 70.6437 125.98 69.8409 126.417Z" fill="#2D2E2F"/>
<path d="M195.438 121.455C195.299 121.258 195.123 121.09 194.92 120.961C194.716 120.832 194.489 120.744 194.252 120.704C194.014 120.663 193.771 120.67 193.536 120.724C193.301 120.777 193.079 120.877 192.883 121.017C191.149 122.326 188.992 122.95 186.826 122.769C183.323 122.404 180.258 119.63 179.017 115.69C178.869 115.266 178.574 114.908 178.187 114.681C177.799 114.454 177.344 114.372 176.901 114.449C176.536 112.989 175.15 110.581 173.179 108.173C170.26 104.597 167.195 102.334 166.319 103.064C165.443 103.794 167.049 107.224 169.968 110.8C172.011 113.281 174.128 115.179 175.514 115.836C175.443 116.148 175.443 116.472 175.514 116.784C177.193 122.112 181.499 125.834 186.461 126.418H187.629C190.29 126.412 192.877 125.541 195 123.936C195.195 123.805 195.361 123.635 195.489 123.438C195.617 123.241 195.704 123.02 195.745 122.789C195.786 122.557 195.78 122.32 195.727 122.09C195.674 121.861 195.576 121.645 195.438 121.455Z" fill="#5588A3"/>
<path d="M1.45959 346.595C1.1429 346.601 0.833842 346.498 0.583835 346.303C0.430495 346.188 0.301319 346.044 0.203662 345.879C0.106006 345.714 0.0417745 345.532 0.0146676 345.342C-0.0124392 345.152 -0.00190056 344.959 0.0456694 344.773C0.0932393 344.588 0.176942 344.413 0.291946 344.26L49.8445 277.849C50.0768 277.539 50.4226 277.335 50.8058 277.28C51.189 277.225 51.5783 277.325 51.8879 277.557C52.1976 277.789 52.4024 278.135 52.4571 278.518C52.5119 278.902 52.4121 279.291 52.1799 279.6L2.62723 346.011C2.48759 346.189 2.31056 346.333 2.10871 346.434C1.90686 346.535 1.6852 346.59 1.45959 346.595Z" fill="#2D2E2F"/>
<path d="M26.4185 293.539C26.1018 293.545 25.7928 293.442 25.5428 293.248C25.3809 293.139 25.2436 292.998 25.1399 292.833C25.0362 292.669 24.9683 292.484 24.9408 292.291C24.9133 292.098 24.9267 291.902 24.9801 291.715C25.0335 291.527 25.1257 291.353 25.2508 291.204L48.823 259.166C48.9325 259.007 49.0724 258.872 49.2347 258.767C49.397 258.662 49.5785 258.591 49.7685 258.557C49.9586 258.523 50.1535 258.527 50.3419 258.569C50.5304 258.611 50.7087 258.69 50.8664 258.801C51.1475 259.053 51.3309 259.396 51.3843 259.77C51.4377 260.144 51.3576 260.524 51.1583 260.845L27.5862 292.956C27.4465 293.133 27.2694 293.277 27.0676 293.378C26.8657 293.479 26.6441 293.534 26.4185 293.539Z" fill="#2D2E2F"/>
<path d="M263.672 80.2217C263.39 80.2289 263.11 80.1576 262.866 80.016C262.621 79.8743 262.42 79.6676 262.286 79.4189C260.259 74.986 257.551 70.8982 254.258 67.3044C251.821 64.6594 249.105 62.286 246.157 60.2255C245.999 60.1152 245.864 59.975 245.76 59.8126C245.656 59.6503 245.586 59.469 245.552 59.2793C245.483 58.8961 245.57 58.5014 245.792 58.182C246.015 57.8626 246.355 57.6448 246.739 57.5764C247.122 57.508 247.516 57.5945 247.836 57.8171C250.946 60.0059 253.809 62.5263 256.374 65.334C259.876 69.1571 262.779 73.4875 264.986 78.1783C265.138 78.5379 265.147 78.9421 265.012 79.3083C264.876 79.6745 264.606 79.9751 264.256 80.1487L263.672 80.2217Z" fill="#5588A3"/>
<path d="M44.8087 314.047C46.4872 315.287 48.3847 315.944 50.2821 316.82C52.3249 317.859 54.1562 319.27 55.6825 320.98C56.5583 322.074 58.1638 320.542 57.2151 319.447C55.7482 317.764 53.9937 316.356 52.0336 315.287C49.9902 314.193 47.8008 313.536 45.9034 312.149C44.0059 310.763 43.6411 313.171 44.8087 314.047Z" fill="white"/>
<path d="M58.8941 322.877C59.4031 323.349 59.9975 323.721 60.6455 323.971C60.7796 324.016 60.9214 324.032 61.062 324.018C61.2026 324.005 61.3389 323.963 61.4623 323.894C61.5857 323.826 61.6936 323.732 61.7791 323.62C61.8647 323.508 61.926 323.379 61.9592 323.242C62.0042 323.103 62.0209 322.956 62.0084 322.811C61.9959 322.665 61.9544 322.524 61.8864 322.394C61.8184 322.265 61.7253 322.151 61.6124 322.058C61.4996 321.966 61.3694 321.896 61.2294 321.855H61.0834L60.7915 321.709H60.7185L60.4996 321.417C60.4074 321.266 60.2823 321.139 60.1336 321.044C59.9849 320.948 59.8166 320.888 59.6412 320.867C59.4659 320.846 59.2881 320.866 59.1213 320.923C58.9544 320.981 58.8029 321.076 58.6781 321.201C58.5532 321.326 58.4583 321.477 58.4005 321.644C58.3427 321.811 58.3234 321.989 58.3442 322.164C58.365 322.34 58.4253 322.508 58.5205 322.657C58.6158 322.805 58.7435 322.93 58.8941 323.023V322.877Z" fill="white"/>
<path d="M21.8936 337.108C23.3532 336.743 25.5426 335.721 27.0021 335.867C30.2132 336.305 28.9726 338.276 29.1915 339.881C29.2472 340.504 29.4652 341.101 29.8237 341.614C30.1822 342.126 30.6688 342.535 31.2349 342.8C33.4243 343.895 36.4894 342.654 38.4598 343.822C40.4303 344.99 40.4302 348.347 42.1817 350.025C43.9332 351.704 44.809 351.047 46.2686 351.12C47.7281 351.193 50.9392 350.171 51.9609 352.799C52.0698 353.451 52.1429 354.109 52.1798 354.769C52.2592 355.526 52.5194 356.252 52.9385 356.887C53.3577 357.523 53.9235 358.047 54.5881 358.418C56.7775 359.659 62.1779 358.564 62.7618 361.994C62.9807 363.381 65.0971 362.797 64.8782 361.41C64.6592 360.023 63.1267 358.053 61.0833 357.469C59.0399 356.885 58.529 357.323 57.2884 356.958C54.4422 356.083 54.5881 354.404 54.0773 351.996C53.5664 349.587 53.2015 349.514 51.669 349.004C50.5123 348.796 49.3303 348.772 48.166 348.931C47.242 349.017 46.311 348.992 45.3928 348.858C43.9332 348.493 43.6413 347.325 43.0575 345.866C42.4737 344.406 41.8898 342.946 39.9924 342.071C38.6634 341.57 37.2525 341.323 35.8326 341.341C32.9134 341.122 31.5998 340.392 31.4538 337.473C31.1619 331.927 24.6668 334.116 21.3098 334.992C19.9962 335.284 20.58 337.4 21.8936 337.108Z" fill="white"/>
<path d="M127.769 145.299C129.448 149.605 133.024 151.429 137.475 151.575C139.3 151.648 141.708 151.94 143.241 150.773C144.773 149.605 145.284 147.27 145.065 145.299C144.627 141.212 142.219 137.709 137.913 138.074C133.607 138.439 128.572 139.826 127.988 144.642C127.769 146.029 129.958 146.029 130.177 144.642C130.542 141.504 135.286 140.264 137.913 140.264C140.54 140.264 143.606 143.621 142.876 146.978C142.146 150.335 138.716 149.605 136.235 149.313C133.753 149.021 130.98 147.635 129.885 144.715C129.375 143.402 127.258 143.986 127.769 145.299Z" fill="#00334E"/>
<path d="M163.165 128.732C157.4 132.163 162.362 144.058 169.076 140.92C175.79 137.782 170.901 126.762 164.041 128.514C163.76 128.591 163.522 128.777 163.378 129.03C163.234 129.283 163.197 129.583 163.274 129.864C163.352 130.144 163.538 130.383 163.791 130.527C164.044 130.67 164.344 130.707 164.625 130.63C168.93 129.535 172.579 136.76 168.201 138.877C163.822 140.993 160.757 132.746 164.333 130.63C164.584 130.475 164.764 130.227 164.833 129.939C164.901 129.652 164.852 129.349 164.698 129.097C164.543 128.846 164.294 128.666 164.007 128.598C163.719 128.529 163.417 128.578 163.165 128.732Z" fill="#00334E"/>
<path d="M210.09 125.011C208.119 124.208 203.959 122.822 202.792 125.376C201.624 127.93 200.821 131.287 203.229 132.455C205.638 133.623 208.484 133.695 210.235 131.944C211.011 131.199 211.495 130.202 211.602 129.132C211.709 128.062 211.432 126.989 210.819 126.106C210.017 124.938 208.119 126.033 208.922 127.2C209.241 127.62 209.415 128.133 209.415 128.66C209.415 129.187 209.241 129.7 208.922 130.119C208.046 131.287 205.857 131.214 204.616 130.63C203.375 130.047 204.032 129.317 204.178 128.514C204.324 127.711 204.397 126.762 204.762 126.398C205.127 126.033 208.557 126.689 209.506 127.127C210.454 127.565 211.403 125.522 210.09 125.011Z" fill="#00334E"/>
<path d="M195.948 152.544C191.497 155.244 195.291 164.147 200.4 161.739C205.508 159.331 201.86 151.084 196.605 152.398C196.324 152.475 196.086 152.661 195.942 152.914C195.799 153.167 195.761 153.467 195.839 153.748C195.916 154.029 196.102 154.267 196.355 154.411C196.608 154.554 196.908 154.592 197.189 154.514C199.889 153.784 202.224 158.382 199.524 159.769C196.824 161.155 194.854 155.755 197.043 154.441C199.232 153.127 197.116 151.814 195.948 152.544Z" fill="#00334E"/>
<path d="M160.042 164.585C157.926 173.343 173.47 176.919 175.514 167.796C177.557 158.674 164.348 156.849 160.626 163.71C159.896 164.95 161.794 166.045 162.451 164.804C164.786 160.717 173.179 160.134 173.543 166.045C173.908 173.708 160.553 171.664 162.159 165.169C162.451 163.783 160.334 163.199 160.042 164.585Z" fill="#00334E"/>
<path d="M176.463 184.29C177.996 189.69 188.286 188.45 187.41 182.393C186.534 176.335 176.682 177.649 176.463 183.56C176.463 183.851 176.578 184.129 176.784 184.334C176.989 184.54 177.267 184.655 177.558 184.655C177.848 184.655 178.126 184.54 178.332 184.334C178.537 184.129 178.652 183.851 178.652 183.56C178.798 180.203 185.075 179.254 185.293 182.903C185.512 186.552 179.309 186.479 178.579 183.706C178.502 183.425 178.316 183.187 178.063 183.043C177.81 182.9 177.51 182.862 177.229 182.94C176.949 183.017 176.71 183.203 176.567 183.456C176.423 183.709 176.386 184.009 176.463 184.29Z" fill="#00334E"/>
<path d="M88.8882 202.608C82.9769 203.337 77.7225 204.724 74.4384 210.125C73.7086 211.292 75.6061 212.46 76.3359 211.219C79.182 206.549 83.7797 205.454 88.8882 204.797C90.2748 204.651 90.2748 202.462 88.8882 202.608Z" fill="#2D2E2F"/>
<path d="M111.22 216.765C113.118 221.363 114.504 227.639 111.22 231.945C110.417 233.113 112.315 234.207 113.118 233.04C116.913 228.077 115.307 220.925 113.045 215.671C112.534 214.357 110.636 215.525 111.22 216.765Z" fill="#2D2E2F"/>
<path d="M167.267 214.065C165.568 216.568 162.989 218.34 160.042 219.028C158.145 219.539 156.393 219.612 154.788 220.925C152.088 223.042 151.066 226.618 149.752 229.61C145.374 239.535 140.265 249.095 135.23 258.582C132.995 262.923 130.484 267.116 127.713 271.135C124.575 275.514 120.707 279.308 116.912 283.03C110.563 289.234 104.433 295.583 101.513 304.121C101.076 305.435 103.192 306.019 103.63 304.705C106.914 294.999 114.723 288.358 121.729 281.352C128.735 274.346 133.186 266.902 137.711 258.509C142.236 250.117 147.49 240.265 151.65 230.777C152.382 228.829 153.235 226.928 154.204 225.085C155.883 222.239 157.707 221.874 160.626 221.144C164.133 220.315 167.189 218.173 169.165 215.16C169.968 213.992 168.07 212.897 167.267 214.065Z" fill="#2D2E2F"/>
<path d="M62.3972 336.378C58.9672 336.524 55.5371 336.743 52.618 338.714C51.4503 339.443 52.545 341.341 53.7127 340.611C56.3399 338.86 59.332 338.641 62.3972 338.568C63.7838 338.495 63.7838 336.305 62.3972 336.378Z" fill="white"/>
<path d="M67.1404 342.8C63.7934 342.543 60.4268 342.764 57.1423 343.457C55.7557 343.749 56.3395 345.792 57.6531 345.574C60.7734 344.941 63.9662 344.745 67.1404 344.99C68.527 345.063 68.527 342.873 67.1404 342.8Z" fill="white"/>
<path d="M210.176 180.203C209.86 180.208 209.551 180.105 209.301 179.911C209.002 179.668 208.812 179.317 208.771 178.934C208.73 178.551 208.841 178.168 209.082 177.867L254.037 122.768C254.293 122.465 254.656 122.272 255.051 122.232C255.445 122.191 255.841 122.305 256.153 122.549C256.441 122.802 256.617 123.159 256.645 123.541C256.672 123.923 256.548 124.301 256.299 124.593L211.344 179.692C211.201 179.86 211.021 179.993 210.819 180.081C210.617 180.17 210.397 180.211 210.176 180.203Z" fill="#00334E"/>
<path d="M226.232 174.876C225.913 174.895 225.599 174.79 225.356 174.584C225.202 174.469 225.073 174.325 224.976 174.16C224.878 173.995 224.814 173.812 224.787 173.622C224.76 173.433 224.77 173.239 224.818 173.054C224.865 172.868 224.949 172.694 225.064 172.54L260.824 127.293C260.932 127.131 261.073 126.994 261.238 126.89C261.403 126.787 261.587 126.719 261.78 126.691C261.973 126.664 262.169 126.677 262.357 126.731C262.544 126.784 262.718 126.876 262.867 127.001C263.165 127.244 263.356 127.595 263.397 127.978C263.438 128.361 263.326 128.744 263.086 129.045L227.399 174.292C227.26 174.469 227.083 174.613 226.881 174.714C226.679 174.815 226.457 174.87 226.232 174.876Z" fill="#00334E"/>
<path d="M269.727 135.977C269.404 135.952 269.098 135.824 268.852 135.613L246.52 118.536C246.206 118.29 245.999 117.932 245.945 117.537C245.89 117.141 245.992 116.74 246.228 116.419C246.471 116.121 246.822 115.93 247.205 115.889C247.588 115.848 247.971 115.96 248.272 116.2L270.676 133.35C270.975 133.593 271.165 133.944 271.206 134.327C271.247 134.71 271.135 135.093 270.895 135.394C270.755 135.571 270.578 135.715 270.377 135.816C270.175 135.917 269.953 135.972 269.727 135.977Z" fill="#00334E"/>
<path d="M247.322 118.39C247.013 118.389 246.712 118.289 246.462 118.105C246.213 117.922 246.029 117.664 245.936 117.368C245.818 117.01 245.843 116.62 246.006 116.28C246.169 115.939 246.458 115.676 246.812 115.544L272.135 106.64C272.317 106.571 272.511 106.538 272.706 106.545C272.9 106.551 273.092 106.597 273.269 106.678C273.445 106.76 273.604 106.876 273.735 107.02C273.867 107.164 273.968 107.332 274.033 107.516C274.15 107.894 274.116 108.302 273.94 108.655C273.763 109.009 273.456 109.281 273.084 109.414L247.833 118.317L247.322 118.39Z" fill="#00334E"/>
<path d="M269.8 135.248H269.654C269.462 135.229 269.276 135.173 269.106 135.083C268.935 134.992 268.785 134.868 268.663 134.719C268.541 134.57 268.449 134.398 268.394 134.213C268.339 134.028 268.321 133.834 268.341 133.642L271.333 108.026C271.387 107.652 271.585 107.313 271.885 107.082C272.184 106.85 272.562 106.744 272.938 106.786C273.13 106.804 273.317 106.86 273.487 106.951C273.657 107.042 273.808 107.165 273.93 107.315C274.052 107.464 274.144 107.636 274.199 107.821C274.254 108.006 274.272 108.2 274.252 108.391L271.26 133.934C271.224 134.295 271.054 134.63 270.784 134.873C270.514 135.116 270.163 135.249 269.8 135.248Z" fill="#00334E"/>
<path d="M222.072 176.7C221.781 176.7 221.503 176.815 221.298 177.021C221.092 177.226 220.977 177.504 220.977 177.795C220.977 178.085 221.092 178.363 221.298 178.569C221.503 178.774 221.781 178.889 222.072 178.889C222.362 178.889 222.641 178.774 222.846 178.569C223.051 178.363 223.166 178.085 223.166 177.795C223.166 177.504 223.051 177.226 222.846 177.021C222.641 176.815 222.362 176.7 222.072 176.7Z" fill="#00334E"/>
<path d="M268.997 0.674386C267.975 -0.49328 265.932 0.163514 264.618 0.382451C261.805 0.825017 259.026 1.45896 256.299 2.27989C254.109 2.9367 249.731 3.66651 252.212 6.58568C253.312 7.84559 254.62 8.90703 256.08 9.72373L224.699 42.8563C224.466 43.1037 224.284 43.3952 224.165 43.7138C224.045 44.0324 223.991 44.3716 224.004 44.7115C224.018 45.0514 224.099 45.3851 224.244 45.6931C224.388 46.0011 224.592 46.2773 224.845 46.5052L225.721 47.308C225.963 47.546 226.251 47.7333 226.567 47.8587C226.883 47.9841 227.221 48.0452 227.561 48.0384C227.9 48.0316 228.235 47.957 228.546 47.8191C228.857 47.6811 229.137 47.4826 229.37 47.235L261.188 13.5917L262.356 14.4674C263.743 15.4161 264.837 16.6567 266.37 17.3865C266.53 17.4718 266.709 17.516 266.89 17.5151C267.071 17.5142 267.25 17.4682 267.409 17.3814C267.568 17.2945 267.703 17.1696 267.802 17.0176C267.901 16.8657 267.96 16.6915 267.975 16.5108C268.048 16.3649 268.121 16.2919 268.121 16.1459C268.559 12.8619 268.924 9.65076 269.216 6.3667C269.362 4.76116 270.238 2.06099 268.997 0.674386Z" fill="#E8E8E8"/>
<path d="M241.995 200.637C240.973 199.47 238.93 200.126 237.616 200.345C234.803 200.788 232.023 201.422 229.296 202.243C227.107 202.9 222.728 203.629 225.21 206.549C226.31 207.808 227.618 208.87 229.077 209.687L197.697 242.819C197.463 243.067 197.281 243.358 197.162 243.677C197.043 243.995 196.988 244.334 197.002 244.674C197.016 245.014 197.097 245.348 197.241 245.656C197.386 245.964 197.59 246.24 197.843 246.468L198.718 247.271C198.961 247.509 199.249 247.696 199.565 247.822C199.88 247.947 200.218 248.008 200.558 248.001C200.898 247.994 201.233 247.92 201.544 247.782C201.854 247.644 202.134 247.445 202.367 247.198L234.186 213.555L235.354 214.43C236.74 215.379 237.835 216.62 239.367 217.349C239.528 217.435 239.706 217.479 239.888 217.478C240.069 217.477 240.247 217.431 240.406 217.344C240.565 217.257 240.701 217.132 240.799 216.981C240.898 216.829 240.958 216.654 240.973 216.474C241.046 216.328 241.119 216.255 241.119 216.109C241.557 212.825 241.922 209.614 242.214 206.33C242.36 204.724 243.235 202.024 241.995 200.637Z" fill="#E8E8E8"/>
<path d="M268.562 1.55021C268.635 3.32903 268.561 5.11087 268.343 6.87772C268.124 8.26432 270.24 8.8481 270.459 7.4615C270.738 5.50425 270.836 3.52543 270.751 1.55021C270.678 0.163603 268.489 0.163603 268.562 1.55021Z" fill="#2D2E2F"/>
<path d="M267.978 10.8914V11.1833C267.978 11.4736 268.094 11.7521 268.299 11.9574C268.504 12.1626 268.783 12.278 269.073 12.278C269.358 12.2607 269.626 12.1399 269.828 11.9382C270.03 11.7365 270.15 11.468 270.168 11.1833V10.8914C270.168 10.6011 270.052 10.3227 269.847 10.1174C269.642 9.91208 269.363 9.79675 269.073 9.79675C268.788 9.81405 268.52 9.93486 268.318 10.1365C268.117 10.3382 267.996 10.6068 267.978 10.8914Z" fill="#2D2E2F"/>
<path d="M220.688 42.4187L217.623 45.8487C216.675 46.8704 218.207 48.403 219.156 47.3813L222.221 44.0242C223.17 42.9295 221.637 41.397 220.688 42.4187Z" fill="#2D2E2F"/>
<path d="M214.484 49.4975L212.441 51.4679C212.228 51.6712 212.105 51.9506 212.098 52.2449C212.091 52.5391 212.201 52.8241 212.404 53.037C212.608 53.2499 212.887 53.3733 213.181 53.3802C213.476 53.387 213.761 53.2767 213.973 53.0734L216.017 51.103C216.23 50.8998 216.353 50.6203 216.36 50.326C216.367 50.0318 216.257 49.7469 216.053 49.534C215.85 49.3211 215.571 49.1976 215.276 49.1907C214.982 49.1839 214.697 49.2942 214.484 49.4975Z" fill="#2D2E2F"/>
<path d="M227.256 37.3099C231.202 32.8656 235.47 28.7188 240.027 24.9034C241.049 24.0277 239.516 22.4951 238.422 23.3709C233.888 27.1867 229.644 31.3335 225.723 35.7773C224.775 36.872 226.307 38.4045 227.256 37.3099Z" fill="#2D2E2F"/>
<path d="M197.773 257.269L204.633 250.993C205.728 250.044 204.122 248.512 203.1 249.46L196.24 255.664C195.146 256.612 196.751 258.218 197.773 257.269Z" fill="#2D2E2F"/>
<path d="M207.917 247.271C208.284 246.722 208.755 246.251 209.304 245.884C209.527 245.723 209.686 245.488 209.753 245.221C209.819 244.954 209.79 244.672 209.669 244.425C209.516 244.171 209.273 243.985 208.989 243.903C208.704 243.822 208.399 243.852 208.136 243.987C207.272 244.545 206.548 245.294 206.02 246.176C205.874 246.428 205.835 246.727 205.91 247.007C205.986 247.288 206.169 247.527 206.421 247.672C206.673 247.817 206.972 247.857 207.252 247.781C207.533 247.706 207.772 247.522 207.917 247.271Z" fill="#2D2E2F"/>
<path d="M224.045 208.738L212.733 219.393C211.711 220.342 213.244 221.874 214.266 220.926L225.577 210.344C225.79 210.14 225.914 209.861 225.921 209.567C225.927 209.272 225.817 208.987 225.614 208.774C225.411 208.562 225.131 208.438 224.837 208.431C224.543 208.424 224.258 208.535 224.045 208.738Z" fill="#2D2E2F"/>
<g clip-path="url(#clip0_3833_3061)">
<path d="M86.8029 261.399C86.4262 262.044 85.9614 261.981 85.7748 261.26L83.1653 251.325C82.9938 250.48 83.1154 249.602 83.5099 248.835L90.1139 237.525C90.2968 237.215 90.5951 236.989 90.9435 236.898C91.292 236.806 91.6625 236.856 91.9744 237.036L97.5431 240.288C97.8541 240.47 98.0802 240.769 98.172 241.117C98.2639 241.466 98.2141 241.837 98.0336 242.149L86.8029 261.399ZM77.4782 229.686C77.2882 228.962 77.6585 228.682 78.3054 229.059L87.3964 234.367C87.7071 234.55 87.9329 234.848 88.0245 235.197C88.1161 235.546 88.066 235.916 87.8851 236.228L82.5718 245.328C82.194 245.975 81.7303 245.91 81.5436 245.189L77.4782 229.686ZM83.2834 261.917C83.4733 262.64 83.1031 262.921 82.4563 262.544L73.3653 257.235C73.0546 257.053 72.8287 256.755 72.7371 256.406C72.6455 256.057 72.6956 255.687 72.8766 255.375L78.1899 246.275C78.5666 245.63 79.0313 245.692 79.218 246.414L83.2834 261.917ZM73.9594 230.207C74.3371 229.56 74.7992 229.623 74.9875 230.346L77.5971 240.28C77.7692 241.125 77.648 242.002 77.2534 242.768L70.6514 254.076C70.4687 254.386 70.1705 254.612 69.8219 254.704C69.4733 254.795 69.1026 254.745 68.7908 254.564L63.2072 251.304C62.896 251.122 62.6699 250.824 62.5783 250.475C62.4866 250.126 62.5371 249.755 62.7185 249.444L73.9594 230.207Z" fill="#00334E"/>
</g>
<defs>
<clipPath id="clip0_3833_3061">
<rect width="26.8267" height="26.8267" fill="white" transform="matrix(0.86357 0.50423 -0.504227 0.863571 75.5593 227.452)"/>
</clipPath>
</defs>
</svg>
