<svg width="283" height="364" viewBox="0 0 283 364" fill="none" xmlns="http://www.w3.org/2000/svg">
<path d="M62.3971 339.151L57.6535 335.43L61.6673 330.029L42.1819 315.433L38.168 320.834L26.9293 335.867C26.6169 336.277 26.3896 336.746 26.2607 337.245C26.1318 337.743 26.104 338.263 26.1788 338.773C26.2535 339.283 26.4294 339.773 26.6962 340.214C26.9629 340.655 27.3151 341.038 27.732 341.341L57.2156 363.381C57.5244 363.622 57.8787 363.799 58.2574 363.9C58.636 364.002 59.0312 364.026 59.4194 363.972C59.8077 363.917 60.1809 363.785 60.517 363.583C60.853 363.381 61.1449 363.114 61.3754 362.797C67.8705 354.112 71.1546 345.647 62.3971 339.151Z" fill="white"/>
<path d="M103.485 306.456L110.126 305.362L106.112 281.279L99.4708 282.373L81.0071 285.438C79.9788 285.618 79.0608 286.19 78.4477 287.035C77.8346 287.88 77.5747 288.93 77.723 289.963L84.2911 329.226L87.1373 328.715C97.9382 326.964 105.309 317.184 103.485 306.456Z" fill="white"/>
<path d="M170.99 195.894C165.517 195.894 160.117 195.091 155.519 192.756C154.419 192.065 153.243 191.502 152.016 191.077C145.042 186.68 141.389 184.525 138.89 176.668L106.638 223.745L102.562 222.38L42.4742 309.23C39.3361 312.076 36.8548 315.507 39.847 319.593C41.6714 322.148 45.5393 323.023 48.3126 324.118L51.5236 325.286L68.4548 336.962C69.0231 337.393 69.6665 337.715 70.3523 337.911L70.7172 338.13C72.5416 339.225 76.4095 341.195 78.5989 339.954C80.7883 338.714 81.883 333.021 82.2478 330.54C82.2445 330.501 82.2492 330.461 82.2618 330.423C82.2743 330.386 82.2944 330.351 82.3208 330.321L103.047 300.327L103.631 305.581C103.535 305.792 103.462 306.012 103.412 306.238C103.412 306.311 103.485 307.26 103.631 308.136C103.663 308.7 103.736 309.261 103.85 309.814C103.193 310.544 104.069 311.712 105.017 311.566C105.578 311.779 106.192 311.804 106.769 311.639C107.654 311.513 108.491 311.156 109.195 310.606C109.899 310.055 110.447 309.329 110.783 308.5L111.877 307.917L171.866 298.21C181.572 297.189 189.746 287.92 189.746 277.703L190.257 190.712C185.075 193.923 177.559 195.894 170.99 195.894ZM79.0368 335.43V335.065L79.3287 334.554C79.2557 334.846 79.1097 335.138 79.0368 335.43Z" fill="#5588A3"/>
<path d="M71.1546 323.023C70.8379 323.029 70.5289 322.926 70.2789 322.731C70.117 322.623 69.9797 322.482 69.876 322.317C69.7723 322.152 69.7045 321.968 69.677 321.775C69.6494 321.582 69.6628 321.386 69.7162 321.198C69.7696 321.011 69.8619 320.837 69.987 320.688L146.98 216.328C147.213 216.022 147.552 215.814 147.93 215.747C148.309 215.679 148.699 215.756 149.023 215.963C149.333 216.195 149.538 216.541 149.593 216.924C149.647 217.307 149.548 217.697 149.315 218.006L72.3223 322.439C72.1826 322.617 72.0056 322.761 71.8038 322.862C71.6019 322.963 71.3802 323.018 71.1546 323.023Z" fill="white"/>
<path d="M121.901 239.088L69.4433 208.801C67.1395 207.471 64.1937 208.261 62.8636 210.564L42.5389 245.768C41.2088 248.072 41.9982 251.017 44.3019 252.347L96.7594 282.634C99.0632 283.964 102.009 283.175 103.339 280.871L123.664 245.667C124.994 243.364 124.204 240.418 121.901 239.088Z" fill="#F5F5F5"/>
<path d="M99.1784 284.709C98.0715 284.713 96.9852 284.41 96.0403 283.833L43.6413 253.547C42.925 253.142 42.2974 252.598 41.7959 251.946C41.2944 251.294 40.9292 250.548 40.7221 249.752C40.2835 248.155 40.4933 246.45 41.3059 245.008L61.5942 209.832C62.4503 208.374 63.8357 207.302 65.4621 206.84C67.0684 206.431 68.7708 206.667 70.2057 207.497L122.678 237.783C123.394 238.188 124.022 238.732 124.523 239.384C125.025 240.036 125.39 240.782 125.597 241.578C125.817 242.384 125.873 243.226 125.76 244.053C125.647 244.881 125.368 245.677 124.94 246.395L104.652 281.571C104.098 282.53 103.299 283.326 102.338 283.878C101.377 284.429 100.287 284.716 99.1784 284.709ZM67.0676 209.54L66.1918 209.686C65.7582 209.797 65.3524 209.997 65.0005 210.273C64.6486 210.55 64.3584 210.897 64.1484 211.292L43.8602 246.468C43.6283 246.848 43.4762 247.272 43.4132 247.713C43.3501 248.154 43.3775 248.603 43.4936 249.033C43.6096 249.463 43.812 249.865 44.0883 250.214C44.3646 250.564 44.7091 250.853 45.1009 251.065L97.4999 281.279C97.8754 281.517 98.2974 281.673 98.7378 281.736C99.1782 281.799 99.6268 281.767 100.054 281.644C100.911 281.422 101.645 280.871 102.098 280.111L122.459 244.935C122.891 244.146 123.004 243.221 122.773 242.352C122.542 241.482 121.985 240.735 121.218 240.264L68.7461 210.051C68.239 209.741 67.6614 209.565 67.0676 209.54Z" fill="white"/>
<path d="M181.937 138.678C181.322 138.677 180.71 138.604 180.112 138.459C177.339 137.948 174.493 135.248 173.836 133.351C172.741 130.066 171.574 126.636 175.952 115.69C177.631 111.457 177.412 108.465 177.12 104.378C176.974 102.699 176.901 100.729 176.901 98.5395C176.901 92.0444 177.631 91.0226 179.674 89.636C180.334 89.2784 180.926 88.8094 181.426 88.2495C183.542 85.9357 186.319 84.3303 189.38 83.6517C195.511 82.0462 204.341 83.4328 209.45 89.2711C209.603 89.4096 209.726 89.5791 209.809 89.7685C209.892 89.9578 209.934 90.1627 209.932 90.3694C209.93 90.5762 209.884 90.7802 209.797 90.9678C209.71 91.1555 209.584 91.3226 209.428 91.458C209.272 91.5934 209.089 91.694 208.89 91.7533C208.692 91.8126 208.484 91.829 208.279 91.8017C208.074 91.7743 207.877 91.7038 207.702 91.5946C207.526 91.4855 207.376 91.3403 207.26 91.1686C202.955 86.279 195.219 85.1114 190.11 86.425C187.614 87.0233 185.338 88.3133 183.542 90.1469C182.895 90.917 182.132 91.5817 181.28 92.1173C180.258 92.7741 179.82 93.0661 179.82 98.5395C179.82 100.656 179.893 102.407 180.039 104.159C180.331 108.319 180.623 111.895 178.653 116.784C174.712 126.709 175.587 129.483 176.609 132.402C177.498 133.967 178.965 135.12 180.696 135.613C186.315 136.781 190.475 130.067 191.643 128.023C192.81 125.98 193.248 123.061 193.54 119.266C193.549 119.077 193.597 118.892 193.68 118.722C193.763 118.552 193.879 118.401 194.023 118.278C194.167 118.155 194.334 118.063 194.514 118.006C194.695 117.95 194.885 117.932 195.073 117.952C195.265 117.961 195.453 118.008 195.626 118.09C195.8 118.173 195.955 118.288 196.084 118.431C196.213 118.573 196.312 118.739 196.377 118.92C196.441 119.101 196.469 119.293 196.459 119.484C196.241 122.477 195.657 126.709 194.197 129.41C190.913 135.321 186.461 138.678 181.937 138.678Z" fill="white"/>
<path d="M213.099 94.0146C213.104 89.8618 211.732 85.8246 209.196 82.5359C206.66 79.2473 203.104 76.8932 199.087 75.8429C199.309 75.2556 199.456 74.6426 199.525 74.0184C199.996 72.4309 200.071 70.7521 199.744 69.1288C199.646 67.8834 199.245 66.6809 198.576 65.6258C197.226 63.0946 195.139 61.0331 192.592 59.7144C187.483 57.0872 181.718 57.89 176.463 55.8466C174.858 55.1898 174.493 54.46 173.69 52.8545C172.497 50.2919 170.723 48.043 168.508 46.2864C167.446 45.4783 166.295 44.7928 165.078 44.2429C162.81 42.9067 160.187 42.2955 157.562 42.4914C156.367 42.579 155.189 42.8244 154.059 43.2212L153.402 43.4402C147.855 44.9727 145.374 49.2055 141.871 53.2923C140.35 55.1917 138.432 56.7359 136.252 57.817C134.208 58.6198 132.092 58.4009 130.048 58.6928C128.282 58.8589 126.577 59.4331 125.07 60.3703C123.563 61.3075 122.294 62.5819 121.364 64.0932C120.434 65.8565 119.887 67.7963 119.758 69.7856C118.868 70.3749 118.106 71.1374 117.516 72.0276C116.927 72.9178 116.523 73.9175 116.328 74.9671C115.694 76.791 115.72 78.7797 116.401 80.5865C117.204 82.2651 118.883 83.0678 120.634 83.3597C121.604 83.8569 122.682 84.1075 123.772 84.0895C124.837 84.0678 125.894 83.8958 126.91 83.5787C128.224 83.3597 129.902 83.0678 131.143 83.4327C131.663 83.787 132.089 84.263 132.384 84.8193C132.511 85.0238 132.609 85.2448 132.676 85.4761C132.749 85.6221 132.749 85.768 132.822 85.914L133.114 86.5708C133.373 87.4176 133.741 88.2272 134.208 88.9791C137.857 93.9417 144.79 93.5038 148.658 89.271L149.461 88.3953C151.212 87.0816 152.964 85.5491 154.788 84.6734C156.613 83.7976 158.802 86.133 160.7 86.7898C164.683 88.2413 169.071 88.1107 172.96 86.4249C174.493 85.7681 175.879 84.8923 177.412 84.2355L178.58 84.0895C176.703 87.0582 175.715 90.5023 175.733 94.0146C175.733 98.0285 176.828 102.261 179.017 105.326C180.185 96.131 188.286 88.3953 197.773 88.6142C200.894 88.616 203.959 89.4483 206.652 91.0258C209.345 92.6033 211.57 94.8691 213.099 97.5906C213.172 96.3997 213.172 95.2055 213.099 94.0146Z" fill="white"/>
<path d="M195.73 120.36C192.268 120.266 188.934 119.035 186.242 116.857C185.944 116.614 185.753 116.263 185.712 115.88C185.671 115.498 185.783 115.114 186.024 114.814C186.138 114.657 186.283 114.526 186.451 114.429C186.618 114.332 186.804 114.272 186.997 114.251C187.189 114.231 187.384 114.25 187.568 114.31C187.753 114.369 187.922 114.466 188.067 114.595C190.422 116.53 193.415 117.519 196.46 117.368C201.203 117.076 204.195 113.573 205.801 111.676C212.004 104.451 211.347 95.5471 211.201 94.5254C211.179 94.1419 211.302 93.764 211.545 93.4667C211.788 93.1693 212.135 92.9741 212.515 92.9198C212.707 92.8997 212.901 92.9178 213.086 92.973C213.27 93.0283 213.442 93.1196 213.592 93.2418C213.741 93.364 213.865 93.5145 213.955 93.6847C214.046 93.855 214.102 94.0415 214.121 94.2335C214.266 96.058 214.923 105.545 208.063 113.573C206.312 115.616 202.59 119.922 196.606 120.287L195.73 120.36Z" fill="white"/>
<path d="M88.5236 217.057C87.5823 217.095 86.656 216.812 85.8964 216.255C83.1232 214.065 84.8017 208.811 85.3855 207.278C85.7095 206.469 86.1001 205.688 86.5532 204.943C87.6479 203.337 89.4724 199.615 91.8077 194.945C96.9162 184.655 104.652 169.037 113.628 155.974C124.794 139.846 138.587 119.776 161.43 115.835C166.401 114.945 171.492 114.945 176.463 115.835C176.656 115.862 176.841 115.927 177.009 116.026C177.176 116.126 177.321 116.257 177.437 116.414C177.553 116.57 177.636 116.748 177.682 116.937C177.727 117.126 177.735 117.322 177.704 117.514C177.633 117.895 177.42 118.234 177.109 118.464C176.797 118.694 176.41 118.798 176.026 118.755C171.373 117.865 166.594 117.865 161.941 118.755C140.339 122.403 126.838 141.962 116.037 157.652C107.206 170.57 99.5435 185.968 94.435 196.258C91.9537 201.221 90.1292 204.797 89.0345 206.548C88.6769 207.097 88.3831 207.685 88.1587 208.3C87.283 210.562 86.8451 213.335 87.6479 213.919C88.4507 214.503 89.1805 214.211 90.4211 213.7C90.7895 213.579 91.1902 213.602 91.5423 213.765C91.8944 213.927 92.1718 214.217 92.3186 214.576C92.3882 214.758 92.4207 214.952 92.4142 215.147C92.4076 215.341 92.3622 215.533 92.2806 215.709C92.199 215.886 92.0829 216.045 91.939 216.176C91.7951 216.307 91.6264 216.409 91.4428 216.474C90.5132 216.844 89.5241 217.042 88.5236 217.057Z" fill="white"/>
<path d="M93.559 221.071C92.786 221.085 92.0228 220.896 91.3446 220.525C90.6664 220.154 90.0965 219.613 89.6911 218.955C88.3775 216.838 89.5451 214.649 89.6181 214.43C89.7923 214.082 90.0978 213.817 90.4673 213.693C90.8368 213.57 91.2401 213.599 91.5885 213.773C91.9369 213.947 92.2019 214.253 92.325 214.622C92.4482 214.992 92.4196 215.395 92.2454 215.744C92.0935 215.995 92.0072 216.28 91.9944 216.574C91.9817 216.867 92.0429 217.159 92.1723 217.422C92.418 217.752 92.768 217.989 93.1654 218.095C93.5628 218.201 93.9844 218.17 94.3617 218.006C94.5671 217.875 94.7414 217.7 94.8726 217.495C94.963 217.327 95.0873 217.179 95.2377 217.061C95.388 216.943 95.5611 216.857 95.7462 216.809C95.9312 216.761 96.1241 216.752 96.3129 216.782C96.5016 216.812 96.6822 216.881 96.843 216.984C97.1805 217.169 97.4312 217.48 97.5405 217.849C97.6499 218.218 97.609 218.616 97.4269 218.955C97.0273 219.61 96.4768 220.161 95.8213 220.56C95.1102 220.884 94.3402 221.058 93.559 221.071Z" fill="white"/>
<path d="M94.7267 218.517V218.371C94.7066 218.179 94.7247 217.985 94.7799 217.801C94.8352 217.616 94.9265 217.444 95.0487 217.294C95.1708 217.145 95.3214 217.022 95.4916 216.931C95.6618 216.84 95.8483 216.784 96.0404 216.766C96.2282 216.735 96.4203 216.743 96.6049 216.79C96.7894 216.836 96.9624 216.92 97.113 217.037C97.2637 217.153 97.3887 217.299 97.4804 217.466C97.5721 217.633 97.6284 217.817 97.6459 218.006L96.1863 218.225L97.6459 218.079L96.1863 218.298L94.7267 218.517Z" fill="white"/>
<path d="M98.8863 223.114C98.3057 223.128 97.7303 223.003 97.2078 222.749C96.343 222.341 95.63 221.669 95.1711 220.83C94.7121 219.99 94.531 219.027 94.6535 218.079C94.6624 217.89 94.7098 217.705 94.7928 217.535C94.8758 217.365 94.9926 217.214 95.1362 217.091C95.2797 216.968 95.4469 216.876 95.6274 216.82C95.808 216.764 95.9981 216.745 96.1861 216.765C96.3749 216.774 96.5599 216.821 96.7298 216.904C96.8996 216.987 97.0507 217.104 97.1737 217.248C97.2968 217.391 97.3891 217.559 97.4452 217.739C97.5012 217.92 97.5198 218.11 97.4997 218.298C97.4816 218.651 97.5524 219.003 97.7054 219.321C97.8583 219.64 98.0887 219.915 98.3754 220.122C98.7917 220.263 99.2466 220.235 99.6423 220.044C100.038 219.853 100.343 219.514 100.492 219.1C100.652 218.765 100.935 218.504 101.281 218.37C101.628 218.235 102.012 218.238 102.357 218.378C102.701 218.518 102.979 218.783 103.135 219.121C103.29 219.459 103.31 219.843 103.192 220.195C102.985 220.742 102.672 221.242 102.271 221.668C101.87 222.094 101.39 222.436 100.857 222.676C100.244 222.977 99.5685 223.127 98.8863 223.114Z" fill="white"/>
<path d="M104.944 225.231C104.311 225.216 103.689 225.067 103.119 224.793C102.213 224.306 101.472 223.56 100.991 222.65C100.51 221.74 100.311 220.708 100.419 219.685C100.455 219.304 100.633 218.951 100.916 218.694C101.2 218.438 101.569 218.296 101.952 218.298C102.143 218.307 102.331 218.354 102.505 218.437C102.678 218.519 102.834 218.634 102.963 218.777C103.092 218.919 103.191 219.085 103.256 219.266C103.32 219.447 103.348 219.639 103.338 219.831C103.264 220.277 103.321 220.735 103.502 221.15C103.684 221.565 103.982 221.918 104.36 222.166C104.58 222.264 104.821 222.308 105.062 222.296C105.303 222.283 105.537 222.213 105.747 222.093C106.21 221.832 106.571 221.42 106.768 220.925C107.352 219.612 112.68 211.365 152.161 154.952C152.384 154.633 152.724 154.415 153.107 154.347C153.491 154.278 153.885 154.365 154.205 154.587C154.524 154.81 154.742 155.15 154.81 155.533C154.879 155.917 154.792 156.311 154.57 156.631C118.299 208.373 109.979 220.779 109.396 222.02C108.985 223.182 108.151 224.147 107.06 224.72C106.403 225.05 105.679 225.225 104.944 225.231Z" fill="white"/>
<path d="M189.746 192.609C189.599 192.617 189.452 192.595 189.315 192.545C189.177 192.494 189.05 192.417 188.943 192.317C188.786 192.214 188.652 192.081 188.548 191.925C188.445 191.769 188.374 191.594 188.339 191.41C188.305 191.226 188.309 191.037 188.35 190.854C188.391 190.671 188.468 190.498 188.578 190.347C193.313 183.732 197.096 176.485 199.817 168.818C200.547 166.847 200.984 165.315 201.422 163.782C202.151 161.228 203.028 158.718 204.05 156.265C206.772 149.819 210.33 143.759 214.631 138.24C221.856 128.606 242.218 102.991 269.804 69.5661C269.916 69.3967 270.062 69.2527 270.233 69.1431C270.404 69.0335 270.597 68.9608 270.797 68.9297C270.998 68.8986 271.203 68.9098 271.399 68.9626C271.596 69.0153 271.779 69.1084 271.937 69.236C272.095 69.3635 272.225 69.5227 272.318 69.7033C272.411 69.8839 272.465 70.082 272.478 70.2848C272.49 70.4876 272.459 70.6907 272.389 70.8811C272.318 71.0716 272.208 71.2451 272.066 71.3906C244.48 104.815 224.119 130.431 216.967 139.991C212.834 145.321 209.4 151.158 206.75 157.36C205.742 159.735 204.888 162.173 204.195 164.658C203.758 166.191 203.32 167.723 202.59 169.767C199.764 177.684 195.859 185.174 190.986 192.025C190.839 192.212 190.65 192.362 190.435 192.464C190.22 192.565 189.984 192.615 189.746 192.609Z" fill="white"/>
<path d="M212.734 94.5988C212.349 94.5933 211.982 94.4359 211.712 94.1609C211.571 94.031 211.458 93.8731 211.38 93.6972C211.303 93.5214 211.263 93.3313 211.263 93.1392C211.263 92.9471 211.303 92.757 211.38 92.5812C211.458 92.4053 211.571 92.2474 211.712 92.1175C241.999 61.4662 254.989 48.2571 257.324 45.5568L259.514 43.3675C263.017 40.2294 266.082 37.7481 268.49 38.9887C269.023 39.3273 269.468 39.789 269.785 40.3352C270.103 40.8813 270.284 41.4958 270.314 42.1268H270.46C271.19 41.8349 273.234 41.1051 274.912 42.2728C275.606 42.8552 276.11 43.6327 276.357 44.5045C276.604 45.3763 276.584 46.3022 276.299 47.1624C278.415 46.6515 280.021 46.7245 281.115 47.4543C281.761 47.9327 282.204 48.6358 282.356 49.4247C282.721 51.6141 280.532 54.4602 278.488 57.0875L277.466 58.4012C278.259 58.3951 279.048 58.5183 279.802 58.7661C280.24 58.985 282.575 60.0067 282.794 62.0501C283.013 64.0935 281.115 65.4071 277.977 67.5965C274.839 69.7859 273.818 70.4427 271.701 71.7563C271.388 71.8727 271.044 71.8782 270.728 71.7719C270.411 71.6655 270.14 71.4537 269.961 71.1719C269.782 70.89 269.704 70.5551 269.742 70.2232C269.78 69.8913 269.93 69.5824 270.168 69.348L276.372 65.1882C277.612 64.3124 279.729 62.8529 279.875 62.342C279.55 61.973 279.152 61.6748 278.707 61.4662C277.987 61.2704 277.224 61.2958 276.518 61.5392C275.861 61.6852 274.766 61.9771 273.963 61.1013C273.161 60.2256 274.109 57.9632 276.153 55.336C277.248 53.9494 279.656 50.7383 279.437 49.8625C279.218 48.9868 278.342 49.5707 276.518 50.0815L274.766 50.8113C273.89 51.1762 272.65 51.687 271.847 50.5923C271.044 49.4976 271.92 48.476 272.431 47.9651C272.942 47.4543 273.672 46.5056 273.599 45.6298C273.604 45.4554 273.574 45.2816 273.512 45.1187C273.449 44.9558 273.354 44.807 273.234 44.681C272.796 44.3891 271.774 44.7541 271.409 44.9C270.58 45.2181 269.832 45.7167 269.22 46.3596C269.042 46.5728 268.819 46.7428 268.566 46.8566C268.313 46.9704 268.037 47.0251 267.76 47.0164H267.176L266.738 46.5785C266.301 46.1406 266.009 45.4108 266.811 44.3161C267.091 44.0031 267.291 43.6277 267.395 43.2215C267.454 42.9596 267.458 42.6886 267.408 42.425C267.357 42.1615 267.254 41.911 267.103 41.6889C266.447 41.47 264.549 42.8566 261.484 45.6298L259.514 47.6002C257.178 50.2275 245.502 62.1231 213.756 94.2339C213.475 94.4823 213.109 94.6129 212.734 94.5988Z" fill="white"/>
<path d="M231.417 119.776C231.085 119.787 230.76 119.684 230.495 119.485C230.229 119.286 230.04 119.003 229.957 118.682C229.154 115.471 226.673 111.165 221.856 104.597C218.976 100.755 215.616 97.2966 211.858 94.3067C211.705 94.1917 211.576 94.0477 211.478 93.8828C211.38 93.7178 211.316 93.5352 211.289 93.3455C211.262 93.1557 211.273 92.9625 211.32 92.7769C211.368 92.5912 211.451 92.4167 211.566 92.2634C211.681 92.11 211.825 91.9808 211.99 91.8831C212.155 91.7855 212.338 91.7213 212.528 91.6942C212.717 91.6671 212.911 91.6776 213.096 91.7252C213.282 91.7728 213.456 91.8564 213.61 91.9714C217.622 95.1417 221.204 98.8217 224.265 102.918C229.373 109.851 231.928 114.376 232.803 117.952C232.893 118.339 232.828 118.745 232.624 119.085C232.42 119.425 232.092 119.673 231.709 119.776H231.417Z" fill="white"/>
<path d="M170.26 198.156C168.721 198.14 167.185 198.019 165.663 197.791C151.87 195.894 144.499 188.231 137.566 177.357C137.371 177.035 137.308 176.651 137.389 176.284C137.471 175.917 137.691 175.595 138.004 175.387C138.336 175.187 138.732 175.122 139.112 175.203C139.491 175.284 139.825 175.507 140.047 175.825C146.688 186.261 153.329 193.121 166.028 194.945C178.726 196.769 187.921 190.639 189.016 189.909C189.338 189.715 189.722 189.651 190.089 189.733C190.456 189.814 190.778 190.035 190.987 190.347C191.186 190.68 191.251 191.076 191.17 191.455C191.089 191.834 190.867 192.169 190.549 192.391C184.408 196.058 177.412 198.046 170.26 198.156Z" fill="white"/>
<path d="M142.966 171.81C142.756 171.819 142.547 171.777 142.357 171.688C142.166 171.599 142 171.466 141.872 171.299C138.442 167.432 132.895 163.126 127.495 159.039C124.568 156.796 121.496 154.748 118.299 152.909C118.129 152.811 117.979 152.68 117.861 152.523C117.742 152.366 117.656 152.187 117.608 151.996C117.561 151.805 117.552 151.607 117.583 151.412C117.614 151.218 117.684 151.032 117.789 150.865C117.998 150.554 118.314 150.33 118.677 150.235C119.04 150.141 119.425 150.184 119.759 150.355C123.048 152.276 126.216 154.396 129.246 156.704C134.793 160.863 140.412 165.315 144.061 169.402C144.31 169.694 144.434 170.071 144.407 170.454C144.379 170.836 144.203 171.192 143.915 171.445C143.65 171.672 143.315 171.8 142.966 171.81Z" fill="white"/>
<path d="M183.032 97.007C184.765 97.007 186.17 95.602 186.17 93.8688C186.17 92.1357 184.765 90.7307 183.032 90.7307C181.298 90.7307 179.893 92.1357 179.893 93.8688C179.893 95.602 181.298 97.007 183.032 97.007Z" fill="white"/>
<path d="M210.545 180.203C210.228 180.208 209.919 180.105 209.669 179.911C209.371 179.668 209.18 179.317 209.139 178.934C209.098 178.551 209.21 178.168 209.45 177.867L254.405 122.768C254.661 122.465 255.025 122.272 255.419 122.232C255.814 122.191 256.209 122.305 256.522 122.549C256.809 122.802 256.986 123.159 257.013 123.541C257.041 123.923 256.916 124.301 256.668 124.593L211.713 179.692C211.569 179.86 211.39 179.993 211.187 180.082C210.985 180.17 210.765 180.211 210.545 180.203Z" fill="#E8E8E8"/>
<path d="M226.6 174.876C226.282 174.895 225.968 174.79 225.724 174.584C225.571 174.469 225.442 174.325 225.344 174.16C225.247 173.995 225.182 173.812 225.155 173.622C225.128 173.433 225.139 173.239 225.186 173.054C225.234 172.868 225.317 172.694 225.432 172.54L261.192 127.293C261.3 127.131 261.442 126.994 261.606 126.89C261.771 126.787 261.956 126.719 262.149 126.691C262.342 126.664 262.538 126.677 262.725 126.731C262.912 126.784 263.086 126.876 263.236 127.001C263.534 127.244 263.725 127.595 263.766 127.978C263.807 128.361 263.695 128.744 263.455 129.045L227.768 174.292C227.628 174.469 227.451 174.613 227.249 174.714C227.047 174.815 226.826 174.87 226.6 174.876Z" fill="#E8E8E8"/>
<path d="M270.096 135.977C269.773 135.952 269.466 135.824 269.221 135.613L246.889 118.536C246.574 118.29 246.368 117.932 246.313 117.536C246.259 117.141 246.361 116.74 246.597 116.419C246.84 116.121 247.191 115.93 247.574 115.889C247.956 115.848 248.34 115.96 248.64 116.2L271.045 133.35C271.344 133.593 271.534 133.944 271.575 134.327C271.616 134.71 271.504 135.093 271.264 135.394C271.124 135.571 270.947 135.715 270.745 135.816C270.544 135.917 270.322 135.972 270.096 135.977Z" fill="#E8E8E8"/>
<path d="M247.691 118.39C247.382 118.389 247.08 118.289 246.831 118.105C246.582 117.922 246.397 117.664 246.305 117.368C246.186 117.01 246.212 116.62 246.375 116.28C246.538 115.939 246.827 115.676 247.18 115.544L272.504 106.64C272.686 106.571 272.88 106.538 273.075 106.545C273.269 106.551 273.46 106.597 273.637 106.678C273.814 106.76 273.973 106.876 274.104 107.02C274.235 107.164 274.336 107.332 274.401 107.516C274.519 107.894 274.485 108.302 274.308 108.655C274.132 109.009 273.825 109.281 273.453 109.414L248.202 118.317L247.691 118.39Z" fill="#E8E8E8"/>
<path d="M270.169 135.248H270.023C269.831 135.229 269.645 135.173 269.474 135.083C269.304 134.992 269.154 134.868 269.031 134.719C268.909 134.57 268.818 134.398 268.763 134.213C268.707 134.028 268.689 133.834 268.709 133.642L271.702 108.027C271.756 107.652 271.954 107.313 272.254 107.082C272.553 106.85 272.931 106.744 273.307 106.786C273.499 106.804 273.686 106.86 273.856 106.951C274.026 107.042 274.177 107.165 274.299 107.315C274.421 107.464 274.512 107.636 274.568 107.821C274.623 108.006 274.641 108.2 274.621 108.391L271.629 133.934C271.592 134.295 271.423 134.63 271.153 134.873C270.883 135.116 270.532 135.25 270.169 135.248Z" fill="#E8E8E8"/>
<path d="M212.369 340.392C210.107 340.392 209.085 337.181 208.72 334.043C205.728 333.751 201.86 332.802 201.86 330.321C201.86 327.839 205.655 326.891 208.574 326.526C208.866 323.388 209.815 319.228 212.369 319.228C214.923 319.228 215.945 323.388 216.237 326.526C219.156 326.891 222.951 327.839 222.951 330.321C222.951 332.802 219.083 333.751 216.091 334.043C215.653 337.181 214.704 340.392 212.369 340.392ZM205.217 330.321C206.781 330.913 208.435 331.234 210.107 331.269H211.347L211.493 332.51C211.57 334.004 211.865 335.48 212.369 336.889C212.908 335.486 213.228 334.01 213.318 332.51L213.464 331.269H214.704C216.353 331.238 217.983 330.916 219.521 330.321C218.006 329.724 216.404 329.379 214.777 329.299H213.464V328.058C213.318 325.285 212.88 323.607 212.442 322.731C211.84 324.444 211.519 326.243 211.493 328.058L211.347 329.299H210.107C208.434 329.383 206.784 329.728 205.217 330.321Z" fill="white"/>
<path d="M78.1608 137.51C75.6065 137.51 74.5848 133.496 74.2199 130.504C70.9359 130.139 66.5571 129.118 66.5571 126.418C66.5571 123.717 70.8629 122.769 74.074 122.404C74.3659 119.266 75.3146 114.303 78.1608 114.303C81.007 114.303 82.0287 119.266 82.3206 122.404C85.5317 122.769 89.7645 123.79 89.7645 126.418C89.7645 129.045 85.4587 130.139 82.1746 130.504C81.7368 133.496 80.7151 137.51 78.1608 137.51ZM69.8412 126.418C70.644 126.855 72.5414 127.439 75.6065 127.731H76.8472L76.9931 128.972C77.067 130.755 77.4626 132.511 78.1608 134.153C78.5987 133.424 79.1095 131.745 79.4014 128.972L79.5474 127.731H80.7151C83.8532 127.439 85.7506 126.855 86.5534 126.418C85.7506 125.98 83.9261 125.396 80.861 125.177H79.5474V123.79C79.3285 120.433 78.7446 118.39 78.2338 117.514C77.7959 118.39 77.1391 120.433 76.9931 123.79V125.104H75.5336C72.4684 125.396 70.644 125.98 69.8412 126.418Z" fill="white"/>
<path d="M195.438 121.455C195.3 121.258 195.124 121.09 194.921 120.961C194.717 120.832 194.49 120.744 194.252 120.704C194.015 120.663 193.772 120.67 193.537 120.724C193.302 120.777 193.08 120.877 192.884 121.017C191.149 122.326 188.993 122.95 186.827 122.769C183.324 122.404 180.259 119.631 179.018 115.69C178.869 115.266 178.575 114.908 178.187 114.681C177.8 114.454 177.344 114.372 176.902 114.449C176.537 112.989 175.15 110.581 173.18 108.173C170.261 104.597 167.195 102.334 166.32 103.064C165.444 103.794 167.05 107.224 169.969 110.8C172.012 113.281 174.128 115.179 175.515 115.836C175.443 116.148 175.443 116.472 175.515 116.784C177.194 122.112 181.499 125.834 186.462 126.418H187.63C190.291 126.412 192.878 125.541 195.001 123.936C195.195 123.805 195.362 123.635 195.49 123.438C195.618 123.241 195.705 123.02 195.746 122.789C195.787 122.557 195.781 122.32 195.728 122.09C195.675 121.861 195.577 121.645 195.438 121.455Z" fill="#5588A3"/>
<path d="M1.4596 346.595C1.14291 346.601 0.833845 346.498 0.583837 346.303C0.430497 346.188 0.30132 346.044 0.203663 345.879C0.106006 345.714 0.0417746 345.532 0.0146677 345.342C-0.0124393 345.152 -0.00190057 344.959 0.0456695 344.773C0.0932396 344.588 0.176942 344.413 0.291947 344.26L49.8447 277.849C50.077 277.539 50.4228 277.335 50.806 277.28C51.1892 277.225 51.5785 277.325 51.8881 277.557C52.1978 277.789 52.4026 278.135 52.4573 278.518C52.5121 278.902 52.4123 279.291 52.1801 279.601L2.62724 346.012C2.4876 346.189 2.31057 346.333 2.10872 346.434C1.90687 346.535 1.68521 346.59 1.4596 346.595Z" fill="white"/>
<path d="M26.4186 293.539C26.1019 293.545 25.7929 293.442 25.5429 293.248C25.381 293.139 25.2437 292.998 25.14 292.833C25.0363 292.669 24.9685 292.484 24.9409 292.291C24.9134 292.098 24.9268 291.902 24.9802 291.715C25.0336 291.527 25.1259 291.353 25.2509 291.204L48.8232 259.166C48.9327 259.007 49.0726 258.872 49.2349 258.767C49.3972 258.662 49.5787 258.591 49.7687 258.557C49.9588 258.523 50.1537 258.527 50.3421 258.569C50.5306 258.611 50.7089 258.69 50.8666 258.801C51.1478 259.053 51.3311 259.396 51.3845 259.77C51.4379 260.144 51.3579 260.524 51.1585 260.845L27.5863 292.956C27.4466 293.133 27.2696 293.277 27.0677 293.378C26.8659 293.479 26.6443 293.534 26.4186 293.539Z" fill="white"/>
<path d="M263.673 80.2217C263.391 80.2289 263.111 80.1576 262.867 80.0159C262.622 79.8742 262.421 79.6676 262.287 79.4189C260.26 74.986 257.552 70.8982 254.259 67.3044C251.822 64.6594 249.106 62.2859 246.158 60.2254C246 60.1152 245.865 59.9749 245.761 59.8126C245.657 59.6503 245.587 59.469 245.553 59.2792C245.484 58.896 245.571 58.5013 245.793 58.182C246.016 57.8626 246.356 57.6448 246.74 57.5764C247.123 57.5079 247.517 57.5945 247.837 57.8171C250.947 60.0059 253.81 62.5263 256.375 65.334C259.877 69.1571 262.78 73.4874 264.987 78.1783C265.139 78.5379 265.149 78.942 265.013 79.3082C264.877 79.6744 264.607 79.975 264.257 80.1487L263.673 80.2217Z" fill="#5588A3"/>
<path d="M44.8088 314.047C46.4874 315.287 48.3848 315.944 50.2823 316.82C52.325 317.859 54.1563 319.27 55.6827 320.98C56.5584 322.074 58.164 320.542 57.2153 319.447C55.7484 317.764 53.9939 316.356 52.0337 315.287C49.9903 314.193 47.801 313.536 45.9035 312.149C44.0061 310.763 43.6412 313.171 44.8088 314.047Z" fill="white"/>
<path d="M58.8943 322.877C59.4034 323.349 59.9978 323.721 60.6458 323.971C60.7798 324.016 60.9217 324.032 61.0623 324.018C61.2028 324.005 61.3391 323.963 61.4626 323.894C61.586 323.826 61.6939 323.732 61.7794 323.62C61.8649 323.508 61.9262 323.379 61.9594 323.242C62.0044 323.103 62.0212 322.956 62.0087 322.811C61.9962 322.665 61.9547 322.524 61.8867 322.394C61.8187 322.265 61.7255 322.151 61.6127 322.058C61.4998 321.966 61.3696 321.897 61.2296 321.855H61.0837L60.7917 321.709H60.7188L60.4999 321.417C60.4077 321.266 60.2825 321.139 60.1338 321.044C59.9852 320.948 59.8168 320.888 59.6415 320.867C59.4661 320.846 59.2883 320.866 59.1215 320.923C58.9547 320.981 58.8032 321.076 58.6783 321.201C58.5535 321.326 58.4586 321.477 58.4007 321.644C58.3429 321.811 58.3236 321.989 58.3444 322.164C58.3652 322.34 58.4255 322.508 58.5208 322.657C58.616 322.805 58.7437 322.93 58.8943 323.023V322.877Z" fill="white"/>
<path d="M21.8937 337.108C23.3533 336.743 25.5427 335.721 27.0023 335.867C30.2134 336.305 28.9727 338.276 29.1917 339.881C29.2473 340.504 29.4653 341.101 29.8239 341.614C30.1824 342.126 30.669 342.535 31.2351 342.8C33.4244 343.895 36.4896 342.654 38.46 343.822C40.4305 344.99 40.4304 348.347 42.1819 350.025C43.9334 351.704 44.8092 351.047 46.2688 351.12C47.7284 351.193 50.9394 350.171 51.9612 352.799C52.0701 353.451 52.1432 354.109 52.1801 354.769C52.2594 355.526 52.5196 356.252 52.9388 356.887C53.3579 357.523 53.9237 358.048 54.5884 358.418C56.7778 359.659 62.1782 358.564 62.7621 361.994C62.981 363.381 65.0974 362.797 64.8785 361.41C64.6595 360.023 63.127 358.053 61.0835 357.469C59.0401 356.885 58.5293 357.323 57.2886 356.958C54.4424 356.083 54.5884 354.404 54.0775 351.996C53.5667 349.587 53.2018 349.515 51.6692 349.004C50.5125 348.796 49.3305 348.772 48.1662 348.931C47.2422 349.017 46.3112 348.992 45.393 348.858C43.9334 348.493 43.6415 347.325 43.0577 345.866C42.4739 344.406 41.89 342.946 39.9926 342.071C38.6636 341.57 37.2527 341.323 35.8327 341.341C32.9136 341.122 31.6 340.392 31.454 337.473C31.1621 331.927 24.667 334.116 21.3099 334.992C19.9963 335.284 20.5801 337.4 21.8937 337.108Z" fill="#5588A3"/>
<path d="M127.769 145.299C129.448 149.605 133.024 151.429 137.476 151.575C139.3 151.648 141.709 151.94 143.241 150.773C144.774 149.605 145.284 147.27 145.066 145.299C144.628 141.212 142.219 137.709 137.914 138.074C133.608 138.439 128.572 139.826 127.988 144.642C127.769 146.029 129.959 146.029 130.178 144.642C130.543 141.504 135.286 140.264 137.914 140.264C140.541 140.264 143.606 143.621 142.876 146.978C142.146 150.335 138.716 149.605 136.235 149.313C133.754 149.021 130.981 147.634 129.886 144.715C129.375 143.402 127.259 143.986 127.769 145.299Z" fill="#E8E8E8"/>
<path d="M163.166 128.732C157.4 132.162 162.363 144.058 169.077 140.92C175.791 137.782 170.901 126.762 164.041 128.514C163.761 128.591 163.522 128.777 163.379 129.03C163.235 129.283 163.198 129.583 163.275 129.864C163.353 130.144 163.538 130.383 163.791 130.526C164.045 130.67 164.345 130.707 164.625 130.63C168.931 129.535 172.58 136.76 168.201 138.877C163.822 140.993 160.757 132.746 164.333 130.63C164.585 130.475 164.765 130.227 164.833 129.939C164.902 129.652 164.853 129.349 164.698 129.097C164.543 128.846 164.295 128.666 164.008 128.598C163.72 128.529 163.417 128.578 163.166 128.732Z" fill="#E8E8E8"/>
<path d="M210.09 125.011C208.12 124.208 203.96 122.822 202.792 125.376C201.625 127.93 200.822 131.287 203.23 132.455C205.639 133.623 208.485 133.695 210.236 131.944C211.011 131.199 211.496 130.202 211.603 129.132C211.71 128.062 211.432 126.989 210.82 126.106C210.017 124.938 208.12 126.033 208.923 127.2C209.242 127.62 209.415 128.133 209.415 128.66C209.415 129.187 209.242 129.7 208.923 130.119C208.047 131.287 205.858 131.214 204.617 130.63C203.376 130.047 204.033 129.317 204.179 128.514C204.325 127.711 204.398 126.762 204.763 126.398C205.128 126.033 208.558 126.689 209.506 127.127C210.455 127.565 211.404 125.522 210.09 125.011Z" fill="#E8E8E8"/>
<path d="M195.949 152.544C191.497 155.244 195.292 164.147 200.401 161.739C205.509 159.331 201.86 151.084 196.606 152.398C196.325 152.475 196.087 152.661 195.943 152.914C195.799 153.167 195.762 153.467 195.84 153.748C195.917 154.028 196.103 154.267 196.356 154.411C196.609 154.554 196.909 154.591 197.19 154.514C199.89 153.784 202.225 158.382 199.525 159.769C196.825 161.155 194.854 155.755 197.044 154.441C199.233 153.127 197.117 151.814 195.949 152.544Z" fill="#E8E8E8"/>
<path d="M160.043 164.585C157.927 173.343 173.471 176.919 175.515 167.796C177.558 158.674 164.349 156.849 160.627 163.71C159.897 164.95 161.794 166.045 162.451 164.804C164.787 160.717 173.179 160.134 173.544 166.045C173.909 173.708 160.554 171.664 162.159 165.169C162.451 163.783 160.335 163.199 160.043 164.585Z" fill="#E8E8E8"/>
<path d="M176.464 184.29C177.996 189.69 188.286 188.45 187.41 182.393C186.535 176.335 176.683 177.649 176.464 183.56C176.464 183.851 176.579 184.129 176.784 184.334C176.99 184.54 177.268 184.655 177.558 184.655C177.849 184.655 178.127 184.54 178.332 184.334C178.538 184.129 178.653 183.851 178.653 183.56C178.799 180.203 185.075 179.254 185.294 182.903C185.513 186.552 179.31 186.479 178.58 183.706C178.503 183.425 178.317 183.187 178.064 183.043C177.81 182.9 177.511 182.862 177.23 182.94C176.949 183.017 176.711 183.203 176.567 183.456C176.423 183.709 176.386 184.009 176.464 184.29Z" fill="#E8E8E8"/>
<path d="M88.8885 202.608C82.9772 203.337 77.7227 204.724 74.4387 210.125C73.7089 211.292 75.6063 212.46 76.3361 211.219C79.1823 206.549 83.78 205.454 88.8885 204.797C90.2751 204.651 90.2751 202.462 88.8885 202.608Z" fill="white"/>
<path d="M111.221 216.765C113.118 221.363 114.505 227.639 111.221 231.945C110.418 233.113 112.315 234.207 113.118 233.04C116.913 228.077 115.308 220.925 113.045 215.671C112.534 214.357 110.637 215.525 111.221 216.765Z" fill="white"/>
<path d="M167.268 214.065C165.569 216.568 162.989 218.34 160.043 219.028C158.146 219.539 156.394 219.612 154.789 220.925C152.088 223.042 151.067 226.618 149.753 229.61C145.374 239.535 140.266 249.095 135.23 258.582C132.996 262.923 130.485 267.116 127.713 271.135C124.575 275.514 120.707 279.309 116.913 283.03C110.563 289.234 104.433 295.583 101.514 304.121C101.076 305.435 103.192 306.019 103.63 304.705C106.914 294.999 114.723 288.358 121.729 281.352C128.735 274.346 133.187 266.902 137.712 258.509C142.236 250.117 147.491 240.265 151.651 230.777C152.383 228.829 153.236 226.928 154.205 225.085C155.883 222.239 157.708 221.874 160.627 221.144C164.134 220.315 167.19 218.173 169.166 215.16C169.968 213.992 168.071 212.897 167.268 214.065Z" fill="white"/>
<path d="M62.3974 336.378C58.9674 336.524 55.5373 336.743 52.6182 338.714C51.4505 339.443 52.5452 341.341 53.7128 340.611C56.3401 338.86 59.3323 338.641 62.3974 338.568C63.784 338.495 63.784 336.305 62.3974 336.378Z" fill="#5588A3"/>
<path d="M67.1406 342.8C63.7936 342.543 60.427 342.764 57.1425 343.457C55.7559 343.749 56.3397 345.792 57.6533 345.574C60.7736 344.941 63.9664 344.745 67.1406 344.99C68.5272 345.063 68.5272 342.873 67.1406 342.8Z" fill="#5588A3"/>
<path d="M222.44 176.7C222.15 176.7 221.871 176.815 221.666 177.021C221.461 177.226 221.345 177.504 221.345 177.795C221.345 178.085 221.461 178.363 221.666 178.569C221.871 178.774 222.15 178.889 222.44 178.889C222.73 178.889 223.009 178.774 223.214 178.569C223.42 178.363 223.535 178.085 223.535 177.795C223.535 177.504 223.42 177.226 223.214 177.021C223.009 176.815 222.73 176.7 222.44 176.7Z" fill="#E8E8E8"/>
<path d="M269.366 0.674386C268.344 -0.49328 266.301 0.163514 264.987 0.382451C262.174 0.825017 259.394 1.45896 256.667 2.27989C254.478 2.9367 250.099 3.66651 252.581 6.58568C253.681 7.84559 254.989 8.90703 256.448 9.72373L225.067 42.8563C224.834 43.1037 224.652 43.3952 224.533 43.7138C224.414 44.0324 224.359 44.3716 224.373 44.7115C224.386 45.0514 224.468 45.3851 224.612 45.6931C224.757 46.0011 224.961 46.2773 225.213 46.5052L226.089 47.308C226.332 47.546 226.619 47.7333 226.935 47.8587C227.251 47.9841 227.589 48.0452 227.929 48.0384C228.269 48.0316 228.604 47.957 228.915 47.8191C229.225 47.6811 229.505 47.4826 229.738 47.235L261.557 13.5917L262.725 14.4674C264.111 15.4161 265.206 16.6567 266.739 17.3865C266.899 17.4718 267.077 17.516 267.259 17.5151C267.44 17.5142 267.618 17.4682 267.777 17.3814C267.937 17.2945 268.072 17.1696 268.17 17.0176C268.269 16.8657 268.329 16.6915 268.344 16.5108C268.417 16.3649 268.49 16.2919 268.49 16.1459C268.928 12.8619 269.293 9.65076 269.585 6.3667C269.731 4.76116 270.606 2.06099 269.366 0.674386Z" fill="#E8E8E8"/>
<path d="M242.363 200.637C241.342 199.47 239.298 200.126 237.985 200.345C235.171 200.788 232.392 201.422 229.665 202.243C227.476 202.899 223.097 203.629 225.578 206.548C226.678 207.808 227.986 208.87 229.446 209.687L198.065 242.819C197.832 243.066 197.65 243.358 197.531 243.677C197.411 243.995 197.357 244.334 197.37 244.674C197.384 245.014 197.465 245.348 197.61 245.656C197.754 245.964 197.958 246.24 198.211 246.468L199.087 247.271C199.329 247.509 199.617 247.696 199.933 247.821C200.249 247.947 200.587 248.008 200.927 248.001C201.266 247.994 201.601 247.92 201.912 247.782C202.223 247.644 202.503 247.445 202.736 247.198L234.555 213.554L235.722 214.43C237.109 215.379 238.204 216.62 239.736 217.349C239.896 217.435 240.075 217.479 240.256 217.478C240.437 217.477 240.616 217.431 240.775 217.344C240.934 217.257 241.069 217.132 241.168 216.98C241.267 216.828 241.327 216.654 241.342 216.474C241.415 216.328 241.488 216.255 241.488 216.109C241.925 212.825 242.29 209.614 242.582 206.329C242.728 204.724 243.604 202.024 242.363 200.637Z" fill="#E8E8E8"/>
<path d="M268.563 1.55018C268.636 3.329 268.562 5.11084 268.344 6.87769C268.125 8.26429 270.241 8.84807 270.46 7.46147C270.739 5.50422 270.837 3.5254 270.752 1.55018C270.679 0.163573 268.49 0.163573 268.563 1.55018Z" fill="white"/>
<path d="M267.979 10.8914V11.1833C267.979 11.4736 268.095 11.752 268.3 11.9573C268.505 12.1626 268.784 12.278 269.074 12.278C269.359 12.2607 269.627 12.1398 269.829 11.9382C270.031 11.7365 270.151 11.4679 270.169 11.1833V10.8914C270.169 10.6011 270.053 10.3227 269.848 10.1174C269.643 9.91206 269.364 9.79674 269.074 9.79674C268.789 9.81404 268.521 9.93485 268.319 10.1365C268.118 10.3382 267.997 10.6068 267.979 10.8914Z" fill="white"/>
<path d="M220.689 42.4187L217.624 45.8487C216.675 46.8704 218.208 48.403 219.157 47.3813L222.222 44.0242C223.17 42.9295 221.638 41.397 220.689 42.4187Z" fill="white"/>
<path d="M214.485 49.4975L212.442 51.4679C212.229 51.6712 212.105 51.9506 212.099 52.2449C212.092 52.5391 212.202 52.8241 212.405 53.037C212.609 53.2499 212.888 53.3733 213.182 53.3802C213.477 53.387 213.761 53.2767 213.974 53.0734L216.018 51.103C216.231 50.8998 216.354 50.6203 216.361 50.326C216.368 50.0318 216.257 49.7469 216.054 49.534C215.851 49.3211 215.572 49.1976 215.277 49.1907C214.983 49.1839 214.698 49.2942 214.485 49.4975Z" fill="white"/>
<path d="M227.257 37.3099C231.203 32.8656 235.472 28.7189 240.028 24.9034C241.05 24.0277 239.517 22.4951 238.423 23.3709C233.889 27.1867 229.645 31.3336 225.724 35.7773C224.776 36.872 226.308 38.4046 227.257 37.3099Z" fill="white"/>
<path d="M197.774 257.269L204.634 250.993C205.728 250.044 204.123 248.512 203.101 249.46L196.241 255.664C195.146 256.612 196.752 258.218 197.774 257.269Z" fill="white"/>
<path d="M207.918 247.271C208.285 246.722 208.756 246.251 209.304 245.884C209.528 245.723 209.686 245.488 209.753 245.221C209.82 244.954 209.79 244.672 209.669 244.425C209.517 244.171 209.274 243.985 208.989 243.903C208.705 243.822 208.4 243.852 208.137 243.987C207.273 244.545 206.549 245.294 206.02 246.176C205.875 246.428 205.836 246.727 205.911 247.007C205.986 247.288 206.17 247.527 206.422 247.672C206.673 247.817 206.972 247.857 207.253 247.781C207.533 247.706 207.773 247.522 207.918 247.271Z" fill="white"/>
<path d="M224.046 208.738L212.734 219.393C211.712 220.342 213.245 221.874 214.266 220.925L225.578 210.344C225.791 210.14 225.915 209.861 225.921 209.567C225.928 209.272 225.818 208.987 225.615 208.774C225.412 208.562 225.132 208.438 224.838 208.431C224.543 208.424 224.259 208.535 224.046 208.738Z" fill="white"/>
<g clip-path="url(#clip0_3830_2751)">
<path d="M86.8032 261.399C86.4264 262.044 85.9616 261.981 85.775 261.26L83.1655 251.325C82.9941 250.48 83.1157 249.602 83.5101 248.835L90.1142 237.525C90.2971 237.215 90.5954 236.989 90.9438 236.898C91.2923 236.806 91.6628 236.856 91.9747 237.036L97.5434 240.288C97.8545 240.47 98.0805 240.769 98.1724 241.117C98.2642 241.466 98.2145 241.837 98.0339 242.149L86.8032 261.399ZM77.4784 229.686C77.2885 228.962 77.6587 228.682 78.3056 229.059L87.3966 234.367C87.7074 234.55 87.9332 234.848 88.0248 235.197C88.1164 235.546 88.0663 235.916 87.8854 236.228L82.572 245.328C82.1943 245.975 81.7306 245.91 81.5439 245.189L77.4784 229.686ZM83.2836 261.917C83.4736 262.64 83.1034 262.921 82.4566 262.544L73.3655 257.235C73.0548 257.053 72.829 256.755 72.7373 256.406C72.6458 256.057 72.6959 255.687 72.8768 255.375L78.1901 246.275C78.5669 245.63 79.0316 245.692 79.2183 246.414L83.2836 261.917ZM73.9596 230.207C74.3373 229.56 74.7994 229.623 74.9877 230.346L77.5973 240.28C77.7694 241.125 77.6482 242.002 77.2537 242.768L70.6516 254.076C70.4689 254.386 70.1707 254.612 69.8221 254.704C69.4735 254.795 69.1028 254.745 68.791 254.564L63.2074 251.304C62.8962 251.122 62.6701 250.824 62.5785 250.475C62.4868 250.126 62.5373 249.755 62.7187 249.444L73.9596 230.207Z" fill="#00334E"/>
</g>
<defs>
<clipPath id="clip0_3830_2751">
<rect width="26.8268" height="26.8268" fill="white" transform="translate(75.5596 227.452) rotate(30.2801)"/>
</clipPath>
</defs>
</svg>
