<svg width="49" height="49" viewBox="0 0 49 49" fill="none" xmlns="http://www.w3.org/2000/svg">
<path d="M38.9248 27.1317C26.1908 29.2257 23.9269 31.8857 22.2291 47.393C22.1725 47.9023 21.4367 47.9023 21.3801 47.393C19.6823 31.8857 17.4184 29.2823 4.68439 27.1317C4.17503 27.0751 4.17503 26.3393 4.68439 26.2827C17.4184 24.1887 19.6823 21.5853 21.3801 6.07807C21.4367 5.5687 22.1725 5.5687 22.2291 6.07807C23.9269 21.5853 26.1908 24.1321 38.9248 26.2827C39.3776 26.3393 39.3776 27.0185 38.9248 27.1317Z" fill="#131836"/>
<path d="M44.3581 9.24742C40.3964 10.0398 39.2644 11.3415 38.5853 15.9823C38.5287 16.4917 37.793 16.4917 37.7364 15.9823C37.0572 11.3415 35.9253 10.0398 31.9636 9.19083C31.5108 9.07763 31.5108 8.45508 31.9636 8.34189C35.8687 7.54955 37.0572 6.24785 37.7364 1.607C37.793 1.09764 38.5287 1.09764 38.5853 1.607C39.2644 6.24785 40.3964 7.54955 44.3581 8.39849C44.8108 8.51168 44.8108 9.19083 44.3581 9.24742Z" fill="#131836"/>
</svg>
