<svg width="33" height="40" viewBox="0 0 33 40" fill="none" xmlns="http://www.w3.org/2000/svg">
<path d="M26.4629 0.574082C26.425 0.305723 26.2108 0.0968165 25.9416 0.0655665C25.7304 0.0411134 20.7356 -0.504824 17.9291 2.03689C17.2014 2.69596 16.6365 3.56057 16.2516 4.58885C15.8666 3.56064 15.3018 2.69596 14.5741 2.03689C11.7677 -0.504824 6.77293 0.0411134 6.56168 0.0655665C6.29246 0.0967384 6.07825 0.305723 6.04035 0.574082C6.03864 0.586192 6.02739 0.667598 6.01434 0.805879C5.9752 1.22064 5.80715 4.79447 8.24106 7.22838C10.0864 9.07377 16.2501 9.26525 16.2501 9.26525C16.2501 9.26525 22.4168 9.07377 24.2622 7.22838C26.3875 5.10307 26.5303 1.2583 26.4914 0.831738C26.4773 0.677754 26.4648 0.586973 26.4629 0.574082Z" fill="#98DB7C"/>
<path d="M26.4913 0.831665C26.4798 0.96604 26.4657 1.10393 26.4484 1.24479C26.2045 3.23292 25.4485 4.85167 24.2622 5.9262C22.517 7.50682 18.3257 7.89331 16.2516 7.95377C14.1775 7.89331 9.98621 7.50682 8.24098 5.9262C7.05465 4.85174 6.29871 3.23292 6.05481 1.24479C6.03754 1.10393 6.0234 0.96604 6.01192 0.831665C5.97293 1.25792 5.92223 2.16893 6.05481 3.2501C6.29871 5.23823 7.05473 6.85698 8.24098 7.93151C10.1754 9.68346 13.149 9.96838 14.8797 9.96838C15.179 9.96838 15.4407 9.95987 15.6539 9.94893V18.5454C15.6539 18.8745 15.9206 19.1412 16.2497 19.1412C16.5787 19.1412 16.8454 18.8745 16.8454 18.5454V9.9487C17.0593 9.95971 17.3223 9.96838 17.6234 9.96838C19.3541 9.96838 22.3278 9.68338 24.2622 7.93151C25.4485 6.85706 26.2044 5.23823 26.4483 3.2501C26.581 2.16893 26.5302 1.25799 26.4913 0.831665Z" fill="#82D361"/>
<path d="M29.7512 22.6697H5.76008C4.75391 22.6697 4.75391 20.9368 4.75391 20.9368V18.8366C4.75391 18.2809 5.20437 17.8304 5.76008 17.8304H9.78719L11.2588 18.5336L12.7305 17.8304H22.7807L24.2523 18.5336L25.724 17.8304H29.7511C30.3068 17.8304 30.7573 18.2809 30.7573 18.8366V20.9368C30.7573 20.9368 30.7573 22.6697 29.7512 22.6697Z" fill="#FFE27A"/>
<path d="M29.7512 21.9429H5.76008C5.20437 21.9429 4.75391 21.4925 4.75391 20.9368V22.3667C4.75391 22.9224 5.20437 23.3729 5.76008 23.3729H9.78719L11.2588 22.6697L12.7305 23.3729H22.7807L24.2523 22.6697L25.724 23.3729H29.7512C30.3069 23.3729 30.7573 22.9224 30.7573 22.3667V20.9368C30.7573 21.4925 30.3069 21.9429 29.7512 21.9429Z" fill="#F9CF58"/>
<path d="M11.2589 22.6698L9.78723 21.943V17.8306H12.7305V21.943L11.2589 22.6698Z" fill="#FFBA57"/>
<path d="M24.2524 22.6698L25.724 21.943V17.8306H22.7808V21.943L24.2524 22.6698Z" fill="#FFBA57"/>
<path d="M9.78723 21.943H12.7305V23.3729H9.78723V21.943Z" fill="#FFAC3E"/>
<path d="M22.7808 21.943H25.724V23.3729H22.7808V21.943Z" fill="#FFAC3E"/>
<path d="M31.494 33.7545H7.50288C6.4967 33.7545 6.4967 32.0216 6.4967 32.0216V29.9215C6.4967 29.3658 6.94717 28.9153 7.50288 28.9153H11.53L13.0016 29.6184L14.4733 28.9153H24.5235L25.9951 29.6184L27.4668 28.9153H31.4939C32.0496 28.9153 32.5001 29.3658 32.5001 29.9215V32.0216C32.5001 32.0216 32.5001 33.7545 31.494 33.7545Z" fill="#FFE27A"/>
<path d="M31.494 33.0278H7.50288C6.94717 33.0278 6.4967 32.5773 6.4967 32.0216V33.4515C6.4967 34.0072 6.94717 34.4577 7.50288 34.4577H11.53L13.0016 33.7546L14.4733 34.4577H24.5235L25.9951 33.7546L27.4668 34.4577H31.494C32.0497 34.4577 32.5001 34.0072 32.5001 33.4515V32.0216C32.5001 32.5773 32.0497 33.0278 31.494 33.0278Z" fill="#F9CF58"/>
<path d="M13.0017 33.7545L11.53 33.0278V28.9153H14.4733V33.0278L13.0017 33.7545Z" fill="#FFBA57"/>
<path d="M25.9952 33.7545L27.4668 33.0278V28.9153H24.5236V33.0278L25.9952 33.7545Z" fill="#FFBA57"/>
<path d="M11.53 33.0278H14.4733V34.4578H11.53V33.0278Z" fill="#FFAC3E"/>
<path d="M24.5236 33.0278H27.4668V34.4578H24.5236V33.0278Z" fill="#FFAC3E"/>
<path d="M24.9973 28.2121H1.00617C-1.49012e-07 28.2121 0 26.4791 0 26.4791V24.379C0 23.8233 0.450469 23.3728 1.00617 23.3728H5.03328L6.50492 24.0759L7.97656 23.3728H18.0268L19.4984 24.0759L20.9701 23.3728H24.9972C25.5529 23.3728 26.0034 23.8233 26.0034 24.379V26.4791C26.0034 26.4791 26.0034 28.2121 24.9973 28.2121Z" fill="#E8834D"/>
<path d="M24.9973 27.4853H1.00617C0.450469 27.4853 0 27.0348 0 26.4791V27.909C0 28.4647 0.450469 28.9152 1.00617 28.9152H5.03328L6.50492 28.2121L7.97656 28.9152H18.0268L19.4984 28.2121L20.9701 28.9152H24.9973C25.553 28.9152 26.0034 28.4647 26.0034 27.909V26.4791C26.0034 27.0348 25.5529 27.4853 24.9973 27.4853Z" fill="#D66E41"/>
<path d="M6.50497 28.2121L5.03333 27.4853V23.3728H7.97661V27.4853L6.50497 28.2121Z" fill="#FFBA57"/>
<path d="M19.4985 28.2121L20.9701 27.4853V23.3728H18.0269V27.4853L19.4985 28.2121Z" fill="#FFBA57"/>
<path d="M5.03333 27.4854H7.97661V28.9153H5.03333V27.4854Z" fill="#FFAC3E"/>
<path d="M18.0269 27.4854H20.9701V28.9153H18.0269V27.4854Z" fill="#FFAC3E"/>
<path d="M24.9973 39.2969H1.00617C-1.49012e-07 39.2969 0 37.564 0 37.564V35.4638C0 34.9081 0.450469 34.4576 1.00617 34.4576H5.03328L6.50492 35.1608L7.97656 34.4576H18.0268L19.4984 35.1608L20.9701 34.4576H24.9972C25.5529 34.4576 26.0034 34.9081 26.0034 35.4638V37.564C26.0034 37.564 26.0034 39.2969 24.9973 39.2969Z" fill="#E8834D"/>
<path d="M24.9973 38.5701H1.00617C0.450469 38.5701 0 38.1197 0 37.564V38.9939C0 39.5496 0.450469 40.0001 1.00617 40.0001H5.03328L6.50492 39.2969L7.97656 40.0001H18.0268L19.4984 39.2969L20.9701 40.0001H24.9973C25.553 40.0001 26.0034 39.5496 26.0034 38.9939V37.564C26.0034 38.1197 25.5529 38.5701 24.9973 38.5701Z" fill="#D66E41"/>
<path d="M6.50497 39.2969L5.03333 38.5701V34.4576H7.97661V38.5701L6.50497 39.2969Z" fill="#FFBA57"/>
<path d="M19.4985 39.2969L20.9701 38.5701V34.4576H18.0269V38.5701L19.4985 39.2969Z" fill="#FFBA57"/>
<path d="M5.03333 38.5702H7.97661V40.0001H5.03333V38.5702Z" fill="#FFAC3E"/>
<path d="M18.0269 38.5702H20.9701V40.0001H18.0269V38.5702Z" fill="#FFAC3E"/>
</svg>
