<svg width="155" height="125" viewBox="0 0 155 125" fill="none"
    xmlns="http://www.w3.org/2000/svg">
    <g clip-path="url(#clip0_57_1939)">
        <path d="M88.3668 110.449C87.296 108.95 85.8466 107.853 84.0243 107.442C82.4353 107.084 80.8014 107.145 79.1862 107.158L58.7624 107.315C57.0132 107.329 55.3361 108.844 55.4174 110.66C55.498 112.461 56.8875 114.02 58.7624 114.005C64.7452 113.959 70.7279 113.913 76.7106 113.867C78.1211 113.856 79.5324 113.83 80.9429 113.835C81.2597 113.836 81.5751 113.853 81.8916 113.856C81.9682 113.857 82.0235 113.857 82.0626 113.855C82.0724 113.858 82.0807 113.861 82.0935 113.864C82.2585 113.909 82.4279 113.941 82.594 113.984C82.5358 113.986 82.7017 114.089 82.785 114.124C82.7964 114.147 82.8208 114.187 82.8615 114.248C82.9184 114.355 83.0867 114.679 83.0936 114.669C83.3465 115.308 83.5552 115.964 83.7181 116.632C84.1068 118.106 84.1922 118.414 84.2482 119.796C84.3189 121.542 85.7361 123.224 87.5932 123.141C89.3449 123.062 91.014 121.669 90.9382 119.796C90.8104 116.64 90.2565 113.096 88.3668 110.449Z" fill="#E6E6E6"/>
        <path d="M59.963 117.997C59.5794 115.673 59.2031 113.347 58.8121 111.023C58.4153 108.666 57.6048 106.508 55.7706 104.961C55.2806 104.548 54.7724 104.162 54.2621 103.777C54.0826 103.642 53.9035 103.506 53.7262 103.368C53.7155 103.36 53.7088 103.355 53.6996 103.348C53.6801 103.331 53.6567 103.311 53.6253 103.284C52.8608 102.637 52.1221 101.962 51.4185 101.243C50.7937 100.605 50.1961 99.9401 49.6259 99.2477C49.4833 99.0748 49.3427 98.9003 49.2038 98.7243C49.18 98.694 49.0513 98.5278 48.9666 98.4193C48.8878 98.3108 48.7438 98.1147 48.7196 98.0805C48.5574 97.8511 48.3981 97.6196 48.2416 97.386C47.1762 95.7898 46.2537 94.1027 45.4847 92.3443C45.4085 92.17 45.334 91.9946 45.2614 91.8181C45.2419 91.7643 45.2167 91.6951 45.1832 91.6031C45.0282 91.1769 44.8736 90.7513 44.7319 90.3201C44.4308 89.4043 44.172 88.4749 43.9554 87.532C43.8484 87.0664 43.752 86.5985 43.6663 86.1282C43.622 85.8863 43.5807 85.644 43.5422 85.4011C43.5359 85.3608 43.4983 85.0988 43.4762 84.9507C43.4598 84.8019 43.4294 84.5385 43.4253 84.4978C43.4008 84.253 43.3791 84.008 43.3601 83.7627C43.3173 83.2108 43.2884 82.6579 43.2734 82.1041C43.2476 81.1199 43.2653 80.1358 43.3262 79.1518C43.3609 78.5989 43.4103 78.0474 43.4712 77.497C43.4749 77.4632 43.4777 77.4363 43.4804 77.412C43.484 77.3875 43.4883 77.3595 43.4934 77.3248C43.5385 77.0206 43.5858 76.7168 43.6388 76.414C43.8394 75.2643 44.1004 74.1259 44.4205 73.0035C44.5721 72.4727 44.7368 71.9462 44.9145 71.4239C44.9937 71.1921 45.0755 70.9612 45.1597 70.7312C45.1542 70.746 45.4069 70.1007 45.4102 70.079C46.4127 67.7105 48.0523 65.5513 48.0545 62.8608C48.0561 61.0392 46.5149 59.2942 44.7095 59.3784C43.8094 59.4123 42.9576 59.7943 42.3336 60.4439C41.7096 61.0935 41.3622 61.9601 41.3645 62.8608C41.3645 62.9017 41.3643 62.9366 41.3642 62.9705C41.3474 63.0272 41.3333 63.0745 41.3206 63.1164C41.1252 63.5412 40.8857 63.9449 40.6711 64.3591C40.0835 65.493 39.582 66.664 39.1056 67.8522C38.3256 69.7872 37.7287 71.791 37.3224 73.8373C36.4394 78.3209 36.3709 82.9269 37.1201 87.4348C38.417 95.34 42.694 102.907 48.6401 107.994C49.1561 108.435 49.6847 108.862 50.2182 109.28C50.439 109.453 50.6617 109.622 50.8854 109.791C50.9912 109.871 51.4293 110.216 51.2366 110.049C51.6511 110.403 51.8255 110.581 51.932 110.841C51.9474 110.901 51.9684 110.983 51.9969 111.094C52.0719 111.388 52.1432 111.681 52.2024 111.979C52.7199 114.582 53.0797 117.229 53.512 119.849C53.8092 121.649 56.0253 122.821 57.6268 122.281C59.4908 121.653 60.2814 119.926 59.963 117.997Z" fill="#E6E6E6"/>
        <path d="M88.7048 124.749C87.3 124.753 85.9511 124.199 84.954 123.21C83.957 122.22 83.3932 120.875 83.3863 119.47V115.655C79.3913 116.102 65.7115 115.998 61.7902 115.368V119.318C61.7797 120.721 61.2147 122.064 60.2184 123.053C59.2221 124.042 57.8753 124.597 56.4716 124.597C55.0679 124.597 53.7211 124.042 52.7248 123.053C51.7285 122.064 51.1636 120.721 51.153 119.318V111.563C45.842 108.613 41.4144 104.298 38.3273 99.0656C35.2403 93.8327 33.6055 87.8708 33.5918 81.7952C33.5918 71.3776 38.3131 61.6595 46.545 55.1327C51.8974 50.8747 58.4004 48.3139 65.219 47.7793C66.1445 47.7067 67.0756 47.6699 67.9867 47.6699C71.1963 47.6699 85.6773 48.1657 89.3106 49.2111L97.5953 40.9904C97.7171 40.8679 97.8726 40.7844 98.0421 40.7506C98.2115 40.7169 98.3871 40.7343 98.5465 40.8008C98.7072 40.8647 98.8448 40.9757 98.9412 41.1192C99.0377 41.2628 99.0884 41.4321 99.0869 41.605V42.912L100.7 41.3144C100.822 41.1917 100.977 41.1082 101.146 41.0743C101.316 41.0405 101.491 41.058 101.651 41.1245C101.811 41.1884 101.949 41.2994 102.046 41.443C102.142 41.5866 102.193 41.756 102.191 41.929V56.5351C106.349 60.2828 109.517 64.9982 111.416 70.2633C113.315 75.5284 113.886 81.1806 113.078 86.7191C112.27 92.2576 110.109 97.5113 106.785 102.015C103.461 106.518 99.0778 110.132 94.0233 112.536V119.47C94.0165 120.875 93.4526 122.22 92.4556 123.21C91.4585 124.199 90.1096 124.753 88.7048 124.749ZM83.8044 115.181V119.47C83.8149 120.763 84.3359 121.999 85.2537 122.91C86.1716 123.82 87.412 124.331 88.7048 124.331C89.9976 124.331 91.238 123.82 92.1559 122.91C93.0737 121.999 93.5947 120.763 93.6052 119.47V112.272L93.7246 112.215C99.396 109.524 104.211 105.314 107.634 100.052C111.996 93.3368 113.81 85.2822 112.748 77.3458C111.685 69.4093 107.817 62.1153 101.843 56.784L101.773 56.7216V41.929C101.775 41.8391 101.749 41.7509 101.699 41.6763C101.648 41.6017 101.577 41.5443 101.493 41.5118C101.41 41.4762 101.317 41.4666 101.229 41.4842C101.14 41.5019 101.058 41.5459 100.995 41.6107L98.6687 43.9147V41.605C98.6702 41.5151 98.6441 41.4269 98.594 41.3523C98.5438 41.2777 98.472 41.2203 98.3882 41.1878C98.3047 41.1522 98.2124 41.1427 98.1235 41.1605C98.0345 41.1783 97.9529 41.2225 97.8895 41.2874L89.4275 49.6841L89.3072 49.6464C85.9296 48.5893 71.2207 48.0881 67.9867 48.0881C67.0865 48.0881 66.1663 48.1244 65.2518 48.1962C58.5161 48.7242 52.0921 51.2539 46.8048 55.4603C38.6735 61.9073 34.0099 71.506 34.0099 81.7952C34.0238 87.817 35.6498 93.7253 38.719 98.9063C41.7882 104.087 46.1887 108.352 51.4633 111.257L51.5711 111.317V119.318C51.5819 120.61 52.103 121.846 53.0208 122.757C53.9387 123.667 55.179 124.178 56.4716 124.178C57.7643 124.178 59.0046 123.667 59.9224 122.757C60.8402 121.846 61.3613 120.61 61.3721 119.318V114.868L61.6198 114.914C65.1437 115.577 79.9821 115.682 83.5681 115.211L83.8044 115.181Z" fill="#5588A3"/>
        <path d="M60.3625 24.903L37.2109 31.8606C36.4745 32.0828 35.8564 32.5882 35.4925 33.2658C35.1285 33.9434 35.0484 34.7378 35.2698 35.4744C35.4911 36.211 35.9958 36.8296 36.673 37.1944C37.3502 37.5591 38.1445 37.6401 38.8813 37.4196L59.1415 31.3296L59.566 31.202C59.6519 29.015 60.2452 26.8778 61.2991 24.9595C61.1668 24.8999 61.0255 24.8632 60.881 24.8507C60.7064 24.8338 60.5302 24.8516 60.3625 24.903Z" fill="#5588A3"/>
        <path d="M38.481 38.9029C38.1737 38.9022 37.8744 38.8049 37.6254 38.6247C37.3764 38.4446 37.1902 38.1908 37.0933 37.8992L35.6456 33.5306C35.5851 33.3482 35.5612 33.1556 35.5752 32.9639C35.5891 32.7722 35.6407 32.5852 35.727 32.4134C35.8132 32.2417 35.9325 32.0886 36.0779 31.963C36.2233 31.8373 36.3921 31.7415 36.5745 31.6811L55.4176 25.4364C55.6 25.3759 55.7925 25.3519 55.9842 25.3659C56.1759 25.3798 56.3629 25.4314 56.5347 25.5176C56.7064 25.6039 56.8595 25.7231 56.9852 25.8685C57.1108 26.0139 57.2066 26.1826 57.2671 26.365L58.7148 30.7336C58.8353 31.0929 58.8111 31.485 58.6475 31.8268C58.4839 32.1686 58.1936 32.4333 57.8382 32.5648C57.8208 32.5713 57.8032 32.5775 57.7855 32.5833L38.9428 38.8278C38.7939 38.8774 38.638 38.9028 38.481 38.9029Z" fill="#2F2E41"/>
        <path d="M73.7696 17.1447C69.9665 17.1462 66.3133 18.6274 63.5831 21.2749C60.8528 23.9224 59.2599 27.5284 59.1415 31.3296C59.1373 31.478 59.1353 31.6286 59.1353 31.7791C59.1353 34.6735 59.9935 37.5029 61.6016 39.9095C63.2096 42.3161 65.4952 44.1919 68.1693 45.2995C70.8434 46.4071 73.7859 46.6969 76.6246 46.1323C79.4634 45.5676 82.071 44.1738 84.1177 42.1272C86.1643 40.0805 87.5581 37.4729 88.1228 34.6341C88.6875 31.7953 88.3976 28.8528 87.29 26.1788C86.1824 23.5047 84.3066 21.2191 81.9 19.6111C79.4934 18.003 76.664 17.1447 73.7696 17.1447ZM73.7696 45.9953C70.0004 45.9914 66.3868 44.4924 63.7216 41.8272C61.0563 39.162 59.5573 35.5483 59.5534 31.7791C59.5534 31.5847 59.5576 31.3923 59.5659 31.2021C59.6791 28.4173 60.6084 25.7273 62.2382 23.4664C63.868 21.2056 66.1264 19.4737 68.7326 18.4861C71.3388 17.4985 74.1779 17.2988 76.8967 17.9118C79.6155 18.5248 82.0941 19.9234 84.0244 21.9338C85.9547 23.9442 87.2514 26.4777 87.7534 29.2191C88.2553 31.9606 87.9404 34.7892 86.8477 37.3531C85.755 39.917 83.9327 42.1031 81.6075 43.6397C79.2823 45.1763 76.5567 45.9954 73.7696 45.9953Z" fill="#5588A3"/>
        <path d="M86.1039 31.779C86.1039 35.0504 84.8044 38.1878 82.4912 40.501C80.178 42.8142 77.0406 44.1137 73.7693 44.1137C70.4979 44.1137 67.3605 42.8142 65.0473 40.501C62.7341 38.1878 61.4346 35.0504 61.4346 31.779C61.4346 31.3881 61.4534 31.0034 61.4889 30.6229C61.7861 27.4657 63.2879 24.5443 65.6825 22.4652C68.077 20.3862 71.1803 19.3092 74.348 19.458C77.5156 19.6068 80.5043 20.9699 82.6934 23.2642C84.8826 25.5586 86.1039 28.6079 86.1039 31.779Z" fill="#E6E6E6"/>
        <path d="M77.4425 32.5986C77.1435 32.2055 76.7502 31.8941 76.299 31.6933C75.7424 31.4588 75.1677 31.27 74.5804 31.1289V27.7713C75.4831 27.9074 76.3296 28.2934 77.0243 28.8856L77.7059 27.4327C77.3139 27.0834 76.8639 26.8054 76.3762 26.611C75.8357 26.3922 75.2683 26.2466 74.6891 26.1783V24.4765H73.1108V26.195C72.5013 26.2635 71.9133 26.4609 71.386 26.7741C70.9096 27.056 70.5086 27.4491 70.2173 27.9198C69.9392 28.3791 69.7951 28.907 69.8013 29.4438C69.7741 30.0256 69.9427 30.5997 70.28 31.0745C70.5905 31.4856 71.0006 31.8108 71.4716 32.0195C72.0371 32.261 72.6217 32.4547 73.2195 32.5986V35.8161C72.1543 35.7357 71.1393 35.3307 70.3114 34.6558L69.6299 36.1108C70.0928 36.4936 70.6192 36.7922 71.1853 36.9931C71.8055 37.215 72.4535 37.3501 73.1108 37.3945V39.0816H74.6891V37.3631C75.5659 37.2673 76.388 36.8903 77.0327 36.2885C77.3166 36.0163 77.5409 35.688 77.6914 35.3245C77.8418 34.961 77.9151 34.5703 77.9066 34.177C77.9329 33.6138 77.7694 33.058 77.4425 32.5986ZM73.2195 30.7735C72.835 30.6569 72.4775 30.465 72.1678 30.209C72.0451 30.0998 71.9482 29.9649 71.8838 29.8138C71.8195 29.6627 71.7894 29.4992 71.7957 29.3351C71.7843 28.9628 71.9212 28.6011 72.1762 28.3295C72.459 28.0446 72.8237 27.8553 73.2195 27.7881V30.7735ZM75.5714 35.2223C75.3047 35.4958 74.9574 35.6768 74.5804 35.7387V32.9707C74.9408 33.0674 75.2779 33.2359 75.5714 33.4662C75.6827 33.5612 75.7711 33.6801 75.8301 33.8141C75.8891 33.948 75.9171 34.0935 75.9122 34.2397C75.9267 34.5985 75.805 34.9495 75.5714 35.2223Z" fill="#5588A3"/>
        <path d="M39.1527 56.6082C38.8295 56.6077 38.5155 56.5005 38.2594 56.3034C38.0034 56.1062 37.8195 55.8301 37.7363 55.5178L36.9481 52.5344C36.8494 52.1595 36.9035 51.7607 37.0985 51.4255C37.2935 51.0904 37.6135 50.8463 37.9882 50.7467L62.8542 44.1759C63.2295 44.078 63.6282 44.1327 63.9632 44.328C64.2982 44.5233 64.5423 44.8434 64.6419 45.2182L65.3096 47.7457L65.1845 47.7554C58.8072 48.2513 52.7053 50.5635 47.6008 54.4185L47.5646 54.436L39.524 56.56C39.4028 56.592 39.278 56.6082 39.1527 56.6082Z" fill="#2F2E41"/>
        <path d="M35.0344 71.3442C32.1175 70.9133 29.3278 69.8585 26.8554 68.2517C25.6306 67.4563 24.4967 66.5289 23.4741 65.4862C22.4647 64.4567 21.4992 63.2866 20.9992 61.9156C20.5182 60.6471 20.543 59.2423 21.0685 57.9916C21.5868 56.7486 22.5768 55.7618 23.8216 55.2475C25.0738 54.7482 26.5867 54.6948 27.8054 55.2417C28.3861 55.4962 28.8886 55.9007 29.2613 56.4136C29.4346 56.6501 29.5629 56.9164 29.6398 57.1993C29.7112 57.4557 29.7177 57.7257 29.6587 57.9852C29.5872 58.2443 29.4612 58.485 29.2891 58.6914C29.1169 58.8977 28.9027 59.0649 28.6606 59.1817C28.128 59.4549 27.5508 59.631 26.9563 59.7015C26.3584 59.783 25.4995 59.8572 25.0188 59.3772C24.9198 59.2822 24.842 59.1675 24.7903 59.0404C24.7542 58.9432 24.7418 58.8386 24.7543 58.7356C24.7473 58.781 24.7833 58.6369 24.7812 58.6426C24.7736 58.6639 24.7407 58.7159 24.7875 58.6361C24.8021 58.6098 24.8184 58.5844 24.8363 58.5602C24.8204 58.5807 24.7855 58.615 24.8478 58.5562C24.8993 58.4998 24.9655 58.4589 25.0389 58.4382C25.0679 58.4297 25.0972 58.423 25.1262 58.4151C25.2 58.395 25.0527 58.4162 25.1282 58.4138C25.1573 58.4129 25.1868 58.4136 25.2158 58.4123C25.2898 58.4089 25.1428 58.3921 25.2137 58.4099C25.2412 58.4168 25.2685 58.4236 25.2956 58.4321C25.3546 58.4507 25.2539 58.3889 25.2938 58.4352C25.3407 58.4894 25.2447 58.3824 25.2979 58.4349C25.3244 58.4609 25.3493 58.4885 25.3727 58.5174C25.465 58.6085 25.5895 58.6596 25.7192 58.6596C25.8489 58.6596 25.9734 58.6085 26.0657 58.5174C26.1549 58.424 26.2046 58.2999 26.2046 58.1708C26.2046 58.0418 26.1549 57.9176 26.0657 57.8243C25.5825 57.2253 24.628 57.3733 24.1391 57.8796C23.5157 58.5253 23.7626 59.5486 24.369 60.112C25.0555 60.7498 26.0278 60.7941 26.9109 60.6871C27.6572 60.6156 28.3844 60.4101 29.0578 60.0804C29.7268 59.7517 30.2501 59.1864 30.5262 58.494C30.6509 58.1245 30.6957 57.7327 30.6576 57.3446C30.6195 56.9565 30.4995 56.5809 30.3054 56.2426C29.5257 54.7769 27.9113 54.0254 26.3155 53.8952C25.494 53.8309 24.6678 53.9301 23.8848 54.1871C23.1018 54.4441 22.3776 54.8539 21.7541 55.3927C20.5522 56.4747 19.812 57.9773 19.6868 59.5896C19.5475 61.2613 20.1961 62.8847 21.1417 64.2338C22.1317 65.6045 23.313 66.8262 24.6497 67.8617C27.2628 69.948 30.328 71.3936 33.6 72.0828C33.9892 72.1632 34.3805 72.232 34.7739 72.2893C34.899 72.3196 35.0311 72.3011 35.1431 72.2375C35.2551 72.1739 35.3386 72.0701 35.3767 71.947C35.4103 71.8217 35.3932 71.6882 35.3292 71.5754C35.2651 71.4626 35.1592 71.3796 35.0344 71.3442Z" fill="#5588A3"/>
        <path d="M81.7362 50.0458C77.4625 49.9855 73.2023 50.0939 68.9555 50.3712C67.504 50.466 66.248 50.979 66.248 51.8413C66.248 52.5623 67.494 53.4069 68.9555 53.3114C73.2001 53.0343 77.4603 52.9258 81.7362 52.9861C85.222 53.0353 85.22 50.095 81.7362 50.0458Z" fill="#CCCCCC"/>
        <path d="M75.4194 52.8404C74.9575 52.8404 64.1079 52.8232 64.1079 51.3245C64.1079 49.8259 74.9575 49.8087 75.4194 49.8087C75.8812 49.8087 86.7308 49.8259 86.7308 51.3245C86.7308 52.8232 75.8812 52.8404 75.4194 52.8404ZM64.5322 51.3245C64.8291 51.7789 68.8172 52.4223 75.4194 52.4223C82.0216 52.4223 86.0096 51.7789 86.3066 51.3245C86.0097 50.8702 82.0216 50.2268 75.4194 50.2268C68.8172 50.2268 64.8291 50.8702 64.5322 51.3245Z" fill="#5588A3"/>
        <path d="M109.842 92.2382C112.244 92.1715 115.233 92.0882 117.536 90.406C118.222 89.8846 118.785 89.2195 119.187 88.4573C119.588 87.6952 119.818 86.8545 119.861 85.9941C119.908 84.6656 119.428 83.5059 118.509 82.7298C117.306 81.7134 115.55 81.475 113.657 82.0313L115.618 67.7005L114.179 67.5032L111.874 84.3509L113.076 83.7993C114.469 83.1601 116.382 82.8347 117.571 83.8394C117.863 84.102 118.091 84.4285 118.236 84.7933C118.381 85.1581 118.44 85.5516 118.409 85.943C118.374 86.5834 118.201 87.2086 117.902 87.7763C117.604 88.3439 117.186 88.8406 116.679 89.2325C114.887 90.5415 112.504 90.7104 109.802 90.7859L109.842 92.2382Z" fill="#5588A3"/>
        <path d="M105.862 68.9364H98.0366V70.3894H105.862V68.9364Z" fill="#5588A3"/>
        <path d="M42.6938 63.291C42.3455 63.2899 42.0089 63.1648 41.7445 62.9381C41.48 62.7114 41.3049 62.398 41.2505 62.0539L40.7728 59.0055C40.7131 58.6221 40.808 58.2306 41.0366 57.9171C41.2652 57.6036 41.6088 57.3935 41.9921 57.3331L67.3997 53.352C67.7831 53.2923 68.1745 53.3872 68.488 53.6158C68.8015 53.8444 69.0116 54.188 69.072 54.5712L69.5497 57.6198C69.6093 58.0032 69.5145 58.3946 69.2859 58.7081C69.0573 59.0217 68.7137 59.2317 68.3305 59.2922L42.9228 63.2732C42.8471 63.285 42.7705 63.291 42.6938 63.291Z" fill="#2F2E41"/>
        <path d="M32.1788 27.5659C38.0674 27.5659 42.841 22.7922 42.841 16.9037C42.841 11.0151 38.0674 6.2415 32.1788 6.2415C26.2902 6.2415 21.5166 11.0151 21.5166 16.9037C21.5166 22.7922 26.2902 27.5659 32.1788 27.5659Z" fill="#5588A3"/>
        <path d="M38.2156 19.6624C38.5564 19.5433 38.8677 19.3525 39.1286 19.103C39.3012 18.9251 39.4328 18.7116 39.5142 18.4774C39.5957 18.2433 39.6249 17.9942 39.6 17.7476C39.5855 17.5718 39.5305 17.4018 39.4394 17.2508C39.3483 17.0998 39.2235 16.9719 39.0748 16.8771C38.6889 16.6398 38.179 16.6487 37.6643 16.8874L37.6048 12.7254L37.1868 12.7313L37.2566 17.6242L37.5749 17.4154C37.9439 17.1738 38.4742 16.9986 38.8557 17.2332C38.9501 17.2954 39.0288 17.3784 39.0859 17.4759C39.1429 17.5734 39.1767 17.6828 39.1845 17.7955C39.2021 17.9792 39.1799 18.1646 39.1195 18.339C39.059 18.5134 38.9617 18.6727 38.8341 18.806C38.3809 19.2558 37.71 19.4064 36.9443 19.5443L37.0184 19.9557C37.4255 19.8939 37.8261 19.7958 38.2156 19.6624Z" fill="#2F2E41"/>
        <path d="M41.9102 12.4333L39.6836 12.7705L39.7462 13.1838L41.9728 12.8466L41.9102 12.4333Z" fill="#2F2E41"/>
        <path d="M34.8823 13.4974L32.6558 13.8346L32.7184 14.2479L34.9449 13.9107L34.8823 13.4974Z" fill="#2F2E41"/>
        <path d="M39.2249 63.1046C38.8415 63.1038 38.4674 62.9863 38.1524 62.7676C37.8374 62.5489 37.5965 62.2396 37.4616 61.8806L30.1103 42.1934C29.2118 39.7789 29.3078 37.1066 30.3771 34.7627C31.4465 32.4189 33.4019 30.5949 35.8144 29.691L41.7919 27.459C42.023 27.3721 42.2691 27.3318 42.5158 27.3404C42.7626 27.3489 43.0053 27.4062 43.2298 27.5089C43.4538 27.609 43.6556 27.7527 43.8235 27.9317C43.9913 28.1107 44.1218 28.3213 44.2073 28.5513L57.8249 54.2626C57.9133 54.4944 57.955 54.7415 57.9475 54.9895C57.9401 55.2375 57.8837 55.4816 57.7815 55.7077C57.6794 55.9339 57.5336 56.1376 57.3524 56.3071C57.1712 56.4767 56.9583 56.6087 56.7259 56.6957L39.8825 62.9851C39.6722 63.064 39.4495 63.1045 39.2249 63.1046Z" fill="#2F2E41"/>
        <path d="M39.9785 28.1361L53.49 46.2045L44.3474 28.3258C44.2719 28.1172 44.156 27.9255 44.0064 27.7617C43.8568 27.5978 43.6764 27.4651 43.4755 27.371C43.2745 27.2769 43.0571 27.2234 42.8354 27.2134C42.6138 27.2033 42.3924 27.2371 42.1838 27.3127L39.9785 28.1361Z" fill="#E6E6E6"/>
        <path d="M61.3722 41.858L37.2474 40.304C36.8671 40.2795 36.4954 40.1804 36.1535 40.0122C35.8115 39.8441 35.506 39.6102 35.2545 39.324C35.0029 39.0378 34.8102 38.7048 34.6873 38.3442C34.5644 37.9835 34.5137 37.6021 34.5382 37.2218C34.5627 36.8416 34.6619 36.4698 34.83 36.1279C34.9982 35.786 35.232 35.4805 35.5182 35.2289C35.8044 34.9773 36.1374 34.7846 36.4981 34.6617C36.8588 34.5388 37.2401 34.4882 37.6204 34.5127L61.7452 36.0665C61.9233 36.078 62.0974 36.1244 62.2576 36.2032C62.4177 36.2819 62.5608 36.3914 62.6786 36.5254C62.7964 36.6595 62.8867 36.8154 62.9442 36.9843C63.0018 37.1532 63.0255 37.3318 63.014 37.5099L62.8157 40.5893C62.7925 40.9489 62.6274 41.2846 62.3567 41.5226C62.086 41.7605 61.7319 41.8811 61.3722 41.858Z" fill="#5588A3"/>
        <path d="M54.9256 42.8542C54.8937 42.8542 54.8618 42.8531 54.8298 42.8511L35.0198 41.5751C34.828 41.5628 34.6405 41.5128 34.4681 41.428C34.2956 41.3432 34.1415 41.2253 34.0146 41.0809C33.8878 40.9366 33.7906 40.7686 33.7286 40.5867C33.6666 40.4048 33.6411 40.2125 33.6534 40.0207L33.9922 34.7611C34.0045 34.5693 34.0545 34.3818 34.1394 34.2093C34.2242 34.0369 34.3421 33.8828 34.4865 33.756C34.6308 33.6291 34.7988 33.5319 34.9807 33.4699C35.1626 33.408 35.355 33.3824 35.5468 33.3948L55.3567 34.6707C55.7438 34.6961 56.1051 34.874 56.3612 35.1654C56.6174 35.4568 56.7475 35.8379 56.723 36.2251L56.3843 41.4848C56.3656 41.7667 56.266 42.0371 56.0974 42.2637C55.9288 42.4904 55.6984 42.6635 55.4338 42.7624C55.2713 42.8232 55.0991 42.8543 54.9256 42.8542Z" fill="#2F2E41"/>
        <path d="M32.0569 9.8135C33.4596 8.60714 35.3857 9.68631 36.9943 9.4974C38.5332 9.31665 39.7484 7.93622 40.0588 6.46968C40.421 4.75871 39.5329 3.04457 38.224 1.97781C36.7903 0.809451 34.889 0.474042 33.0872 0.690198C31.0222 0.937937 29.1336 1.90053 27.439 3.06484C25.8033 4.15387 24.2991 5.42851 22.9564 6.86333C21.754 8.19123 20.7353 9.77404 20.41 11.5609C20.1144 13.1848 20.3401 14.9843 21.3001 16.36C21.8092 17.0651 22.4913 17.6271 23.2808 17.9918C24.104 18.396 24.9821 18.6849 25.7796 19.142C26.9854 19.833 28.1573 21.2658 27.7796 22.7568C27.6986 23.0826 27.5388 23.3834 27.3142 23.6328C27.0444 23.9323 26.5577 23.5365 26.8282 23.2362C27.3034 22.7087 27.2847 22.0053 27.0315 21.3755C26.7303 20.6659 26.1971 20.0795 25.5192 19.7126C24.6844 19.2353 23.7628 18.9407 22.9072 18.5059C22.0882 18.1088 21.3774 17.5197 20.8351 16.7887C19.811 15.3657 19.5047 13.5136 19.737 11.8003C19.9883 9.94625 20.9409 8.26146 22.1351 6.84961C23.4346 5.31312 25.031 4.01252 26.6618 2.84411C28.4116 1.59039 30.3449 0.530463 32.4842 0.147104C34.3386 -0.18521 36.3486 0.0193834 37.9703 1.02996C39.4839 1.97327 40.6446 3.59594 40.7601 5.40913C40.8015 6.23412 40.6224 7.05526 40.2411 7.78803C39.8598 8.5208 39.2902 9.13874 38.5908 9.57826C37.8731 10.0077 37.0388 10.201 36.2054 10.1309C35.3145 10.0739 34.4227 9.80103 33.526 9.87677C33.1203 9.9014 32.7336 10.0576 32.4247 10.3218C32.1182 10.5853 31.753 10.0749 32.0569 9.8135Z" fill="#2F2E41"/>
        <path d="M154.751 124.847H0.401528C0.335633 124.847 0.272504 124.82 0.225977 124.774C0.179449 124.727 0.15332 124.664 0.15332 124.598C0.15332 124.532 0.179449 124.469 0.225977 124.422C0.272504 124.376 0.335633 124.349 0.401528 124.349H154.751C154.817 124.349 154.88 124.375 154.927 124.422C154.974 124.469 155 124.532 155 124.598C155 124.664 154.974 124.727 154.927 124.774C154.88 124.821 154.817 124.847 154.751 124.847Z" fill="#5588A3"/>
    </g>
    <defs>
        <clipPath id="clip0_57_1939">
            <rect width="154.847" height="124.847" fill="white" transform="translate(0.152832)"/>
        </clipPath>
    </defs>
</svg>
