<svg width="99" height="98" viewBox="0 0 99 98" fill="none" xmlns="http://www.w3.org/2000/svg">
<path d="M83.8348 90.4632L85.1104 89.4227L83.882 88.05L89.197 83.8877L90.4254 85.2604L93.8506 89.0906C94.0377 89.3023 94.1278 89.5748 94.1013 89.8486C94.0747 90.1224 93.9336 90.3752 93.7088 90.5518L85.6773 96.8395C85.5962 96.9071 85.5013 96.9586 85.3984 96.9908C85.2954 97.0231 85.1865 97.0355 85.0784 97.0272C84.9702 97.0189 84.8649 96.9902 84.7689 96.9427C84.6729 96.8952 84.5882 96.83 84.5198 96.751C82.5356 94.5148 81.4489 92.3451 83.8348 90.4632Z" fill="#FFC800"/>
<path d="M50.0317 36.2648L49.8191 36.2206L45.2364 34.0287L40.6537 31.859C40.5488 31.799 40.4714 31.7046 40.4365 31.5942C40.4015 31.4838 40.4116 31.3651 40.4647 31.2612C40.4923 31.2086 40.5308 31.1617 40.578 31.1232C40.6251 31.0846 40.6799 31.0552 40.7392 31.0367C40.7985 31.0182 40.8612 31.0109 40.9236 31.0152C40.9859 31.0195 41.0468 31.0354 41.1025 31.062L45.6616 33.2538C47.197 33.9623 48.8033 34.7151 50.2443 35.4235C50.3004 35.4494 50.3505 35.4855 50.3916 35.5296C50.4327 35.5738 50.4641 35.6252 50.4839 35.6808C50.5036 35.7364 50.5114 35.7951 50.5068 35.8536C50.5022 35.912 50.4852 35.969 50.4569 36.0213C50.4152 36.0935 50.354 36.154 50.2793 36.1967C50.2046 36.2395 50.1192 36.263 50.0317 36.2648Z" fill="#FCFCFC"/>
<path d="M54.5435 45.3204H66.9451V70.6706H63.6853C61.2607 70.6706 58.9354 69.7678 57.221 68.161C55.5066 66.5542 54.5435 64.3748 54.5435 62.1024V45.3204Z" fill="#FCFCFC"/>
<path d="M68.6221 32.6561L62.7165 37.1505L57.7559 67.7479L71.5984 69.7183L75.7323 44.1689C76.6772 38.3018 74.8819 33.5417 68.6221 32.6561Z" fill="#FCFCFC"/>
<path d="M47.6953 35.8218L55.3308 33.0891C55.998 32.8503 56.7391 32.8696 57.3911 33.143C58.043 33.4163 58.5524 33.9212 58.8072 34.5465L63.6021 46.3153C63.7385 46.6499 63.7274 47.0216 63.5713 47.3485C63.4153 47.6755 63.1271 47.931 62.77 48.0587L53.8987 51.2338C53.6471 51.3239 53.3675 51.3165 53.1216 51.2134C52.8757 51.1103 52.6835 50.9199 52.5874 50.684L47.0678 37.1365C46.9672 36.8897 46.9754 36.6155 47.0905 36.3743C47.2056 36.1331 47.4183 35.9446 47.6817 35.8504L47.6953 35.8218Z" fill="#F9ECBC"/>
<path d="M67.9131 14.8336C70.502 15.75 72.7948 17.2767 74.57 19.2664C76.3452 21.256 77.5428 23.6412 78.047 26.1914C78.3305 27.5198 78.9919 31.6821 76.6533 35.9551C72.8502 42.8849 64.1336 44.6561 60.0233 44.1468C59.0548 44.014 56.8343 43.7262 56.0784 42.2871C55.7949 41.7115 55.6532 40.8259 56.0784 40.4495C56.5036 40.0731 58.1335 41.0915 59.48 40.4495C60.0706 40.1395 60.6375 39.4753 60.5903 38.8554C60.543 38.2355 59.9288 37.992 60.0233 37.527C60.1178 37.0621 60.9682 36.7964 61.1572 36.7521C62.9525 36.1986 67.3698 34.206 68.4801 32.2577C68.9525 31.4164 69.1651 29.933 67.6297 27.232" fill="#FFC800"/>
<path d="M61.4411 44.6561C60.9512 44.6634 60.4614 44.6338 59.9766 44.5675C58.9372 44.4347 56.5277 44.1469 55.6537 42.4864C55.3466 41.8443 55.0868 40.6931 55.7718 40.1174C56.4569 39.5418 56.9529 39.8517 57.5435 40.0067C58.134 40.1617 58.701 40.3167 59.2443 40.051C59.7876 39.7853 60.1656 39.2761 60.1183 38.8997C60.1018 38.7167 60.0184 38.5446 59.8821 38.4126C59.7596 38.2847 59.6687 38.1331 59.6156 37.9686C59.5625 37.8041 59.5487 37.6307 59.575 37.4606C59.7167 36.7079 60.6852 36.4201 60.9923 36.3315C63.0238 35.7116 67.0868 33.7633 68.0554 32.0585C68.6459 31.0179 68.3624 29.4681 67.2286 27.4534C67.196 27.4032 67.175 27.3472 67.1669 27.289C67.1589 27.2307 67.1639 27.1716 67.1817 27.1152C67.1995 27.0589 67.2297 27.0067 67.2703 26.962C67.3109 26.9173 67.3611 26.8811 67.4175 26.8556C67.5273 26.8004 67.6559 26.788 67.7754 26.8211C67.8948 26.8543 67.9954 26.9304 68.0554 27.0327C69.3546 29.3131 69.638 31.1508 68.9057 32.457C67.6538 34.671 62.9057 36.6857 61.2994 37.1728H61.2758C60.5907 37.3942 60.4963 37.5935 60.4963 37.6156C60.5218 37.7241 60.579 37.8238 60.6616 37.9034C60.8959 38.1664 61.0364 38.4916 61.0632 38.8333C61.1341 39.6746 60.4018 40.4938 59.6931 40.8259C58.9844 41.158 57.9215 41.0252 57.2837 40.8702C56.6459 40.7152 56.5277 40.6709 56.4096 40.7595C56.2915 40.848 56.2679 41.6008 56.5041 42.0879C57.1655 43.3277 59.2206 43.5934 60.0947 43.7041C63.5435 44.1469 72.4018 42.7521 76.2286 35.7559C78.331 31.9257 77.9767 28.1619 77.5987 26.28C76.9369 23.1161 75.2058 20.2361 72.6617 18.0661C71.2337 16.8394 69.5649 15.8844 67.7483 15.2543C67.6325 15.2101 67.5402 15.1247 67.4915 15.0168C67.4428 14.9089 67.4417 14.7873 67.4884 14.6787C67.5069 14.6238 67.5372 14.573 67.5774 14.5296C67.6176 14.4861 67.6669 14.4508 67.7223 14.4259C67.7776 14.401 67.8378 14.387 67.8992 14.3848C67.9605 14.3826 68.0217 14.3922 68.079 14.413C70.0016 15.0977 71.7718 16.1112 73.2995 17.4019C75.9953 19.6986 77.8266 22.7507 78.52 26.1029C78.9452 28.1176 79.2995 32.0806 77.079 36.1544C73.4176 42.7963 65.7876 44.6561 61.4411 44.6561Z" fill="#FCFCFC"/>
<path d="M92.0554 82.2718C91.9373 81.8069 90.9215 81.4969 90.5436 81.2755L90.3073 81.1427C89.7404 80.5006 89.8585 79.46 89.0081 78.9287C88.6303 78.7132 88.2143 78.5632 87.7798 78.4859L67.7954 55.3497L56.5513 63.8735L78.4726 89.2459C78.7797 89.9101 78.6616 90.7071 79.2522 91.2606C79.8427 91.8141 80.3152 91.7698 80.9294 91.5927C82.1577 91.1942 82.8191 90.22 83.4569 89.2459L89.5042 84.6629C90.0744 84.4219 90.6069 84.109 91.0869 83.733C91.4176 83.4674 92.1971 82.781 92.0554 82.2718Z" fill="#FCFCFC"/>
<path d="M77.3862 18.8409C77.2701 18.4497 77.0779 18.0819 76.8193 17.7561C76.6067 17.4904 76.276 17.3354 76.0634 17.0919C75.8508 16.8483 75.8035 16.0734 76.0161 15.5421C76.2287 15.0107 75.9925 14.2358 75.2602 13.9037C74.5279 13.5716 73.5122 13.8816 73.3232 12.9074C73.2287 12.3096 74.0555 11.579 74.1263 10.937C74.2445 9.91853 73.2996 9.47574 72.4964 9.03294C71.6933 8.59014 71.4807 8.36874 71.5279 7.5717C71.5515 7.35031 71.6933 7.10677 71.7405 6.86323C71.7962 6.30786 71.664 5.75015 71.3626 5.26916C69.898 2.76735 66.898 2.34669 64.1578 2.63451C62.6696 2.78949 61.4176 3.21015 60.4255 4.27286C59.9511 4.74197 59.5745 5.29014 59.3153 5.88907C57.8271 7.30603 56.4806 9.21006 57.2365 11.2691C57.4019 11.7119 57.8743 12.0882 57.9924 12.5089C58.1105 12.9296 57.5436 13.3059 57.3074 13.6823C56.8113 14.5236 57.2365 15.4314 57.8034 16.1177C58.0633 16.4498 58.6302 16.1177 58.3704 15.8077L58.1814 15.5421C58.4592 15.4542 58.728 15.343 58.9845 15.21C59.0933 15.2787 59.2128 15.331 59.3389 15.3649C59.646 15.4756 59.8586 15.1214 59.7168 14.9H59.8349C60.2601 14.8779 60.2601 14.2358 59.8349 14.258H59.7168V14.1915C59.7282 13.976 59.6922 13.7606 59.6109 13.5588C59.5296 13.3569 59.4048 13.1728 59.2444 13.0181C59.2458 12.8896 59.2217 12.762 59.1735 12.6417L59.0318 12.3318C59.2916 11.1584 59.2208 10.0071 59.1027 8.83368C61.4885 6.30973 63.0475 6.86323 64.7011 7.94808C64.9596 8.34583 65.2519 8.72343 65.5751 9.07722C65.7169 9.21006 65.8114 9.32076 66.024 9.29862C66.1393 9.28767 66.2473 9.24091 66.331 9.16578C66.8123 9.64401 67.1776 10.2141 67.4018 10.837C67.6261 11.4599 67.704 12.1208 67.6302 12.7746L67.7484 12.6417V12.9738C67.6073 13.1698 67.5096 13.3903 67.4609 13.6222C67.4122 13.8542 67.4136 14.0929 67.4649 14.3244C67.7247 15.7635 69.898 15.9184 70.9846 16.5826C71.1836 16.7177 71.416 16.8028 71.66 16.8299C71.9039 16.857 72.1512 16.8253 72.3783 16.7376C72.5742 17.0645 72.8949 17.3097 73.2759 17.424C73.3227 17.6113 73.4402 17.7764 73.6067 17.8889C73.9846 18.221 74.2208 18.6638 74.5752 19.018C74.7662 19.1667 74.9201 19.3527 75.0262 19.5631C75.1323 19.7735 75.188 20.003 75.1893 20.2357C75.1955 20.4844 75.3053 20.7209 75.4951 20.8946C75.6849 21.0684 75.9398 21.1657 76.2051 21.1656H76.3468L76.2523 21.2763C76.0161 21.6084 76.583 21.9184 76.8429 21.6084C77.1456 21.2132 77.3513 20.7601 77.4452 20.2817C77.5391 19.8032 77.519 19.3112 77.3862 18.8409Z" fill="#FCFCFC"/>
<path d="M56.9291 33.2318C56.8115 33.2323 56.698 33.1918 56.6106 33.1181C56.5233 33.0444 56.4684 32.9429 56.4566 32.8333C56.433 32.3683 56.3857 32.0141 56.3385 31.7041C56.2676 31.0178 56.2204 30.4864 56.1731 29.3573C56.1259 27.6747 56.1259 25.992 56.1731 24.3315C56.1845 24.2139 56.241 24.1041 56.3323 24.0227C56.4236 23.9412 56.5433 23.8936 56.6692 23.8887C56.7313 23.8916 56.7921 23.9059 56.8483 23.9308C56.9045 23.9557 56.9548 23.9907 56.9965 24.0339C57.0382 24.0771 57.0704 24.1276 57.0913 24.1825C57.1121 24.2373 57.1212 24.2955 57.118 24.3537C57.0708 25.992 57.0708 27.6747 57.118 29.313C57.1653 30.42 57.2125 30.9514 57.2834 31.6156C57.3306 31.9255 57.3543 32.2798 57.4015 32.7447C57.408 32.8029 57.4022 32.8617 57.3843 32.9178C57.3664 32.9739 57.3368 33.0261 57.2973 33.0714C57.2577 33.1166 57.209 33.1541 57.1539 33.1817C57.0988 33.2092 57.0384 33.2262 56.9763 33.2318H56.9291Z" fill="#FCFCFC"/>
<path d="M63.0944 15.8965C62.1999 15.9206 61.3213 15.672 60.5905 15.188C59.1259 14.1918 58.8897 12.5534 58.7243 11.4685C58.4881 9.98517 58.9841 8.23612 59.2204 7.57192C59.2362 7.51505 59.2647 7.46194 59.3038 7.416C59.3429 7.37006 59.3919 7.33231 59.4475 7.30519C59.5031 7.27808 59.5642 7.26219 59.6268 7.25856C59.6894 7.25492 59.7521 7.26362 59.8109 7.2841C59.9297 7.31971 60.0286 7.39787 60.0861 7.50156C60.1437 7.60524 60.1551 7.72603 60.118 7.8376C59.9527 8.30253 59.4566 9.98517 59.6456 11.3357C59.8109 12.332 59.9999 13.7047 61.1574 14.4796C62.3149 15.2545 64.7007 14.7674 64.9369 14.6788C65.0533 14.6406 65.1806 14.6444 65.2942 14.6894C65.4077 14.7345 65.4993 14.8175 65.5511 14.9224C65.5974 15.0369 65.5936 15.164 65.5405 15.2759C65.4874 15.3878 65.3894 15.4756 65.2676 15.5201C64.5709 15.759 63.8362 15.8862 63.0944 15.8965Z" fill="#FCFCFC"/>
<path d="M63.2364 21.0772C62.8007 21.0844 62.3727 20.9687 62.0081 20.7451C60.7325 19.9037 60.6616 17.4019 61.8663 15.1658C61.8942 15.1135 61.9329 15.0668 61.9801 15.0285C62.0272 14.9901 62.082 14.9609 62.1412 14.9424C62.2004 14.9239 62.263 14.9165 62.3252 14.9206C62.3875 14.9248 62.4483 14.9404 62.5041 14.9665C62.56 14.9927 62.6098 15.0289 62.6507 15.0731C62.6916 15.1173 62.7228 15.1687 62.7425 15.2242C62.7623 15.2797 62.7702 15.3383 62.7657 15.3966C62.7613 15.455 62.7447 15.512 62.7167 15.5643C61.5829 17.6455 61.8663 19.5716 62.5514 20.0144C63.2364 20.4572 63.9451 20.103 64.323 19.9923L64.3939 19.948C66.2128 19.4167 67.3703 17.247 67.1577 15.675C67.1463 15.5078 67.1064 15.3434 67.0396 15.1879C66.9102 14.8168 66.8542 14.4267 66.8742 14.0367C66.9313 13.0936 67.1548 12.1659 67.5356 11.2913C67.5633 11.2387 67.6018 11.1918 67.6489 11.1533C67.696 11.1147 67.7508 11.0853 67.8101 11.0668C67.8695 11.0483 67.9321 11.0409 67.9945 11.0453C68.0569 11.0496 68.1177 11.0655 68.1735 11.0921C68.2288 11.1157 68.2783 11.1496 68.3192 11.1917C68.3601 11.2339 68.3914 11.2834 68.4113 11.3372C68.4312 11.391 68.4392 11.4481 68.4349 11.5049C68.4305 11.5617 68.4139 11.6171 68.3861 11.6677C68.073 12.4344 67.882 13.24 67.8191 14.0588C67.7976 14.3529 67.846 14.6478 67.9609 14.9223C68.0311 15.1388 68.0785 15.3613 68.1026 15.5865C68.3388 17.4905 66.9923 20.103 64.6774 20.7893H64.6065C64.1705 20.9574 63.7072 21.0547 63.2364 21.0772Z" fill="#FCFCFC"/>
<path d="M68.7639 30.3317C68.6602 30.334 68.5586 30.3043 68.4747 30.2471C68.3909 30.1899 68.3294 30.1084 68.2999 30.0152C68.2703 29.9221 68.2743 29.8223 68.3112 29.7315C68.3481 29.6407 68.4159 29.5637 68.5041 29.5125C69.9371 28.6868 71.5242 28.1233 73.1812 27.8521C74.9472 27.603 76.7492 27.701 78.4726 28.1399C78.5336 28.1552 78.5906 28.1818 78.6404 28.2181C78.6902 28.2544 78.7317 28.2996 78.7626 28.3512C78.7934 28.4028 78.8129 28.4597 78.8199 28.5184C78.8269 28.5772 78.8213 28.6367 78.8033 28.6934C78.7605 28.8014 78.6763 28.8907 78.5672 28.9439C78.4581 28.9971 78.3318 29.0104 78.2128 28.9812C76.6271 28.5799 74.9689 28.497 73.3466 28.7377C71.8161 28.9755 70.3486 29.4866 69.0238 30.2432C68.989 30.2735 68.9481 30.297 68.9034 30.3122C68.8588 30.3274 68.8113 30.334 68.7639 30.3317Z" fill="#FCFCFC"/>
<path d="M64.3467 91.5702L65.9767 91.526V89.8212L72.5673 89.7548V91.4595L72.6145 96.2196C72.6146 96.48 72.5058 96.7302 72.3115 96.9164C72.1173 97.1026 71.8529 97.2101 71.5751 97.2159L61.5121 97.3266C61.3219 97.3267 61.1391 97.2574 61.0025 97.1335C60.8658 97.0095 60.7859 96.8406 60.7798 96.6624V96.5738C60.7798 93.8064 61.394 91.5924 64.3467 91.5702Z" fill="#FFC800"/>
<path d="M38.4801 26.59C38.5175 26.3909 38.616 26.2062 38.7636 26.0587C39.4958 25.3723 41.5037 25.6602 42.1415 26.59C43.1809 28.0734 40.7478 31.173 40.4643 31.0623C40.1809 30.9516 40.4643 30.8852 40.4643 30.5309C40.4171 28.7155 38.1966 27.8963 38.4801 26.59Z" fill="#FFC800"/>
<path d="M42.4784 20.602C42.5486 20.1668 42.229 19.7606 41.7647 19.6947C41.3003 19.6289 40.8669 19.9284 40.7967 20.3636L38.6924 33.4041C38.6222 33.8393 38.9417 34.2455 39.4061 34.3113C39.8705 34.3772 40.3039 34.0777 40.3741 33.6425L42.4784 20.602Z" fill="white"/>
<path d="M53.268 29.0033C53.154 29.0045 53.0434 28.9671 52.9566 28.8979C52.8698 28.8287 52.8126 28.7325 52.7955 28.6269C52.6302 27.3428 52.0396 20.7672 56.5987 16.6271C57.7325 15.6086 59.2207 14.9223 60.4018 14.4352C60.4591 14.3991 60.524 14.3752 60.5922 14.3652C60.6603 14.3551 60.7299 14.3592 60.7962 14.3771C60.8625 14.3949 60.9238 14.4262 60.9758 14.4686C61.0278 14.5111 61.0693 14.5637 61.0973 14.6228C61.1253 14.6818 61.1392 14.7459 61.138 14.8106C61.1367 14.8752 61.1204 14.9388 61.0901 14.9969C61.0599 15.055 61.0164 15.1061 60.9628 15.1468C60.9092 15.1875 60.8467 15.2166 60.7798 15.2323C59.6932 15.6972 58.2758 16.3393 57.2601 17.2691C53.0081 21.0993 53.575 27.2985 53.7404 28.5162C53.7504 28.5732 53.7477 28.6315 53.7326 28.6875C53.7175 28.7435 53.6903 28.7959 53.6527 28.8416C53.615 28.8873 53.5677 28.9252 53.5137 28.9531C53.4597 28.9809 53.4002 28.998 53.3388 29.0033H53.268Z" fill="#FCFCFC"/>
<path d="M56.6457 26.8998L56.4804 26.8555C56.1024 26.7227 55.4646 26.5677 54.8977 26.4349L54.567 26.3463C54.1179 26.2311 53.6598 26.1497 53.1969 26.1028C53.1349 26.094 53.0752 26.074 53.0215 26.0436C52.9677 26.0133 52.9209 25.9734 52.8836 25.9261C52.8463 25.8788 52.8193 25.8251 52.8042 25.7681C52.789 25.711 52.786 25.6517 52.7953 25.5936C52.8141 25.4761 52.8819 25.3705 52.9838 25.2999C53.0343 25.2649 53.0916 25.2397 53.1524 25.2255C53.2133 25.2113 53.2766 25.2085 53.3386 25.2172C53.8313 25.2823 54.3202 25.371 54.8032 25.4829L55.1339 25.5714C55.7092 25.6982 56.2769 25.8534 56.8347 26.0364C56.9505 26.0806 57.0428 26.166 57.0915 26.2739C57.1402 26.3818 57.1413 26.5033 57.0946 26.612C57.0578 26.6957 56.9957 26.7675 56.916 26.8187C56.8362 26.8698 56.7423 26.898 56.6457 26.8998Z" fill="#FCFCFC"/>
<path d="M38.6224 25.9256C38.3862 26.1691 38.0318 26.8776 37.772 27.4975C37.7011 27.6968 36.9452 29.6894 38.0555 30.9292C38.425 31.3299 38.9217 31.6093 39.4728 31.7262C39.6589 31.7703 39.8537 31.7703 40.0398 31.7262C40.1815 31.7041 40.7012 31.5934 40.8901 31.1949C40.955 31.023 40.955 30.8354 40.8901 30.6635" fill="#FCFCFC"/>
<path d="M39.7562 32.1914H39.3782C38.7205 32.0608 38.1293 31.7252 37.7011 31.2394C36.4018 29.8225 37.2522 27.6085 37.3467 27.3649C37.4412 27.1214 37.9609 25.9923 38.268 25.6602C38.3067 25.6143 38.3551 25.5764 38.4102 25.5491C38.4654 25.5217 38.526 25.5054 38.5883 25.5013C38.6505 25.4971 38.713 25.5051 38.7717 25.5249C38.8305 25.5446 38.8842 25.5756 38.9294 25.6159C38.9784 25.6521 39.0188 25.6975 39.0479 25.7492C39.0771 25.8009 39.0945 25.8577 39.099 25.9161C39.1034 25.9744 39.0948 26.033 39.0738 26.088C39.0527 26.1431 39.0196 26.1934 38.9767 26.2358C38.6665 26.6867 38.4128 27.1696 38.2207 27.6749C38.1971 27.7635 37.4648 29.6232 38.4333 30.6638C38.7117 30.9931 39.1047 31.2203 39.5436 31.3058C39.6731 31.346 39.8115 31.3537 39.9452 31.328C40.2995 31.2616 40.4176 31.1509 40.4412 31.0623C40.454 30.989 40.454 30.9142 40.4412 30.8409C40.4187 30.7857 40.4082 30.7269 40.4103 30.6678C40.4124 30.6088 40.4271 30.5507 40.4535 30.4971C40.4799 30.4434 40.5175 30.3953 40.5641 30.3555C40.6107 30.3157 40.6653 30.285 40.7247 30.2653C40.8469 30.235 40.9767 30.2476 41.0897 30.3006C41.2028 30.3535 41.2914 30.4433 41.3389 30.5531C41.4379 30.8272 41.4295 31.1255 41.3152 31.3944C41.1971 31.6822 40.89 32.0365 40.1341 32.1914H39.7562Z" fill="#FCFCFC"/>
<path d="M39.1887 27.2319C39.5666 26.9663 40.1808 27.1877 40.3226 27.2319C41.3147 27.6083 41.8344 28.8924 41.4328 29.8887C41.2911 30.2872 40.8186 30.9736 40.3226 30.9293C39.3068 30.8629 38.3383 27.8961 39.1887 27.2319Z" fill="#FCFCFC"/>
<path d="M40.8899 31.1065C40.778 31.1052 40.6702 31.0668 40.5858 30.998C40.5013 30.9293 40.4456 30.8347 40.4286 30.731C40.4116 30.6274 40.4344 30.5215 40.4929 30.4321C40.5514 30.3427 40.6418 30.2757 40.7481 30.243L41.1497 30.0659C41.5276 29.8002 41.5276 29.6452 41.5276 29.6231C41.5096 29.5537 41.4682 29.4916 41.4095 29.446L41.3387 29.3574C41.1058 29.0533 40.9447 28.7061 40.8662 28.339C40.8593 28.2204 40.8185 28.1057 40.7481 28.0069C40.5119 27.6305 39.8977 27.4755 39.4016 27.4091C39.3403 27.4038 39.2808 27.3867 39.2268 27.3589C39.1728 27.3311 39.1255 27.2931 39.0878 27.2474C39.0501 27.2017 39.0229 27.1493 39.0078 27.0933C38.9927 27.0373 38.9901 26.979 39.0001 26.922C39.0087 26.8636 39.0297 26.8074 39.0618 26.7567C39.094 26.7059 39.1366 26.6617 39.1872 26.6267C39.2378 26.5916 39.2954 26.5664 39.3566 26.5525C39.4177 26.5386 39.4812 26.5362 39.5434 26.5456C40.5355 26.6785 41.2206 27.0106 41.5749 27.5419C41.6811 27.7286 41.753 27.9307 41.7875 28.1397C41.846 28.3874 41.9586 28.6211 42.1182 28.8261L42.1655 28.9146C42.3546 29.1001 42.4639 29.3445 42.4725 29.6009C42.4962 30.0216 42.2363 30.398 41.7166 30.7744C41.4955 30.9113 41.2575 31.0228 41.008 31.1065H40.8899Z" fill="#FCFCFC"/>
<path d="M54.1186 29.0918C52.276 28.0733 50.7406 27.2763 49.6067 26.7228C45.78 24.8188 43.7248 24.1103 41.4335 24.066C39.1421 24.0217 38.7169 24.6859 38.6224 24.8631C38.5279 25.0402 38.3862 25.638 38.6224 25.9258C38.8587 26.2136 38.9295 26.125 39.4728 26.1914C40.8193 26.3464 41.1264 26.1914 41.4335 26.4571C41.575 26.5914 41.6759 26.7585 41.7258 26.9414C41.7756 27.1243 41.7725 27.3163 41.7169 27.4977C41.6838 27.6982 41.5847 27.8839 41.4335 28.0291" fill="#FFC800"/>
<path d="M54.1185 29.5348C54.0343 29.5364 53.9516 29.5132 53.8823 29.4684C52.3941 28.6492 50.8823 27.8522 49.3941 27.0994C45.4964 25.1954 43.5594 24.5533 41.4334 24.509C39.9216 24.4869 39.1893 24.7969 39.0475 25.0847C38.9884 25.1649 38.9528 25.2583 38.9445 25.3555C38.9362 25.4527 38.9555 25.5502 39.0003 25.6382C39.1635 25.7083 39.3405 25.746 39.52 25.7489C40.0397 25.8153 40.4176 25.8153 40.6775 25.8374C40.9373 25.8596 41.457 25.8596 41.7641 26.1253C42.0712 26.3909 42.2838 27.1437 42.1893 27.6086C42.1212 27.8682 41.9921 28.1103 41.8114 28.3171C41.7705 28.3636 41.72 28.4019 41.6628 28.4294C41.6057 28.457 41.5431 28.4734 41.479 28.4775C41.4149 28.4817 41.3505 28.4735 41.2899 28.4536C41.2292 28.4336 41.1736 28.4022 41.1263 28.3614C41.0332 28.2846 40.976 28.1765 40.9671 28.0605C40.9583 27.9445 40.9985 27.8299 41.079 27.7415C41.1702 27.647 41.2351 27.5329 41.268 27.4094C41.2943 27.299 41.2953 27.1847 41.2709 27.074C41.2464 26.9633 41.1972 26.8588 41.1263 26.7673C40.9742 26.7201 40.8129 26.705 40.6539 26.723C40.3704 26.7009 39.9688 26.7009 39.4019 26.6345C38.8349 26.5681 38.5279 26.5016 38.268 26.1917C38.0082 25.8817 37.9609 25.0847 38.1972 24.664C38.4334 24.2434 39.2838 23.5792 41.457 23.6234C43.6303 23.6677 45.8035 24.3319 49.8429 26.3245C51.3547 27.0773 52.8665 27.8743 54.3547 28.7156C54.4092 28.7431 54.4571 28.7808 54.4953 28.8264C54.5335 28.872 54.5613 28.9245 54.5768 28.9806C54.5923 29.0368 54.5953 29.0953 54.5855 29.1526C54.5758 29.2098 54.5535 29.2646 54.5201 29.3134C54.4776 29.3783 54.4188 29.4324 54.3488 29.471C54.2787 29.5096 54.1997 29.5315 54.1185 29.5348Z" fill="#FCFCFC"/>
<path d="M42.7084 21.7857H42.6376L40.11 21.4315C40.0479 21.4228 39.9883 21.4027 39.9346 21.3724C39.8808 21.3421 39.834 21.3021 39.7967 21.2548C39.7214 21.1593 39.6896 21.0397 39.7084 20.9223C39.7272 20.8049 39.795 20.6992 39.8969 20.6286C39.9988 20.5581 40.1264 20.5283 40.2517 20.5459L42.7793 20.9223C42.8406 20.9276 42.9002 20.9447 42.9542 20.9725C43.0081 21.0003 43.0555 21.0383 43.0931 21.0839C43.1308 21.1296 43.158 21.1821 43.1731 21.2381C43.1882 21.2941 43.1908 21.3524 43.1809 21.4094C43.1638 21.515 43.1065 21.6112 43.0197 21.6804C42.9329 21.7495 42.8224 21.7869 42.7084 21.7857Z" fill="#FFC800"/>
<path d="M64.7246 17.7785L64.2286 17.7342C63.3414 17.6283 62.5179 17.2463 61.89 16.6494C61.8002 16.5695 61.7474 16.4599 61.743 16.3439C61.7386 16.228 61.7829 16.1151 61.8663 16.0295C61.9582 15.9485 62.0784 15.9016 62.2044 15.8975C62.3305 15.8935 62.4538 15.9325 62.5514 16.0073C63.0267 16.4793 63.6604 16.7841 64.3467 16.8708C64.9041 16.9335 65.469 16.8461 65.9752 16.6187C66.4815 16.3912 66.9081 16.0332 67.205 15.5867C67.2768 15.4902 67.385 15.4229 67.5078 15.3982C67.6305 15.3735 67.7586 15.3934 67.8664 15.4538C67.919 15.4832 67.9646 15.5223 68.0005 15.5687C68.0363 15.6152 68.0617 15.6681 68.0749 15.724C68.0882 15.78 68.0891 15.838 68.0777 15.8943C68.0662 15.9506 68.0425 16.0042 68.0081 16.0516C67.661 16.5759 67.1778 17.0093 66.6036 17.3113C66.0294 17.6133 65.383 17.774 64.7246 17.7785Z" fill="#FFC800"/>
<path d="M69.8111 14.2945C70.6668 13.3076 71.0814 12.2951 70.7372 12.0329C70.393 11.7707 69.4202 12.3581 68.5645 13.345C67.7088 14.3319 67.2942 15.3444 67.6384 15.6066C67.9827 15.8688 68.9554 15.2814 69.8111 14.2945Z" fill="#FFC800"/>
<path d="M74.8819 88.98C74.7874 88.6479 74.5276 88.4487 74.3386 88.1609C74.1496 87.873 74.0788 87.1646 73.9607 86.5889C73.8936 86.3336 73.7903 86.0879 73.6536 85.8583L70.9843 66.1317L57.7559 67.7036L60.0708 84.7956V86.0133C60.0781 86.6028 60.1574 87.1897 60.307 87.7623C60.3891 88.1341 60.4365 88.5119 60.4488 88.8915C60.1653 89.8656 59.5984 91.3047 60.6614 91.5704C61.2755 91.7254 61.937 91.3269 62.5275 91.2162C63.1181 91.1055 64.3937 91.0833 65.3149 90.8398L71.2205 90.1534C72.4252 90.242 75.4016 90.6184 74.8819 88.98Z" fill="#FCFCFC"/>
<path d="M61.4413 69.1206H61.3941C61.3319 69.1151 61.2715 69.0981 61.2164 69.0706C61.1614 69.043 61.1126 69.0055 61.0731 68.9602C61.0336 68.9149 61.004 68.8627 60.9861 68.8067C60.9682 68.7506 60.9624 68.6918 60.9689 68.6336L63.2366 48.6855C63.2428 48.6274 63.2612 48.5709 63.2907 48.5194C63.3201 48.4679 63.3601 48.4224 63.4084 48.3854C63.4566 48.3484 63.5122 48.3206 63.5719 48.3038C63.6316 48.2869 63.6942 48.2812 63.7563 48.287C63.8183 48.2928 63.8786 48.31 63.9335 48.3376C63.9885 48.3653 64.0371 48.4028 64.0765 48.448C64.116 48.4932 64.1456 48.5453 64.1636 48.6013C64.1816 48.6572 64.1877 48.7159 64.1815 48.7741L61.9138 68.7443C61.8967 68.8498 61.8395 68.9461 61.7526 69.0153C61.6658 69.0844 61.5553 69.1219 61.4413 69.1206Z" fill="#FFC800"/>
<path d="M79.8664 86.8324C79.7934 86.8307 79.7216 86.814 79.6563 86.7834C79.5909 86.7528 79.5336 86.709 79.4885 86.6552L72.3309 78.4635C72.2531 78.3723 72.217 78.2559 72.2302 78.1398C72.2435 78.0237 72.3052 77.9172 72.4018 77.8436C72.4486 77.8045 72.5036 77.775 72.5632 77.7571C72.6229 77.7391 72.6859 77.7331 72.7482 77.7393C72.8105 77.7456 72.8707 77.764 72.925 77.7934C72.9792 77.8228 73.0263 77.8625 73.0632 77.91L80.2207 86.1017C80.2985 86.1929 80.3347 86.3093 80.3214 86.4254C80.3082 86.5415 80.2465 86.648 80.1499 86.7217C80.0734 86.7904 79.9723 86.8298 79.8664 86.8324Z" fill="white"/>
<path d="M63.4728 88.294C63.3553 88.2946 63.2418 88.254 63.1544 88.1803C63.067 88.1067 63.0121 88.0051 63.0004 87.8955L60.9689 68.7223C60.9623 68.6653 60.9683 68.6076 60.9865 68.5529C61.0046 68.4981 61.0345 68.4474 61.0744 68.4038C61.1142 68.3603 61.1631 68.3248 61.2181 68.2997C61.273 68.2745 61.3329 68.2601 61.394 68.2574C61.4548 68.248 61.517 68.2505 61.5768 68.2647C61.6365 68.2788 61.6925 68.3043 61.7412 68.3396C61.79 68.3749 61.8305 68.4193 61.8601 68.4699C61.8898 68.5205 61.9081 68.5763 61.9137 68.6338L63.9452 87.8069C63.9518 87.8651 63.9459 87.924 63.928 87.98C63.9101 88.0361 63.8806 88.0883 63.841 88.1336C63.8015 88.1789 63.7528 88.2164 63.6977 88.2439C63.6426 88.2714 63.5822 88.2885 63.52 88.294H63.4728Z" fill="#FFC800"/>
<path d="M47.9882 35.7507L55.2265 33.1601L56.4315 36.1178L46.3906 39.7114L46.2474 39.3598C46.1072 39.0158 46.0411 38.6493 46.0528 38.2812C46.0646 37.9132 46.1539 37.551 46.3158 37.2154C46.4776 36.8799 46.7087 36.5777 46.9958 36.3263C47.2828 36.0749 47.6201 35.8793 47.9882 35.7507Z" fill="#F9ECBC"/>
<path d="M11.4095 7.04016H6.68509C5.88927 7.04016 5.24414 7.64481 5.24414 8.39069V37.8965C5.24414 38.6424 5.88927 39.2471 6.68509 39.2471H11.4095C12.2053 39.2471 12.8505 38.6424 12.8505 37.8965V8.39069C12.8505 7.64481 12.2053 7.04016 11.4095 7.04016Z" fill="#FCFCFC"/>
<path d="M21.4486 18.6638H17.7635C16.6024 18.6638 15.6611 19.546 15.6611 20.6342V37.2834C15.6611 38.3717 16.6024 39.2539 17.7635 39.2539H21.4486C22.6097 39.2539 23.5509 38.3717 23.5509 37.2834V20.6342C23.5509 19.546 22.6097 18.6638 21.4486 18.6638Z" fill="#FCFCFC"/>
<path d="M30.5435 12.8634H27.2837C26.3183 12.8634 25.5356 13.5969 25.5356 14.5018V37.6247C25.5356 38.5295 26.3183 39.263 27.2837 39.263H30.5435C31.5089 39.263 32.2916 38.5295 32.2916 37.6247V14.5018C32.2916 13.5969 31.5089 12.8634 30.5435 12.8634Z" fill="#FCFCFC"/>
<path d="M0.87381 39.5639C0.748511 39.5639 0.62835 39.5172 0.539749 39.4342C0.451149 39.3512 0.401367 39.2385 0.401367 39.1211V2.94451C0.401367 2.82707 0.451149 2.71444 0.539749 2.6314C0.62835 2.54836 0.748511 2.50171 0.87381 2.50171C0.99911 2.50171 1.11927 2.54836 1.20787 2.6314C1.29647 2.71444 1.34625 2.82707 1.34625 2.94451V39.1211C1.34625 39.2385 1.29647 39.3512 1.20787 39.4342C1.11927 39.5172 0.99911 39.5639 0.87381 39.5639Z" fill="#FCFCFC"/>
<path d="M34.9606 39.5642H0.87381C0.748511 39.5642 0.62835 39.5176 0.539749 39.4346C0.451149 39.3515 0.401367 39.2389 0.401367 39.1214C0.401367 39.004 0.451149 38.8914 0.539749 38.8083C0.62835 38.7253 0.748511 38.6786 0.87381 38.6786H34.9606C35.0859 38.6786 35.2061 38.7253 35.2947 38.8083C35.3833 38.8914 35.433 39.004 35.433 39.1214C35.433 39.2389 35.3833 39.3515 35.2947 39.4346C35.2061 39.5176 35.0859 39.5642 34.9606 39.5642Z" fill="#FFC800"/>
<path d="M95.7404 71.7773C95.0789 71.7773 94.7955 70.9581 94.6538 70.1611C93.7325 70.0725 92.7876 69.8068 92.7876 69.1427C92.7876 68.4785 93.7089 68.2349 94.6301 68.1242C94.7246 67.305 94.9845 66.2645 95.7404 66.2645C96.4963 66.2645 96.7561 67.305 96.8506 68.1242C97.7483 68.2349 98.6695 68.5006 98.6695 69.1427C98.6695 69.7847 97.7246 70.0725 96.8034 70.1611C96.6853 70.9581 96.4018 71.7773 95.7404 71.7773ZM94.016 69.1427C94.3769 69.2443 94.7498 69.3037 95.1262 69.3198H95.5278V69.6961C95.5584 70.0039 95.6217 70.3079 95.7168 70.6039C95.8017 70.3067 95.857 70.0029 95.8821 69.6961L95.9294 69.3198H96.3309C96.6997 69.3042 97.0648 69.2447 97.4175 69.1427C97.0621 69.0515 96.6983 68.9922 96.3309 68.9655H95.9294V68.567C95.9126 68.1851 95.8492 67.8063 95.7404 67.4379C95.6212 67.8049 95.5498 68.184 95.5278 68.567V68.9655H95.1262C94.7509 68.9907 94.3791 69.0501 94.016 69.1427Z" fill="#FCFCFC"/>
<path d="M12.9207 57.2536C11.9994 57.2536 11.6215 55.8145 11.4798 54.7518C10.3695 54.6411 8.57422 54.3312 8.57422 53.3791C8.57422 52.4271 10.3459 52.1172 11.4325 52.0065C11.527 50.8995 11.8813 49.1061 12.9207 49.1061C13.9601 49.1061 14.3144 50.8995 14.4089 52.0065C15.5192 52.1172 17.2672 52.4493 17.2672 53.3791C17.2672 54.309 15.4719 54.6411 14.3616 54.7518C14.2199 55.8145 13.8656 57.2536 12.9207 57.2536ZM9.56637 53.3791C9.80259 53.5341 10.5585 53.8219 11.9522 53.9105H12.3301L12.3774 54.2869C12.4955 55.4824 12.7553 56.1023 12.9207 56.3016C13.0861 56.1023 13.3459 55.4824 13.464 54.2869L13.5113 53.9105H13.9128C15.3065 53.8219 16.0388 53.5341 16.275 53.3791C16.0388 53.2242 15.3066 52.9585 13.9365 52.8478H13.5349V52.4493C13.4404 51.0323 13.1333 50.2796 12.9443 50.0582C12.779 50.2796 12.4482 51.0323 12.3774 52.4493V52.8478H11.9522C10.5349 52.9585 9.80259 53.2242 9.56637 53.3791Z" fill="#FCFCFC"/>
<path d="M46.1576 5.51271C45.4962 5.51271 45.2128 4.71568 45.0946 3.91864C44.1734 3.80794 43.2285 3.54226 43.2285 2.87806C43.2285 2.21387 44.1498 1.97033 45.0474 1.85963C45.1419 1.04045 45.4254 -0.00012207 46.1576 -0.00012207C46.8899 -0.00012207 47.1734 1.04045 47.2679 1.85963C48.1892 1.97033 49.0868 2.23601 49.0868 2.87806C49.0868 3.52012 48.1655 3.80794 47.2206 3.91864C47.1025 4.71568 46.8191 5.51271 46.1576 5.51271ZM44.4569 2.87806C44.8096 2.98011 45.1747 3.03963 45.5435 3.05518L45.9451 3.09946L45.9923 3.4537C46.0056 3.76168 46.0611 4.06678 46.1576 4.36144C46.2527 4.0655 46.316 3.76142 46.3466 3.4537V3.09946L46.7482 3.05518C47.1246 3.03915 47.4976 2.97966 47.8585 2.87806C47.5031 2.78687 47.1392 2.72756 46.7718 2.70094H46.3702L46.323 2.32457C46.3198 1.93426 46.2562 1.54645 46.134 1.17329C46.0236 1.54889 45.9602 1.93524 45.9451 2.32457V2.70094H45.5199C45.1605 2.72932 44.8046 2.78861 44.4569 2.87806Z" fill="#FCFCFC"/>
<path d="M58.913 78.1095H9.04666C8.92136 78.1095 8.8012 78.0629 8.7126 77.9798C8.624 77.8968 8.57422 77.7842 8.57422 77.6667C8.57422 77.5493 8.624 77.4367 8.7126 77.3536C8.8012 77.2706 8.92136 77.2239 9.04666 77.2239H58.913C59.0383 77.2239 59.1585 77.2706 59.2471 77.3536C59.3357 77.4367 59.3855 77.5493 59.3855 77.6667C59.3855 77.7842 59.3357 77.8968 59.2471 77.9798C59.1585 78.0629 59.0383 78.1095 58.913 78.1095Z" fill="#FCFCFC"/>
<path d="M98.1972 77.8438H87.4964C87.3711 77.8438 87.2509 77.7972 87.1623 77.7142C87.0737 77.6311 87.0239 77.5185 87.0239 77.401C87.0239 77.2836 87.0737 77.171 87.1623 77.0879C87.2509 77.0049 87.3711 76.9583 87.4964 76.9583H98.1972C98.3225 76.9583 98.4427 77.0049 98.5313 77.0879C98.6199 77.171 98.6697 77.2836 98.6697 77.401C98.6697 77.5185 98.6199 77.6311 98.5313 77.7142C98.4427 77.7972 98.3225 77.8438 98.1972 77.8438Z" fill="#FCFCFC"/>
<path d="M23.5513 82.6039H0.472443C0.347144 82.6039 0.226954 82.5572 0.138353 82.4742C0.0497531 82.3911 0 82.2785 0 82.1611C0 82.0436 0.0497531 81.931 0.138353 81.848C0.226954 81.7649 0.347144 81.7183 0.472443 81.7183H23.5513C23.6766 81.7183 23.7967 81.7649 23.8853 81.848C23.9739 81.931 24.0237 82.0436 24.0237 82.1611C24.0237 82.2785 23.9739 82.3911 23.8853 82.4742C23.7967 82.5572 23.6766 82.6039 23.5513 82.6039Z" fill="#FCFCFC"/>
<path d="M74.0316 26.8115C75.2599 26.103 75.5906 24.9517 75.378 23.6455C75.2836 23.0698 75.2127 22.3392 74.6458 21.985C74.0788 21.6307 73.5355 21.7414 73.0158 21.8964C71.9056 22.2064 70.9371 23.0477 71.1969 24.1768C71.4568 25.3059 72.2127 26.8779 73.7245 26.8115C74.1733 26.7893 74.1733 26.1251 73.7245 26.1473C72.7087 26.1915 72.2835 25.1731 72.0237 24.4425C71.7638 23.7119 72.2363 22.7599 73.2048 22.5385C74.1733 22.3171 74.7639 23.4905 74.7402 24.3539C74.7166 25.2174 74.4331 25.8152 73.6772 26.2358C73.5958 26.2799 73.5364 26.3524 73.512 26.4375C73.4876 26.5227 73.5003 26.6134 73.5473 26.6897C73.5943 26.766 73.6717 26.8217 73.7625 26.8446C73.8533 26.8674 73.9501 26.8555 74.0316 26.8115Z" fill="#FCFCFC"/>
<path d="M60.1656 21.852C60.5436 20.8114 60.0239 19.948 59.1971 19.2838C58.8428 18.9738 58.4648 18.6417 57.9451 18.7081C57.4254 18.7746 57.0947 19.1509 56.8585 19.5273C56.5966 19.9408 56.4809 20.4212 56.5278 20.9C56.5986 21.3428 56.953 21.5863 57.3073 21.8299C58.1105 22.317 59.1971 22.7376 59.9766 22.0291C60.3073 21.7413 59.8113 21.2764 59.4805 21.5642C59.1498 21.852 58.2994 21.6085 57.8506 21.3428C57.4018 21.0771 57.2837 21.0328 57.2364 20.745C57.207 20.4333 57.2902 20.1214 57.4727 19.8594C57.9215 19.1509 58.6302 19.6159 59.0554 20.0587C59.4806 20.5015 59.7168 21.0328 59.4805 21.6749C59.2443 22.317 60.0002 22.2505 60.1656 21.852Z" fill="#FCFCFC"/>
<path d="M58.5826 31.7484C59.1259 32.7889 60.1889 33.0325 61.3227 32.9439C61.7952 32.8996 62.3149 32.8775 62.6219 32.5011C62.7426 32.3176 62.8198 32.1119 62.8483 31.8981C62.8769 31.6842 62.856 31.467 62.7873 31.2613C62.5747 30.3978 61.9369 29.6451 60.9448 29.7779C59.9526 29.9108 58.6298 30.3536 58.5826 31.4827C58.5589 31.9255 59.2676 31.9255 59.2912 31.4827C59.3148 31.0399 60.2125 30.575 60.7558 30.4864C61.2991 30.3978 61.5353 30.42 61.7952 30.7742C61.9384 30.9798 62.0498 31.2034 62.1259 31.4384C62.2912 32.2797 61.181 32.3461 60.5668 32.3019C60.2746 32.2832 59.9932 32.1912 59.7521 32.0353C59.511 31.8795 59.3191 31.6656 59.1967 31.4163C59.0077 31.0178 58.3936 31.372 58.5826 31.7484Z" fill="#FCFCFC"/>
<path d="M68.5514 21.2098C69.4962 21.5641 70.2758 21.1213 70.9136 20.4792C71.1498 20.2357 71.386 19.9479 71.3151 19.5715C71.2648 19.3874 71.1735 19.2153 71.0473 19.0665C70.9212 18.9177 70.7629 18.7955 70.5829 18.708C70.2369 18.5079 69.8294 18.4221 69.4254 18.4645C69.0474 18.5088 68.8348 18.7744 68.6222 19.0401C68.1498 19.6379 67.7955 20.4349 68.386 21.0548C68.9766 21.6748 69.1892 20.922 68.8821 20.5899C68.575 20.2578 68.9057 19.8372 69.0947 19.5715C69.2837 19.3058 69.7325 19.018 70.2285 19.2837C70.7246 19.5493 70.6773 19.5936 70.4647 19.9479C70.3658 20.0816 70.2464 20.2009 70.1104 20.3021C69.7088 20.6563 69.2837 20.7892 68.7403 20.5678C68.197 20.3464 68.1498 21.0548 68.5514 21.2098Z" fill="#FFC800"/>
<path d="M65.2912 26.4127C64.677 26.1913 63.3778 25.7928 63.0235 26.5456C62.6691 27.2983 62.4093 28.2725 63.1416 28.6046C63.8739 28.9367 64.7951 28.9588 65.3385 28.4717C65.5738 28.2457 65.7187 27.9504 65.7489 27.6359C65.779 27.3213 65.6924 27.0066 65.5038 26.7448C65.244 26.3906 64.6298 26.7227 64.8896 27.0769C64.9927 27.1948 65.0509 27.3415 65.0552 27.4938C65.0594 27.6461 65.0095 27.7955 64.9132 27.9182C64.6298 28.2503 63.9684 28.2282 63.5904 28.0511C63.2125 27.874 63.4251 27.6747 63.4723 27.4533C63.5195 27.2319 63.5432 26.9441 63.6613 26.8555C63.7794 26.767 64.7951 26.9441 65.1022 27.0548C65.4093 27.1655 65.6928 26.5899 65.2912 26.4127Z" fill="#FCFCFC"/>
<path d="M59.8588 50.0363C59.6226 56.4126 57.8982 62.6339 57.8037 69.0102C57.8237 69.081 57.8682 69.1437 57.9301 69.1884C57.9921 69.2331 58.068 69.2573 58.1462 69.2573C58.2244 69.2573 58.3004 69.2331 58.3623 69.1884C58.4243 69.1437 58.4687 69.081 58.4888 69.0102C58.5832 62.6339 60.284 56.4126 60.5203 50.0363C60.5439 49.6378 59.8588 49.6378 59.8588 50.0363Z" fill="#FFC800"/>
<path d="M72.5672 78.7956C72.0475 77.8215 71.4333 77.0244 71.3625 75.8953C71.3272 74.956 71.3746 74.0156 71.5042 73.0835C71.9058 69.2755 73.2759 65.5338 73.3231 61.7036C73.3231 61.6214 73.2883 61.5426 73.2262 61.4845C73.1642 61.4263 73.0801 61.3937 72.9924 61.3937C72.9047 61.3937 72.8206 61.4263 72.7586 61.4845C72.6965 61.5426 72.6617 61.6214 72.6617 61.7036C72.6145 63.7184 72.142 65.6667 71.6932 67.6371C71.3025 69.4365 71.0186 71.2547 70.8428 73.0835C70.6774 74.5669 70.4176 76.2053 71.1026 77.6222C71.5278 78.5078 72.142 79.2827 72.4963 80.2126C72.8465 81.1594 73.0222 82.1551 73.016 83.1572C73.0397 83.5557 73.7011 83.5557 73.7011 83.1572C73.6959 81.6398 73.3073 80.1452 72.5672 78.7956Z" fill="#FFC800"/>
<path d="M56.409 35.5568C55.9838 34.9147 56.0547 34.4055 56.5744 33.9848C57.0941 33.5642 56.3854 33.2321 56.102 33.542C55.4878 34.2284 54.9445 35.3796 55.7476 35.9553C54.3775 37.173 52.3224 37.7043 50.5035 38.0586C48.6846 38.4128 47.409 38.2578 46.2043 39.232C45.8499 39.4755 46.346 39.9405 46.6767 39.6748C47.4799 39.0327 48.472 38.9884 49.4641 38.8556C50.4156 38.732 51.3554 38.5395 52.2752 38.28C53.8342 37.8372 55.4405 37.2615 56.5508 36.0881C56.5889 36.0477 56.616 35.9993 56.6297 35.9469C56.6433 35.8945 56.6431 35.8398 56.6292 35.7875C56.6152 35.7351 56.5879 35.6868 56.5495 35.6466C56.5112 35.6064 56.463 35.5756 56.409 35.5568Z" fill="white"/>
<path d="M69.4016 41.1359C68.3622 38.9219 66.7559 36.9515 64.937 35.2688C64.8743 35.2101 64.7894 35.1771 64.7008 35.1771C64.6122 35.1771 64.5272 35.2101 64.4645 35.2688C64.4019 35.3275 64.3667 35.4072 64.3667 35.4902C64.3667 35.5733 64.4019 35.6529 64.4645 35.7116C65.5604 36.713 66.542 37.8186 67.3937 39.0105C67.7559 39.5123 68.0866 40.0437 68.3858 40.6045C68.6222 41.0219 68.8351 41.4505 69.0236 41.8887C69.0709 42.0215 69.5197 43.6377 69.0236 43.3278C68.5276 43.0178 68.3386 43.6599 68.6929 43.8813C68.7931 43.9519 68.9088 44.0009 69.0315 44.0247C69.1543 44.0486 69.2812 44.0467 69.4031 44.0192C69.525 43.9917 69.6389 43.9392 69.7366 43.8656C69.8344 43.792 69.9136 43.6991 69.9685 43.5934C70.3937 42.885 69.7087 41.7558 69.4016 41.1359Z" fill="#FCFCFC"/>
<path d="M0.778969 0.553589C0.691259 0.553589 0.607161 0.586245 0.545141 0.644373C0.483121 0.702502 0.448253 0.781342 0.448253 0.863548V1.10709C0.444689 1.14864 0.450801 1.19042 0.46616 1.22954C0.481519 1.26867 0.505761 1.30419 0.537211 1.33367C0.568661 1.36315 0.606573 1.38587 0.648315 1.40027C0.690056 1.41466 0.734635 1.42039 0.778969 1.41705C0.822399 1.41705 0.865405 1.40903 0.905529 1.39345C0.945652 1.37787 0.982117 1.35504 1.01283 1.32626C1.04354 1.29748 1.06789 1.26331 1.08451 1.2257C1.10113 1.1881 1.10969 1.14779 1.10969 1.10709V0.863548C1.10969 0.822843 1.10113 0.782537 1.08451 0.744931C1.06789 0.707325 1.04354 0.673156 1.01283 0.644373C0.982117 0.615591 0.945652 0.59276 0.905529 0.577183C0.865405 0.561606 0.822399 0.553589 0.778969 0.553589Z" fill="#FCFCFC"/>
<path d="M73.2994 95.135C72.6194 95.0567 71.9297 95.1017 71.2679 95.2678C70.6301 95.4449 70.1104 95.8434 69.4962 96.0648C68.0316 96.5962 68.0789 95.5999 67.1576 95.2014C66.7838 95.0583 66.3758 95.0124 65.9765 95.0685C65.3623 95.1571 64.8899 95.467 64.3466 95.7106C63.9047 95.9735 63.3724 96.0686 62.8584 95.9763C62.5513 95.9098 62.2914 95.777 61.9843 95.7327C61.5268 95.6948 61.0664 95.7616 60.6425 95.9275C60.2187 96.0933 59.8442 96.3532 59.5513 96.6847C59.2678 96.9947 59.7403 97.4375 60.0237 97.1275C60.2698 96.8437 60.592 96.6264 60.9574 96.498C61.3227 96.3696 61.7179 96.3347 62.1024 96.3969C62.5985 96.4855 63.0001 96.7733 63.4962 96.729C64.8662 96.6405 65.7875 94.9578 67.2521 96.0206C67.9135 96.5076 68.1497 97.0833 69.1182 96.9061C69.6852 96.7954 70.134 96.4191 70.6301 96.1755C71.4607 95.805 72.3852 95.6593 73.2994 95.7549C73.7246 95.7992 73.7246 95.1571 73.2994 95.135Z" fill="white"/>
<path d="M94.016 87.8511C92.7897 88.1022 91.6856 88.7246 90.8743 89.6223C90.4963 90.0429 90.3073 90.4857 90.0239 90.9507C89.3625 92.0134 88.4648 91.7256 87.4491 92.1241C87.1124 92.2266 86.8323 92.4494 86.6695 92.744C86.5278 93.054 86.5278 93.3196 86.3388 93.6075C86.1498 93.8953 85.6538 94.2938 85.1813 94.6038C84.2837 95.1794 83.3861 95.8215 83.5042 96.9506C83.5514 97.3491 84.2128 97.3491 84.1656 96.9506C84.0238 95.5558 85.9372 95.1351 86.7168 94.2495C86.9766 93.9617 87.0239 93.6739 87.2128 93.3639C87.6853 92.4783 88.5593 92.5669 89.4097 92.3233C90.2601 92.0798 90.4018 91.5485 90.8506 90.7736C91.2011 90.1847 91.6816 89.6727 92.26 89.2718C92.8385 88.8709 93.5016 88.5903 94.205 88.4489C94.6302 88.3603 94.4412 87.7625 94.016 87.8511Z" fill="white"/>
<path d="M63.8741 93.076C63.7834 92.7663 63.7514 92.4441 63.7796 92.124C63.8032 91.969 63.6142 91.814 63.4489 91.814C63.3612 91.814 63.2771 91.8467 63.215 91.9048C63.153 91.9629 63.1182 92.0418 63.1182 92.124C63.0783 92.4953 63.1103 92.8703 63.2127 93.231C63.3544 93.6295 63.9922 93.4524 63.8741 93.076Z" fill="white"/>
<path d="M65.4334 93.0543C65.0319 92.7 65.2208 92.0801 65.1736 91.6373C65.1263 91.1945 64.4649 91.2388 64.5122 91.6373C64.5594 92.0358 64.3705 92.9878 64.961 93.497C65.5516 94.0063 65.7405 93.3199 65.4334 93.0543Z" fill="white"/>
<path d="M84.8746 91.8364C84.7676 91.8285 84.6634 91.7999 84.5687 91.7524C84.474 91.705 84.3908 91.6398 84.3243 91.5608C84.2577 91.4818 84.2093 91.3908 84.1821 91.2934C84.1549 91.1961 84.1494 91.0945 84.166 90.9951C84.2368 90.5966 83.599 90.4194 83.5046 90.818C83.4635 91.0118 83.4676 91.2117 83.5166 91.404C83.5656 91.5962 83.6583 91.7763 83.7884 91.9318C83.9185 92.0874 84.0829 92.2148 84.2704 92.3053C84.4578 92.3958 84.664 92.4473 84.8746 92.4563C85.2998 92.4784 85.2998 91.8585 84.8746 91.8364Z" fill="white"/>
<path d="M86.9058 90.1976C86.2372 90.0296 85.6054 89.7522 85.0397 89.3784C84.6853 89.157 84.331 89.7105 84.6853 89.9319C85.3074 90.3221 85.9937 90.6138 86.7168 90.7953C86.7587 90.807 86.8026 90.8108 86.8461 90.8065C86.8895 90.8022 86.9316 90.7899 86.97 90.7704C87.0084 90.7509 87.0423 90.7245 87.0698 90.6926C87.0973 90.6608 87.1178 90.6243 87.1302 90.585C87.1426 90.5458 87.1467 90.5046 87.1421 90.4639C87.1375 90.4232 87.1245 90.3837 87.1036 90.3477C87.0828 90.3117 87.0546 90.28 87.0207 90.2542C86.9867 90.2284 86.9477 90.2092 86.9058 90.1976Z" fill="white"/>
<path d="M84.6376 84.4855C84.5621 84.5042 84.4952 84.5459 84.4476 84.6039C84.3999 84.662 84.374 84.7332 84.374 84.8065C84.374 84.8798 84.3999 84.951 84.4476 85.009C84.4952 85.0671 84.5621 85.1088 84.6376 85.1275C84.7132 85.1088 84.78 85.0671 84.8277 85.009C84.8754 84.951 84.9013 84.8798 84.9013 84.8065C84.9013 84.7332 84.8754 84.662 84.8277 84.6039C84.78 84.5459 84.7132 84.5042 84.6376 84.4855Z" fill="#FFC800"/>
<path d="M89.2915 81.4306C88.6774 81.8734 87.8978 82.0283 87.26 82.4269C86.6786 82.835 86.1335 83.2866 85.6301 83.7774C85.5674 83.8361 85.5322 83.9158 85.5322 83.9988C85.5322 84.0818 85.5674 84.1615 85.6301 84.2202C85.6927 84.2789 85.7777 84.3119 85.8663 84.3119C85.9549 84.3119 86.0399 84.2789 86.1025 84.2202C86.6931 83.711 87.26 83.0911 87.9923 82.759C88.7246 82.4269 89.2207 82.2719 89.764 81.8734C90.3073 81.4748 89.6222 81.187 89.2915 81.4306Z" fill="#FFC800"/>
<path d="M73.6539 87.6074C72.8053 87.4565 71.9372 87.4266 71.0791 87.5188C70.0161 87.6295 69.024 87.9174 67.961 87.8509C67.5358 87.8067 67.5358 88.4487 67.961 88.4708C69.8508 88.6037 71.5752 87.9174 73.4886 88.2052C73.9138 88.2716 74.0791 87.6738 73.6539 87.6074Z" fill="#FFC800"/>
<path d="M66.9687 88.1169C66.92 88.0453 66.8439 87.994 66.756 87.9734C66.6681 87.9528 66.5752 87.9646 66.4963 88.0062C66.3277 88.0906 66.1431 88.1432 65.953 88.1612C65.8629 88.161 65.7762 88.1929 65.7104 88.2505C65.6446 88.308 65.6046 88.3869 65.5986 88.4711C65.6046 88.5553 65.6446 88.6342 65.7104 88.6918C65.7762 88.7493 65.8629 88.7813 65.953 88.7811C66.2647 88.7625 66.5695 88.6873 66.8506 88.5597C66.927 88.514 66.9817 88.4427 67.0037 88.3603C67.0256 88.278 67.0131 88.1909 66.9687 88.1169Z" fill="#FFC800"/>
<path d="M59.669 41.9992C58.3698 41.8885 56.9761 42.3313 56.0076 41.2686C55.7241 40.9586 55.2517 41.4014 55.5352 41.7114C56.6454 42.9291 58.1572 42.5084 59.669 42.6191C60.0942 42.6634 60.0942 42.0435 59.669 41.9992Z" fill="#FCFCFC"/>
<path d="M31.0394 81.8512C29.4718 81.8994 27.9027 81.8698 26.3386 81.7627C25.8897 81.7405 25.8897 82.3604 26.3386 82.4047C27.9026 82.5156 29.4724 82.5377 31.0394 82.4711C31.4646 82.4711 31.4646 81.8291 31.0394 81.8512Z" fill="#FCFCFC"/>
<path d="M12.4012 4.58266C11.1729 4.62694 9.94452 4.69336 8.71616 4.64908C7.48781 4.6048 6.49569 4.42768 5.38544 4.4941C4.93662 4.51624 4.93662 5.1583 5.38544 5.13616C6.49569 5.06974 7.60592 5.24686 8.71616 5.29114C9.8264 5.33542 11.1729 5.269 12.4012 5.22472C12.8501 5.20258 12.8501 4.56052 12.4012 4.58266Z" fill="#FFC800"/>
<path d="M22.5113 16.184C20.3145 16.2504 18.094 16.2504 15.8971 16.184C15.8094 16.184 15.7253 16.2166 15.6633 16.2748C15.6013 16.3329 15.5664 16.4117 15.5664 16.4939C15.5664 16.5761 15.6013 16.655 15.6633 16.7131C15.7253 16.7712 15.8094 16.8039 15.8971 16.8039C18.094 16.8703 20.3145 16.8703 22.5113 16.8039C22.9365 16.8039 22.9365 16.1618 22.5113 16.184Z" fill="#FFC800"/>
<path d="M31.488 10.4278C29.6454 10.5385 27.7793 10.5827 25.9131 10.5385C25.4879 10.5385 25.4879 11.1584 25.9131 11.1805C27.7793 11.2027 29.6454 11.1584 31.488 11.0477C31.9132 11.0255 31.9368 10.4056 31.488 10.4278Z" fill="#FFC800"/>
</svg>
