<svg width="16" height="34" viewBox="0 0 16 34" fill="none" xmlns="http://www.w3.org/2000/svg">
<path d="M8.5 1C8.5 0.723858 8.27614 0.5 8 0.5C7.72386 0.5 7.5 0.723858 7.5 1L8.5 1ZM7.64645 33.3535C7.84171 33.5488 8.15829 33.5488 8.35355 33.3535L11.5355 30.1716C11.7308 29.9763 11.7308 29.6597 11.5355 29.4645C11.3403 29.2692 11.0237 29.2692 10.8284 29.4645L8 32.2929L5.17157 29.4645C4.97631 29.2692 4.65973 29.2692 4.46447 29.4645C4.2692 29.6597 4.2692 29.9763 4.46447 30.1716L7.64645 33.3535ZM8 1H7.5L7.5 33H8H8.5L8.5 1L8 1Z" fill="#FCFCFC"/>
</svg>
