<svg width="42" height="42" viewBox="0 0 42 42" fill="none" xmlns="http://www.w3.org/2000/svg">
<path d="M1.96821 30.1877H6.55829C6.92155 30.1877 7.214 30.4802 7.214 30.8434V40.0318C7.214 40.395 6.92155 40.6875 6.55829 40.6875H1.96821C1.60495 40.6875 1.3125 40.395 1.3125 40.0318V30.8434C1.3125 30.4802 1.60495 30.1877 1.96821 30.1877Z" fill="#EAEAEA"/>
<path d="M20.2691 28.8942C17.9715 28.8994 15.5679 28.9118 13.7617 28.9094C12.4638 28.9091 9.83834 30.8434 8.52585 30.8434H7.21338C7.21995 33.9013 7.21531 36.9661 7.21338 40.0307H8.52585C9.21492 40.0307 15.7449 40.687 17.7133 40.687C20.9948 40.687 31.5533 31.9931 31.5533 31.9931C32.2418 31.4006 32.5989 30.6729 32.3275 29.8065C32.0561 28.9402 31.0565 28.7651 30.1819 29.0119L21.6482 31.4189C21.8116 31.1633 21.9097 30.8599 21.9097 30.532C21.9097 29.6242 21.178 28.8918 20.2691 28.8942Z" fill="#FFC6A0"/>
<path d="M8.52859 30.844H7.21875V40.0312H8.52859V30.844Z" fill="#FFAF7A"/>
<path d="M31.2893 30.6812C31.2893 30.6812 20.7321 39.375 17.4505 39.375C15.4822 39.375 8.95221 38.7188 8.26316 38.7188H7.21469L7.21338 40.0312H8.52587C9.21495 40.0312 15.7449 40.6875 17.7133 40.6875C20.9948 40.6875 31.5533 31.9937 31.5533 31.9937C32.2419 31.4011 32.5989 30.6734 32.3275 29.8071C32.2801 29.6555 32.2047 29.5319 32.1173 29.4213C32.0158 29.894 31.7165 30.3135 31.2893 30.6812Z" fill="#FFAF7A"/>
<path d="M19.687 30.8581C17.7182 30.8581 15.7495 30.8432 15.0932 30.8432C14.7297 30.8432 14.437 31.1359 14.437 31.4995C14.437 31.863 14.7297 32.1557 15.0932 32.1557C15.7495 32.1568 18.3352 32.1706 20.2689 32.1706C21.1777 32.1706 21.9094 31.4403 21.9094 30.5326C21.9094 30.0277 21.6783 29.5832 21.3211 29.2829C21.2877 30.1606 20.5742 30.8581 19.687 30.8581Z" fill="#FFAF7A"/>
<path d="M20.9269 2.44137C19.9566 3.17267 19.1055 3.88867 18.3442 4.59336L18.375 11.1583H23.1494C23.0371 11.3518 22.9686 11.5737 22.9686 11.8145C22.9686 12.5416 23.554 13.127 24.2811 13.127H29.531C30.1873 13.127 33.4683 11.8145 34.1247 11.8145H34.781V11.1583V10.502V2.68233L24.2811 1.34679C24.1288 1.32745 23.9802 1.31668 23.8351 1.31346C22.8193 1.2909 21.9572 1.66465 20.9269 2.44137Z" fill="#FFC6A0"/>
<path d="M19.8644 3.28345C19.3242 3.72426 18.8103 4.16193 18.3442 4.59335L18.375 11.1583H23.1494C23.0371 11.3518 22.9686 11.5737 22.9686 11.8145C22.9686 12.5416 23.554 13.127 24.2811 13.127H28.2186C28.2186 10.2833 28.2186 7.4396 28.2186 4.59592C28.2186 3.86881 27.6332 3.28345 26.9061 3.28345H19.8644Z" fill="#FFAF7A"/>
<path d="M26.906 17.0644C26.906 17.7915 26.3206 18.3768 25.5935 18.3768H2.62497C1.89787 18.3768 1.3125 17.7915 1.3125 17.0644V5.90839C1.3125 5.18128 1.89787 4.59592 2.62497 4.59592H25.5935C26.3206 4.59592 26.906 5.18128 26.906 5.90839" fill="#21D373"/>
<path d="M18.3749 11.1582C18.3749 13.3328 16.612 15.0956 14.4374 15.0956C12.2629 15.0956 10.5 13.3328 10.5 11.1582C10.5 8.98369 12.2629 7.22086 14.4374 7.22086C16.612 7.22086 18.3749 8.98369 18.3749 11.1582Z" fill="#118A49"/>
<path d="M24.2808 4.59592C25.0079 4.59592 25.5932 5.18127 25.5932 5.90838V17.0644C25.5932 17.7915 25.0079 18.3768 24.2808 18.3768H25.5932C26.3204 18.3768 26.9057 17.7915 26.9057 17.0644V5.90838C26.9057 5.18127 26.3204 4.59592 25.5932 4.59592H24.2808Z" fill="#118A49"/>
<path d="M34.7811 11.8145H34.1249C33.4684 11.8145 30.1874 13.127 29.5312 13.127H24.2812C23.5541 13.127 22.9688 12.5416 22.9688 11.8145C22.9688 11.0874 23.5541 10.502 24.2812 10.502H34.7811L34.7811 11.8145Z" fill="#FFC6A0"/>
<path d="M33.4683 2.51572V11.9516C33.7535 11.8725 33.9976 11.8145 34.1245 11.8145H34.7808V2.68235L33.4683 2.51572Z" fill="#FFAF7A"/>
<path d="M34.1245 10.502C33.468 10.502 30.187 11.8145 29.5308 11.8145H24.2808C23.7945 11.8145 23.3758 11.5492 23.1491 11.1583C23.0367 11.3518 22.9683 11.5737 22.9683 11.8145C22.9683 12.5416 23.5536 13.127 24.2808 13.127H29.5307C30.1869 13.127 33.4679 11.8145 34.1244 11.8145H34.7806V10.502H34.1245Z" fill="#FFAF7A"/>
<path d="M1.3125 8.2052C3.30588 8.2052 4.92184 6.58927 4.92184 4.59592H2.62499C1.89787 4.59592 1.3125 5.18127 1.3125 5.90838V8.2052Z" fill="#E4EFF8"/>
<path d="M26.9057 8.2052C24.9123 8.2052 23.2964 6.58927 23.2964 4.59592H25.5933C26.3204 4.59592 26.9057 5.18127 26.9057 5.90838V8.2052Z" fill="#E4EFF8"/>
<path d="M26.9057 14.7675C24.9123 14.7675 23.2964 16.3835 23.2964 18.3768H25.5932C26.3204 18.3768 26.9057 17.7915 26.9057 17.0644V14.7675Z" fill="#E4EFF8"/>
<path d="M24.2808 18.3768C25.0079 18.3768 25.5933 17.7915 25.5933 17.0644V15.0188C26.0113 14.8541 26.4564 14.7689 26.9057 14.7675V17.0644C26.9057 17.7915 26.3204 18.3768 25.5933 18.3768H24.2808Z" fill="#C4DCF0"/>
<path d="M1.3125 14.7675C3.30588 14.7675 4.92184 16.3835 4.92184 18.3768H2.62499C1.89787 18.3768 1.3125 17.7915 1.3125 17.0644V14.7675Z" fill="#E4EFF8"/>
<path d="M24.2808 4.59592C25.0079 4.59592 25.5932 5.18127 25.5932 5.90838V7.95399C26.0113 8.11869 26.4564 8.20389 26.9057 8.2052V5.90838C26.9057 5.18127 26.3204 4.59592 25.5932 4.59592H24.2808Z" fill="#C4DCF0"/>
<path d="M17.0624 11.1582C17.0624 12.9704 15.5934 14.4394 13.7812 14.4394C11.969 14.4394 10.5 12.9704 10.5 11.1582C10.5 9.3461 11.969 7.87708 13.7812 7.87708C15.5934 7.87707 17.0624 9.3461 17.0624 11.1582Z" fill="#E4EFF8"/>
<path d="M13.1315 7.94502C14.656 8.25938 15.7499 9.60165 15.75 11.1583C15.7486 12.7188 14.6483 14.0624 13.1187 14.3715C13.3367 14.4166 13.5587 14.4393 13.7813 14.4394C15.5935 14.4394 17.0625 12.9704 17.0625 11.1583C17.0625 9.34613 15.5935 7.8771 13.7813 7.87709C13.563 7.87806 13.3453 7.90083 13.1315 7.94502Z" fill="#C4DCF0"/>
<path d="M37.3981 18.3768C37.194 18.3791 37.0027 18.4762 36.8803 18.6396C36.6652 18.9288 36.7235 19.3373 37.011 19.5547L38.0672 20.3494H30.8434C30.4809 20.3479 30.186 20.6406 30.1846 21.003C30.186 21.3655 30.4809 21.6581 30.8434 21.6567H40.0282C40.6536 21.6542 40.9214 20.8613 40.4255 20.4801L37.8006 18.5088C37.6847 18.4216 37.5432 18.3751 37.3981 18.3768Z" fill="#EA3323"/>
<path d="M30.8528 22.9692C30.2223 22.9702 29.9558 23.7731 30.4606 24.1509L33.0856 26.1222C33.3748 26.3373 33.7833 26.279 34.0007 25.9915C34.2193 25.7014 34.1608 25.2889 33.87 25.0712L32.819 24.2817H40.0325C40.3935 24.2809 40.6861 23.9889 40.6875 23.628C40.6889 23.2651 40.3955 22.9699 40.0325 22.9692H30.8528Z" fill="#21D373"/>
<path d="M3.28124 38.0626C2.91881 38.0626 2.625 38.3564 2.625 38.7188C2.625 39.0812 2.91881 39.375 3.28124 39.375C3.64367 39.375 3.93749 39.0812 3.93749 38.7188C3.93749 38.3564 3.64367 38.0626 3.28124 38.0626Z" fill="#68A4D4"/>
<path d="M5.90088 30.1877V40.6875H6.5584C6.92167 40.6875 7.21336 40.3945 7.21336 40.0313V30.844C7.21336 30.4807 6.92167 30.1877 6.5584 30.1877H5.90088Z" fill="#AEB8BF"/>
<path d="M35.4418 1.97098H40.0319C40.3952 1.97098 40.6876 2.26342 40.6876 2.62668V11.815C40.6876 12.1783 40.3952 12.4707 40.0319 12.4707H35.4418C35.0786 12.4707 34.7861 12.1783 34.7861 11.815V2.62668C34.7861 2.26342 35.0786 1.97098 35.4418 1.97098Z" fill="#EAEAEA"/>
<path d="M36.7549 9.84579C36.3924 9.84579 36.0986 10.1396 36.0986 10.502C36.0986 10.8644 36.3924 11.1583 36.7549 11.1583C37.1173 11.1583 37.4111 10.8644 37.4111 10.502C37.4111 10.1396 37.1173 9.84579 36.7549 9.84579Z" fill="#68A4D4"/>
<path d="M39.3745 1.97098V12.4707H40.032C40.3953 12.4707 40.687 12.1777 40.687 11.8145V2.62721C40.687 2.26395 40.3953 1.97098 40.032 1.97098H39.3745Z" fill="#AEB8BF"/>
<path d="M37.3984 18.3764C37.2833 18.3777 37.1736 18.4122 37.0767 18.4686C37.1017 18.4828 37.1291 18.4909 37.1523 18.5084L39.7773 20.4796C40.2731 20.8608 40.0053 21.6537 39.3799 21.6562H40.0285C40.6539 21.6537 40.9216 20.8608 40.4258 20.4796L37.8008 18.5084C37.685 18.4211 37.5434 18.3747 37.3984 18.3764Z" fill="#BC271A"/>
<path d="M39.375 22.9687C39.7379 22.9694 40.0314 23.2646 40.03 23.6275C40.0286 23.9884 39.7359 24.2805 39.375 24.2812H40.0325C40.3935 24.2805 40.6861 23.9884 40.6875 23.6275C40.6889 23.2646 40.3955 22.9694 40.0325 22.9687H39.375Z" fill="#118B49"/>
<path d="M32.1611 24.2812L33.2121 25.0707C33.5029 25.2884 33.5615 25.7009 33.3429 25.991C33.291 26.0596 33.2277 26.1144 33.1583 26.1563C33.4404 26.3157 33.7999 26.2561 34.0004 25.991C34.219 25.7009 34.1604 25.2884 33.8697 25.0707L32.8187 24.2812H32.1611Z" fill="#118B49"/>
</svg>
